<?xml version="1.0" encoding="UTF-8" standalone="no"?>
<svg width="218px" height="31px" viewBox="0 0 218 31" version="1.1" xmlns="http://www.w3.org/2000/svg" xmlns:xlink="http://www.w3.org/1999/xlink" xmlns:sketch="http://www.bohemiancoding.com/sketch/ns">
    <!-- Generator: Sketch Beta 3.4 (15009) - http://www.bohemiancoding.com/sketch -->
    <title>techCrunch</title>
    <desc>Created with Sketch Beta.</desc>
    <defs></defs>
    <g id="Page-1" stroke="none" stroke-width="1" fill="none" fill-rule="evenodd" sketch:type="MSPage">
        <g id="WINNER" sketch:type="MSArtboardGroup" transform="translate(-195.000000, -3035.000000)" fill="#FFFFFF">
            <g id="techCrunch" sketch:type="MSLayerGroup" transform="translate(195.000000, 3035.000000)">
                <path d="M81.9311018,12.112475 L81.9311018,25.83385 L76.9606982,25.83385 L76.9606982,12.112475 L71.9390667,12.112475 L71.9390667,7.74535 L86.9527333,7.74535 L86.9527333,12.112475 L81.9311018,12.112475 Z" id="Fill-1" sketch:type="MSShapeGroup"></path>
                <g id="Group-26" sketch:type="MSShapeGroup">
                    <path d="M92.458214,15.4199167 C91.4080386,15.4199167 90.8189158,16.14325 90.6652316,17.4865833 L94.5086175,17.4865833 C94.2768105,16.1174167 93.8157579,15.4199167 92.458214,15.4199167 M98.5556351,20.3812083 L90.6652316,20.3812083 C90.8189158,21.8795417 91.6885123,22.5512083 92.9448807,22.5512083 C94.1231263,22.5512083 95.0977404,22.292875 96.4296702,21.595375 L98.1957579,24.5675 C96.5321263,25.547875 94.8147053,26.1175 92.7143544,26.1175 C88.6660561,26.1175 86.4376351,23.222875 86.4376351,19.0624167 C86.4376351,14.3865833 89.0502667,11.9827917 92.5862842,11.9827917 C96.2747053,11.9827917 98.5812491,14.43825 98.5812491,19.47575 C98.5812491,19.8645417 98.5812491,20.1487083 98.5556351,20.3812083" id="Fill-2"></path>
                    <path d="M107.134928,26.1171125 C103.190367,26.1171125 100.832595,23.5854458 100.832595,19.0116542 C100.832595,14.8511958 102.934226,11.9836958 107.237384,11.9836958 C109.774454,11.9836958 111.234454,13.1720292 112.4127,15.0836958 L109.23656,17.5120292 C108.596209,16.3236958 108.159489,15.7553625 107.161823,15.7553625 C105.982296,15.7553625 105.393174,16.9436958 105.393174,19.0891542 C105.393174,21.2346125 106.033525,22.3441542 107.288612,22.3441542 C108.159489,22.3441542 108.774226,21.8533208 109.619489,20.5874875 L112.54077,22.8866542 C110.978314,25.2129458 109.517033,26.1171125 107.134928,26.1171125" id="Fill-4"></path>
                    <path d="M122.86233,25.8333333 L122.86233,18.1324167 C122.86233,16.37575 122.273207,15.91075 121.325488,15.91075 C120.350874,15.91075 119.761751,16.37575 119.761751,18.08075 L119.761751,25.8333333 L115.151225,25.8333333 L115.151225,8.85695833 L119.761751,6.99695833 L119.761751,13.171125 C120.607014,12.5252917 121.554733,11.9827917 123.144084,11.9827917 C126.090979,11.9827917 127.499751,13.9719583 127.499751,17.53825 L127.499751,25.8333333 L122.86233,25.8333333 Z" id="Fill-6"></path>
                    <path d="M138.538375,26.1171125 C133.209375,26.1171125 130.364937,22.1374875 130.364937,16.7886958 C130.364937,10.9749042 133.74727,7.46157083 138.563989,7.46157083 C142.970884,7.46157083 144.712639,9.3732375 145.942112,12.7845292 L141.434042,14.5670292 C140.792411,12.8878625 140.177674,11.8274042 138.538375,11.8274042 C136.463639,11.8274042 135.567147,13.9211958 135.567147,16.7886958 C135.567147,19.5541542 136.436744,21.7499875 138.589604,21.7499875 C140.15206,21.7499875 140.818025,20.8974875 141.791358,19.1924875 L145.99334,21.4399875 C144.789481,23.8179458 142.790305,26.1171125 138.538375,26.1171125" id="Fill-8"></path>
                    <path d="M157.337412,17.38325 C156.748289,16.7374167 156.083605,16.2465833 155.185833,16.2465833 C154.057535,16.2465833 153.365956,16.7890833 153.365956,18.4424167 L153.365956,25.8333333 L148.75543,25.8333333 L148.75543,12.2669583 L153.365956,12.2669583 L153.365956,13.248625 C154.161272,12.473625 155.057763,11.9827917 156.237289,11.9827917 C157.209342,11.9827917 157.876588,12.2152917 158.414482,12.551125 L157.337412,17.38325 Z" id="Fill-10"></path>
                    <path d="M168.300988,25.8333333 L168.300988,24.927875 C167.480058,25.5737083 166.508005,26.1175 164.945549,26.1175 C161.998654,26.1175 160.589882,24.1283333 160.589882,20.56075 L160.589882,12.2669583 L165.227304,12.2669583 L165.227304,19.967875 C165.227304,21.72325 165.816426,22.1895417 166.764146,22.1895417 C167.711865,22.1895417 168.300988,21.72325 168.300988,20.01825 L168.300988,12.2669583 L172.938409,12.2669583 L172.938409,25.8333333 L168.300988,25.8333333 Z" id="Fill-12"></path>
                    <path d="M183.977033,25.8333333 L183.977033,18.1324167 C183.977033,16.37575 183.387911,15.91075 182.440191,15.91075 C181.465577,15.91075 180.876454,16.37575 180.876454,18.08075 L180.876454,25.8333333 L176.265928,25.8333333 L176.265928,12.2669583 L180.876454,12.2669583 L180.876454,13.171125 C181.721718,12.5252917 182.669437,11.9827917 184.258788,11.9827917 C187.205682,11.9827917 188.614454,13.9719583 188.614454,17.53825 L188.614454,25.8333333 L183.977033,25.8333333 Z" id="Fill-14"></path>
                    <path d="M197.602035,26.1171125 C193.657474,26.1171125 191.299702,23.5854458 191.299702,19.0116542 C191.299702,14.8511958 193.401333,11.9836958 197.704491,11.9836958 C200.241561,11.9836958 201.701561,13.1720292 202.879807,15.0836958 L199.703667,17.5120292 C199.063316,16.3236958 198.626596,15.7553625 197.62893,15.7553625 C196.449404,15.7553625 195.860281,16.9436958 195.860281,19.0891542 C195.860281,21.2346125 196.500632,22.3441542 197.755719,22.3441542 C198.626596,22.3441542 199.241333,21.8533208 200.086596,20.5874875 L203.007877,22.8866542 C201.445421,25.2129458 199.98414,26.1171125 197.602035,26.1171125" id="Fill-16"></path>
                    <path d="M213.329437,25.8333333 L213.329437,18.1324167 C213.329437,16.37575 212.740314,15.91075 211.792595,15.91075 C210.817981,15.91075 210.228858,16.37575 210.228858,18.08075 L210.228858,25.8333333 L205.618332,25.8333333 L205.618332,8.85695833 L210.228858,6.99695833 L210.228858,13.171125 C211.074121,12.5252917 212.02184,11.9827917 213.611191,11.9827917 C216.558086,11.9827917 217.966858,13.9719583 217.966858,17.53825 L217.966858,25.8333333 L213.329437,25.8333333 Z" id="Fill-18"></path>
                    <path d="M0,0 L0,10.3333333 L10.245614,10.3333333 L10.245614,31 L20.4912281,31 L20.4912281,10.3333333 L30.7368421,10.3333333 L30.7368421,0 L0,0 Z" id="Fill-20"></path>
                    <path d="M40.9824561,20.6666667 L40.9824561,10.3333333 L30.7368421,10.3333333 L30.7368421,31 L61.4736842,31 L61.4736842,20.6666667 L40.9824561,20.6666667 Z" id="Fill-22"></path>
                    <path d="M40.9824561,10.3333333 L61.4736842,10.3333333 L61.4736842,0 L40.9824561,0 L40.9824561,10.3333333 Z" id="Fill-24"></path>
                </g>
            </g>
        </g>
    </g>
</svg>