<?xml version="1.0" encoding="UTF-8" standalone="no"?>
<svg width="193px" height="193px" viewBox="0 0 193 193" version="1.1" xmlns="http://www.w3.org/2000/svg" xmlns:xlink="http://www.w3.org/1999/xlink" xmlns:sketch="http://www.bohemiancoding.com/sketch/ns">
    <!-- Generator: Sketch Beta 3.4 (15009) - http://www.bohemiancoding.com/sketch -->
    <title>credit_cards</title>
    <desc>Created with Sketch Beta.</desc>
    <defs></defs>
    <g id="Page-1" stroke="none" stroke-width="1" fill="none" fill-rule="evenodd" sketch:type="MSPage">
        <g id="WINNER" sketch:type="MSArtboardGroup" transform="translate(-624.000000, -3460.000000)">
            <g id="Group-+-super-icons" sketch:type="MSLayerGroup" transform="translate(194.000000, 3302.000000)">
                <g id="super-icons" transform="translate(65.000000, 158.000000)" sketch:type="MSShapeGroup">
                    <g id="credit_cards" transform="translate(365.000000, 0.000000)">
                        <rect id="Rectangle-21" fill="#FFFFFF" x="0" y="0" width="193" height="193"></rect>
                        <g id="back" transform="translate(47.626866, 41.000000)">
                            <path d="M137.373134,90.7894737 C137.373134,94.4736842 134.467164,97.3684211 130.768657,97.3684211 L6.60447761,97.3684211 C2.90597015,97.3684211 0,94.4736842 0,90.7894737 L0,6.57894737 C0,2.89473684 2.90597015,0 6.60447761,0 L130.768657,0 C134.467164,0 137.373134,2.89473684 137.373134,6.57894737 L137.373134,90.7894737 L137.373134,90.7894737 Z" id="XMLID_280_" stroke="#1485E0" stroke-width="4" fill="#C4E1F7"></path>
                            <rect id="XMLID_279_" fill="#1485E0" x="1.32089552" y="11.8421053" width="134.731343" height="18.4210526"></rect>
                            <rect id="XMLID_278_" fill="#FFFFFF" x="10.5671642" y="40.7894737" width="116.238806" height="13.1578947"></rect>
                            <g id="XMLID_277_" transform="translate(10.567164, 65.789474)" stroke-width="2" stroke="#1485E0">
                                <g id="XMLID_466_">
                                    <path d="M116.238806,0 L114.91791,0" id="XMLID_469_"></path>
                                    <path d="M112.276119,0 L2.64179104,0" id="XMLID_468_" stroke-dasharray="2,2"></path>
                                    <path d="M1.32089552,0 L0,0" id="XMLID_467_"></path>
                                </g>
                            </g>
                            <g id="XMLID_276_" transform="translate(10.567164, 73.684211)" stroke-width="2" stroke="#1485E0">
                                <g id="XMLID_446_">
                                    <path d="M116.238806,0 L114.91791,0" id="XMLID_452_"></path>
                                    <path d="M112.276119,0 L2.64179104,0" id="XMLID_449_" stroke-dasharray="2,2"></path>
                                    <path d="M1.32089552,0 L0,0" id="XMLID_447_"></path>
                                </g>
                            </g>
                        </g>
                        <g id="front" transform="translate(8.000000, 68.631579)">
                            <path d="M137.373134,90.7894737 C137.373134,94.4736842 134.467164,97.3684211 130.768657,97.3684211 L6.60447761,97.3684211 C2.90597015,97.3684211 0,94.4736842 0,90.7894737 L0,6.57894737 C0,2.89473684 2.90597015,0 6.60447761,0 L130.768657,0 C134.467164,0 137.373134,2.89473684 137.373134,6.57894737 L137.373134,90.7894737 L137.373134,90.7894737 Z" id="XMLID_275_" stroke="#1485E0" stroke-width="4" fill="#FFFFFF"></path>
                            <g id="logo" transform="translate(41.947761, 28.947368)">
                                <ellipse id="XMLID_274_" fill="#C4E1F7" cx="37.5701493" cy="18.4210526" rx="15.4544776" ry="15.3947368"></ellipse>
                                <ellipse id="XMLID_273_" fill="#1485E0" cx="15.511194" cy="18.4210526" rx="15.4544776" ry="15.3947368"></ellipse>
                                <g id="XMLID_272_" transform="translate(18.813433, 0.000000)" fill="#FFFFFF">
                                    <path d="M18.7567164,3.02631579 C27.3425373,3.02631579 34.211194,9.86842105 34.211194,18.4210526 C34.211194,26.9736842 27.3425373,33.8157895 18.7567164,33.8157895 C10.1708955,33.8157895 3.30223881,26.9736842 3.30223881,18.4210526 C3.30223881,9.86842105 10.3029851,3.02631579 18.7567164,3.02631579 L18.7567164,3.02631579 Z M18.7567164,0.394736842 C8.71791045,0.394736842 0.660447761,8.42105263 0.660447761,18.4210526 C0.660447761,28.4210526 8.71791045,36.4473684 18.7567164,36.4473684 C28.7955224,36.4473684 36.8529851,28.4210526 36.8529851,18.4210526 C36.8529851,8.42105263 28.7955224,0.394736842 18.7567164,0.394736842 L18.7567164,0.394736842 L18.7567164,0.394736842 Z" id="XMLID_45_"></path>
                                </g>
                            </g>
                        </g>
                    </g>
                </g>
            </g>
        </g>
    </g>
</svg>