<?xml version="1.0" encoding="UTF-8" standalone="no"?>
<svg width="193px" height="36px" viewBox="0 0 193 36" version="1.1" xmlns="http://www.w3.org/2000/svg" xmlns:xlink="http://www.w3.org/1999/xlink" xmlns:sketch="http://www.bohemiancoding.com/sketch/ns">
    <!-- Generator: Sketch Beta 3.4 (15009) - http://www.bohemiancoding.com/sketch -->
    <title>mashable</title>
    <desc>Created with Sketch Beta.</desc>
    <defs>
        <path id="path-1" d="M0,36 L193,36 L193,0.518142857 L0,0.518142857"></path>
    </defs>
    <g id="Page-1" stroke="none" stroke-width="1" fill="none" fill-rule="evenodd" sketch:type="MSPage">
        <g id="WINNER" sketch:type="MSArtboardGroup" transform="translate(-853.000000, -3032.000000)">
            <g id="mashable" sketch:type="MSLayerGroup" transform="translate(853.000000, 3032.000000)">
                <path d="M83.0762067,0.522642857 C85.59743,0.523928571 88.1167233,0.527142857 90.6360167,0.521357143 C90.64631,5.1165 90.6418067,9.70971429 90.6527433,14.3055 C91.5585567,13.1862857 92.6618733,12.2033571 93.99872,11.6292857 C96.2825533,10.5910714 99.02637,10.5692143 101.31342,11.6119286 C102.998953,12.3801429 104.30492,13.8381429 105.042823,15.5224286 C105.770433,17.1482143 106.068297,18.936 106.12298,20.7064286 C106.125553,25.6223571 106.12298,30.5382857 106.124267,35.4535714 C103.601113,35.4535714 101.076673,35.4567857 98.5528767,35.4522857 C98.5406533,30.9432857 98.5696033,26.4317143 98.5528767,21.9220714 C98.4981933,20.4589286 98.2550133,18.8305714 97.1304667,17.7814286 C95.6038367,16.452 93.0150633,16.6930714 91.7129567,18.2288571 C91.08828,18.9552857 90.65403,19.8777857 90.6585333,20.8485 C90.6572467,25.7168571 90.6816933,30.5839286 90.66947,35.451 C88.1321633,35.4567857 85.5922833,35.4555 83.0549767,35.4522857 C83.0504733,23.8088571 83.0607667,12.1667143 83.0762067,0.522642857" id="Fill-1" fill="#FFFFFF" sketch:type="MSShapeGroup"></path>
                <path d="M160.11473,0.521357143 C162.634023,0.529071429 165.153317,0.523928571 167.671323,0.522642857 C167.684833,11.1188571 167.700273,21.7157143 167.694483,32.3125714 C167.68033,33.3655714 167.72279,34.4205 167.67261,35.4728571 C165.144953,35.4291429 162.61408,35.4664286 160.08385,35.4535714 C160.075487,23.8101429 160.104437,12.1647857 160.11473,0.521357143" id="Fill-2" fill="#FFFFFF" sketch:type="MSShapeGroup"></path>
                <g id="Group-10">
                    <mask id="mask-2" sketch:name="Clip 4" fill="white">
                        <use xlink:href="#path-1"></use>
                    </mask>
                    <g id="Clip-4"></g>
                    <path d="M2.15130667,2.29692857 C5.51851333,2.2815 8.88443333,2.29821429 12.2509967,2.28792857 C13.19734,5.51957143 14.1610533,8.74542857 15.1112567,11.9757857 C16.32587,16.0135714 17.3552033,20.1079286 18.1806,24.2421429 C18.2648767,24.5905714 18.2584433,24.9827143 18.4984067,25.2713571 C19.4518267,21.2830714 20.4863067,17.3127857 21.68548,13.3907143 C22.8621367,9.6885 24.0671,5.99592857 25.2373233,2.29178571 C28.5498467,2.286 31.8636567,2.29821429 35.1755367,2.286 C35.8021433,13.3392857 36.3779267,24.3977143 37.0045333,35.451 C34.5309167,35.4587143 32.0585867,35.4535714 29.5856133,35.4535714 C29.2169833,26.6708571 28.78209,17.8868571 28.7389867,9.09642857 C28.62769,9.38507143 28.53891,9.68142857 28.4668567,9.98164286 C26.88297,16.1865 24.8114367,22.248 22.9193933,28.3628571 C22.23553,30.5447143 21.55231,32.7259286 20.8633,34.9058571 C18.8754,34.9077857 16.88943,34.9032857 14.9021733,34.9077857 C13.78213,30.9837857 12.70519,27.0482143 11.6038033,23.1190714 C10.2836833,18.4853571 9.22347,13.7828571 8.27905667,9.06107143 C8.18127,9.93728571 8.17676667,10.8199286 8.1446,11.7006429 C7.88662333,19.6238571 7.47553333,27.5412857 7.04900333,35.4567857 C4.69955,35.4497143 2.34945333,35.46 0,35.451 C0.708953333,24.3996429 1.45264667,13.3482857 2.15130667,2.29692857" id="Fill-3" fill="#FFFFFF" sketch:type="MSShapeGroup" mask="url(#mask-2)"></path>
                    <path d="M70.2352733,11.1297857 C73.4435767,10.5158571 76.8384467,10.9330714 79.8331633,12.2303571 C79.53337,13.9821429 78.99297,15.6850714 78.5941033,17.4182143 C77.0674733,16.6930714 75.4160367,16.2012857 73.7247133,16.0849286 C72.8877367,16.0457143 71.99865,16.1209286 71.26332,16.5574286 C70.6463633,16.9283571 70.2931733,17.7145714 70.5054733,18.4152857 C70.6766,19.0485 71.2588167,19.4393571 71.80565,19.7305714 C73.60248,20.6614286 75.6527833,21.015 77.37949,22.0975714 C78.85015,22.9474286 80.1110833,24.2665714 80.6013033,25.9212857 C81.2324133,28.0420714 80.9879467,30.4804286 79.70321,32.3170714 C78.6475,33.8187857 77.0063567,34.8203571 75.26807,35.3500714 C72.80346,36.0983571 70.17287,36.1221429 67.63492,35.8142143 C65.8811933,35.5654286 64.13776,35.1025714 62.56288,34.2803571 C62.9398733,32.6899286 63.37734,31.1136429 63.75562,29.5232143 C63.8199533,29.3355 63.81738,29.1021429 63.95634,28.9504286 C65.9390933,29.9687143 68.1380067,30.6096429 70.3710167,30.6957857 C71.2832633,30.6694286 72.2887933,30.6372857 73.0434233,30.0574286 C73.6957633,29.5592143 73.7903333,28.5904286 73.46352,27.8800714 C73.19911,27.3259286 72.6400533,27.0160714 72.1176667,26.7486429 C70.8741033,26.1411429 69.5095933,25.8422143 68.2570233,25.2604286 C66.5303167,24.4851429 64.86537,23.355 63.9074467,21.681 C62.8009133,19.7254286 63.00871,17.2215 64.05091,15.2839286 C65.2944733,13.0043571 67.7384967,11.6061429 70.2352733,11.1297857" id="Fill-5" fill="#FFFFFF" sketch:type="MSShapeGroup" mask="url(#mask-2)"></path>
                    <path d="M179.452043,16.4134286 C178.00969,17.316 177.253773,18.9970714 177.05627,20.6382857 C180.027827,20.6318571 182.998097,20.6382857 185.969653,20.6350714 C185.940703,19.3725 185.626113,18.0501429 184.78399,17.073 C183.50054,15.5603571 181.08997,15.4150714 179.452043,16.4134286 L179.452043,16.4134286 Z M178.68519,11.2307143 C180.874453,10.6746429 183.212327,10.6489286 185.406093,11.196 C187.928603,11.8227857 190.132663,13.5527143 191.358213,15.8425714 C192.99421,18.8704286 193.315233,22.4865 192.727227,25.839 C187.529737,25.7965714 182.331603,25.7798571 177.132827,25.7753571 C177.19716,27.1337143 178.005187,28.3930714 179.14646,29.1092143 C180.81012,30.1885714 182.868143,30.4251429 184.808437,30.3338571 C186.80277,30.2895 188.77909,29.9307857 190.673707,29.3155714 C191.005023,31.0204286 191.34406,32.7227143 191.680523,34.4282143 C189.683617,35.2478571 187.546463,35.6830714 185.39966,35.8515 C182.233817,36.1337143 178.90328,35.9620714 176.00249,34.5471429 C173.912943,33.5532857 172.16951,31.8452143 171.16398,29.7578571 C170.097333,27.5779286 169.769233,25.0958571 169.908193,22.6915714 C170.099263,19.8469286 171.099647,17.0151429 172.955663,14.8255714 C174.42375,13.0628571 176.46376,11.799 178.68519,11.2307143 L178.68519,11.2307143 Z" id="Fill-6" fill="#FFFFFF" sketch:type="MSShapeGroup" mask="url(#mask-2)"></path>
                    <path d="M144.247557,16.6995 C142.155437,17.0871429 140.576053,19.0517143 140.480197,21.1487143 C140.442883,22.581 140.47505,24.0132857 140.470547,25.4455714 C140.481483,27.0514286 141.38601,28.6084286 142.76596,29.4280714 C144.16135,30.2817857 146.005787,30.2271429 147.428197,29.4653571 C148.624153,28.8257143 149.38972,27.6055714 149.778293,26.3404286 C150.257577,24.7281429 150.30454,23.0007857 150.027263,21.348 C149.79116,20.0802857 149.2855,18.8119286 148.34173,17.9055 C147.284733,16.8640714 145.69377,16.4455714 144.247557,16.6995 L144.247557,16.6995 Z M132.883717,0.522642857 C135.399793,0.523928571 137.917157,0.530357143 140.435163,0.518142857 C140.458967,5.06442857 140.44803,9.61071429 140.45575,14.1557143 C140.588277,14.0657143 140.724663,13.9737857 140.823737,13.8413571 C142.278313,11.9892857 144.629053,11.0385 146.936047,10.8829286 C149.2662,10.6720714 151.698,11.2596429 153.565597,12.699 C155.709183,14.3112857 157.008717,16.8364286 157.54204,19.4258571 C158.01103,21.7459286 157.998807,24.1598571 157.560697,26.4850714 C157.058897,29.0571429 155.846857,31.5488571 153.86925,33.309 C151.91223,35.0813571 149.261053,36.0784286 146.618883,35.9884286 C144.475297,36.0147857 142.27381,35.2851429 140.736243,33.7564286 C140.227367,33.2742857 139.847157,32.6847857 139.43671,32.1248571 C139.291317,33.2357143 139.263653,34.3575 139.100247,35.4664286 C136.953443,35.4278571 134.805353,35.4831429 132.66048,35.4387857 C132.877283,32.0065714 132.875997,28.5685714 132.860557,25.1325 C132.85927,16.9283571 132.875997,8.7255 132.883717,0.522642857 L132.883717,0.522642857 Z" id="Fill-7" fill="#FFFFFF" sketch:type="MSShapeGroup" mask="url(#mask-2)"></path>
                    <path d="M48.7910433,24.6606429 C48.0930267,24.9049286 47.4040167,25.2443571 46.8938533,25.7901429 C45.9989767,26.7139286 45.8638767,28.2297857 46.45703,29.3470714 C46.8751967,30.1737857 47.8073867,30.6051429 48.6984033,30.6758571 C50.76865,30.8847857 52.9926533,29.2789286 53.09044,27.1272857 C53.1335433,26.1186429 53.1026633,25.1067857 53.10395,24.0955714 C51.6532333,24.1077857 50.18,24.2119286 48.7910433,24.6606429 L48.7910433,24.6606429 Z M40.35051,13.023 C42.6311267,11.7957857 45.1993133,11.1728571 47.7662133,10.9420714 C50.57565,10.7132143 53.5703667,10.8475714 56.0909467,12.2412857 C57.89421,13.2229286 59.2111133,14.9586429 59.8216367,16.9039286 C60.2983467,18.3722143 60.4604667,19.9279286 60.4405233,21.4688571 C60.4469567,24.5230714 60.4392367,27.5779286 60.4469567,30.6308571 C60.50164,32.2405714 60.5447433,33.8573571 60.8483967,35.442 C58.5845067,35.4619286 56.3186867,35.4619286 54.0560833,35.4432857 C53.7517867,34.6827857 53.7414933,33.8117143 53.5336967,33.012 C51.8179267,35.0247857 49.1461633,36.0617143 46.5271533,35.9865 C44.1300933,36.0752143 41.6577633,35.0832857 40.1684467,33.1688571 C37.7347167,30.1185 38.1947,25.2070714 41.1521033,22.6594286 C43.4256433,20.6652857 46.4872667,19.9035 49.4273,19.5717857 C50.5653567,19.4438571 51.7111333,19.395 52.85691,19.4136429 C52.93797,18.4519286 52.58478,17.415 51.7613133,16.8595714 C50.5666433,16.0167857 49.02779,15.9936429 47.6240367,16.0624286 C45.5801667,16.2347143 43.54466,16.7920714 41.7587667,17.8135714 C41.27305,16.2212143 40.8362267,14.6134286 40.35051,13.023 L40.35051,13.023 Z" id="Fill-8" fill="#FFFFFF" sketch:type="MSShapeGroup" mask="url(#mask-2)"></path>
                    <path d="M118.308357,24.6574286 C117.404473,24.9518571 116.518603,25.4667857 116.0123,26.2986429 C115.47769,27.2211429 115.468683,28.413 115.958903,29.3567143 C116.3211,30.0207857 117.006893,30.4637143 117.74158,30.6051429 C119.730767,31.0480714 121.996587,29.7642857 122.503533,27.7656429 C122.72098,26.5551429 122.592313,25.317 122.61676,24.0936429 C121.166687,24.1077857 119.697313,24.2119286 118.308357,24.6574286 L118.308357,24.6574286 Z M109.854957,13.0262143 C112.769257,11.4615 116.123597,10.8610714 119.40717,10.8520714 C121.954127,10.8675 124.65484,11.3438571 126.689703,12.9786429 C128.332777,14.2733571 129.300993,16.2501429 129.681847,18.2745 C129.918593,19.4734286 129.96427,20.7019286 129.95462,21.9207857 C129.957837,24.3186429 129.957837,26.7158571 129.957837,29.1137143 C129.947543,31.2267857 129.973277,33.3585 130.355417,35.4432857 C128.06515,35.4567857 125.772953,35.4728571 123.48333,35.4355714 C123.356593,34.6217143 123.18997,33.8162143 123.047793,33.0055714 C121.362903,34.9733571 118.773487,36.0237857 116.202727,35.9865 C113.93755,36.0938571 111.581663,35.2877143 110.038307,33.5867143 C107.25782,30.6572143 107.53767,25.4989286 110.50794,22.7995714 C112.43408,20.9963571 115.054377,20.1799286 117.605837,19.7498571 C119.182003,19.5004286 120.780687,19.3847143 122.378727,19.4136429 C122.43341,18.4551429 122.09759,17.4195 121.274123,16.8608571 C120.118697,16.0566429 118.64289,15.9936429 117.284813,16.0521429 C115.179827,16.1955 113.095427,16.7830714 111.250347,17.8090714 C110.790363,16.2135 110.339387,14.6153571 109.854957,13.0262143 L109.854957,13.0262143 Z" id="Fill-9" fill="#FFFFFF" sketch:type="MSShapeGroup" mask="url(#mask-2)"></path>
                </g>
            </g>
        </g>
    </g>
</svg>