<?xml version="1.0" encoding="UTF-8" standalone="no"?>
<svg width="97px" height="57px" viewBox="0 0 97 57" version="1.1" xmlns="http://www.w3.org/2000/svg" xmlns:xlink="http://www.w3.org/1999/xlink" xmlns:sketch="http://www.bohemiancoding.com/sketch/ns">
    <!-- Generator: Sketch Beta 3.4 (15009) - http://www.bohemiancoding.com/sketch -->
    <title>hey</title>
    <desc>Created with Sketch Beta.</desc>
    <defs></defs>
    <g id="Page-1" stroke="none" stroke-width="1" fill="none" fill-rule="evenodd" sketch:type="MSPage">
        <g id="WINNER" sketch:type="MSArtboardGroup" transform="translate(-313.000000, -4426.000000)" fill="#2D3238">
            <g id="Group" sketch:type="MSLayerGroup" transform="translate(-52.000000, 4119.000000)">
                <g id="Our-free-plan-works--+-Requests-per-month-+-$0" transform="translate(254.000000, 264.000000)" sketch:type="MSShapeGroup">
                    <g id="hey" transform="translate(111.000000, 43.000000)">
                        <path d="M56.32,8.68 C59.7066836,13.5333576 61.4,20.1732912 61.4,28.6 C61.4,37.4533776 59.6800172,44.1999768 56.24,48.84 C52.7999828,53.4800232 48.013364,55.8 41.88,55.8 C37.2933104,55.8 33.5066816,54.7866768 30.52,52.76 C27.5333184,50.7333232 25.4533392,47.8800184 24.28,44.2 L28.28,42.12 C29.0266704,45.2666824 30.4799892,47.7199912 32.64,49.48 C34.8000108,51.2400088 37.8533136,52.12 41.8,52.12 C47.4533616,52.12 51.5333208,49.853356 54.04,45.32 C56.5466792,40.786644 57.8,34.786704 57.8,27.32 C57.8,25.98666 57.6400016,24.1466784 57.32,21.8 L57.08,21.8 C56.8666656,24.6266808 55.9866744,27.0133236 54.44,28.96 C52.8933256,30.9066764 50.9466784,32.3599952 48.6,33.32 C46.2533216,34.2800048 43.8533456,34.76 41.4,34.76 C36.1733072,34.76 31.9866824,33.2533484 28.84,30.24 C25.6933176,27.2266516 24.12,23.1600256 24.12,18.04 C24.12,12.973308 25.719984,8.9333484 28.92,5.92 C32.120016,2.9066516 36.4133064,1.4 41.8,1.4 C48.0933648,1.4 52.9333164,3.8266424 56.32,8.68 L56.32,8.68 Z M31.92,8.68 C29.4933212,11.0266784 28.28,14.19998 28.28,18.2 C28.28,22.0933528 29.479988,25.1999884 31.88,27.52 C34.280012,29.8400116 37.5599792,31 41.72,31 C44.3333464,31 46.6666564,30.4133392 48.72,29.24 C50.7733436,28.0666608 52.3733276,26.5066764 53.52,24.56 C54.6666724,22.6133236 55.24,20.4933448 55.24,18.2 C55.24,14.3599808 54.0000124,11.2266788 51.52,8.8 C49.0399876,6.3733212 45.8266864,5.16 41.88,5.16 C37.6666456,5.16 34.3466788,6.3333216 31.92,8.68 L31.92,8.68 Z" id="9"></path>
                        <path d="M67.86,56.05 L66.36,56.05 L70.83,44.125 L72.33,44.125 L67.86,56.05 Z M84.3,55 L82.83,55 L82.83,49.27 L82.935,46.54 L82.92,46.54 L79.905,55 L78.57,55 L75.555,46.54 L75.54,46.54 L75.66,49.27 L75.66,55 L74.175,55 L74.175,45.1 L76.56,45.1 L78.555,50.83 L79.245,53.185 L79.275,53.185 L79.98,50.83 L81.96,45.1 L84.3,45.1 L84.3,55 Z M93.8325,45.565 C94.5375035,45.9750021 95.0799981,46.5649961 95.46,47.335 C95.8400019,48.1050039 96.03,49.0099948 96.03,50.05 C96.03,51.0900052 95.8400019,51.9949961 95.46,52.765 C95.0799981,53.5350038 94.5375035,54.1249979 93.8325,54.535 C93.1274965,54.945002 92.3000048,55.15 91.35,55.15 C90.3999953,55.15 89.5750035,54.945002 88.875,54.535 C88.1749965,54.1249979 87.6350019,53.5350038 87.255,52.765 C86.8749981,51.9949961 86.685,51.0900052 86.685,50.05 C86.685,49.0099948 86.8749981,48.1050039 87.255,47.335 C87.6350019,46.5649961 88.1749965,45.9750021 88.875,45.565 C89.5750035,45.1549979 90.3999953,44.95 91.35,44.95 C92.3000048,44.95 93.1274965,45.1549979 93.8325,45.565 L93.8325,45.565 Z M89.16,47.32 C88.6299974,47.9700033 88.365,48.8799942 88.365,50.05 C88.365,51.2200059 88.6299974,52.1299968 89.16,52.78 C89.6900027,53.4300032 90.4199954,53.755 91.35,53.755 C92.2900047,53.755 93.0249974,53.4300032 93.555,52.78 C94.0850027,52.1299968 94.35,51.2200059 94.35,50.05 C94.35,48.8799942 94.0850027,47.9700033 93.555,47.32 C93.0249974,46.6699967 92.2900047,46.345 91.35,46.345 C90.4199954,46.345 89.6900027,46.6699967 89.16,47.32 L89.16,47.32 Z" id="/MO"></path>
                        <path d="M6.417,17.977 C3.70298643,17.7469989 1.87833801,16.5433442 0.943,14.366 L2.714,13.078 C2.92866774,13.8600039 3.37332996,14.5154974 4.048,15.0445 C4.72267004,15.5735026 5.51232881,15.9146659 6.417,16.068 L6.417,11.284 C5.40499494,11.0693323 4.55783675,10.831668 3.8755,10.571 C3.19316326,10.310332 2.6258356,9.91550265 2.1735,9.3865 C1.72116441,8.85749736 1.495,8.15600437 1.495,7.282 C1.495,6.10132743 1.93582893,5.10083744 2.8175,4.2805 C3.69917108,3.46016257 4.89899241,2.98100069 6.417,2.843 L6.417,0.612 L8.188,0.612 L8.188,2.866 C9.36867257,2.95800046 10.3423295,3.24933088 11.109,3.74 C11.8756705,4.23066912 12.5503304,4.95132858 13.133,5.902 L11.5,7.397 C11.1013313,6.56899586 10.6451692,5.94800207 10.1315,5.534 C9.61783077,5.11999793 8.97000391,4.86700046 8.188,4.775 L8.188,9.628 C9.20000506,9.84266774 10.0471633,10.0841653 10.7295,10.3525 C11.4118367,10.6208347 11.9791644,11.0271639 12.4315,11.5715 C12.8838356,12.1158361 13.11,12.8326622 13.11,13.722 C13.11,14.918006 12.6615045,15.8954962 11.7645,16.6545 C10.8674955,17.4135038 9.67534077,17.8543327 8.188,17.977 L8.188,20.208 L6.417,20.208 L6.417,17.977 Z M6.417,4.775 C5.55832904,4.86700046 4.90666889,5.11616464 4.462,5.5225 C4.01733111,5.92883537 3.795,6.46166337 3.795,7.121 C3.795,7.71900299 4.02116441,8.1751651 4.4735,8.4895 C4.9258356,8.80383491 5.57366245,9.06066567 6.417,9.26 L6.417,4.775 Z M10.833,13.883 C10.833,13.2696636 10.6068356,12.8020016 10.1545,12.48 C9.70216441,12.1579984 9.04667096,11.8896677 8.188,11.675 L8.188,16.091 C9.95134215,15.9223325 10.833,15.1863399 10.833,13.883 L10.833,13.883 Z" id="$"></path>
                    </g>
                </g>
            </g>
        </g>
    </g>
</svg>