<?xml version="1.0" encoding="UTF-8" standalone="no"?>
<svg width="193px" height="193px" viewBox="0 0 193 193" version="1.1" xmlns="http://www.w3.org/2000/svg" xmlns:xlink="http://www.w3.org/1999/xlink" xmlns:sketch="http://www.bohemiancoding.com/sketch/ns">
    <!-- Generator: Sketch Beta 3.4 (15009) - http://www.bohemiancoding.com/sketch -->
    <title>calculator</title>
    <desc>Created with Sketch Beta.</desc>
    <defs>
        <path id="path-1" d="M115.88785,162.953191 L8.11214953,162.953191 C3.59252336,162.953191 0,159.347518 0,154.811348 L0,3.60567376 C0,1.62836879 1.50654206,0.116312057 3.47663551,0.116312057 L120.523364,0.116312057 C122.493458,0.116312057 124,1.62836879 124,3.60567376 L124,154.811348 C124,159.231206 120.407477,162.953191 115.88785,162.953191 L115.88785,162.953191 L115.88785,162.953191 Z"></path>
        <path id="path-3" d="M0,0 L119.364486,0 L119.364486,48.8510638 L0,48.8510638 L0,0 L0,0 Z"></path>
        <path id="path-5" d="M0,0 L100.82243,0 L100.82243,32.5673759 L0,32.5673759 L0,0 L0,0 Z"></path>
        <path d="M100.82243,2.32624113 L100.82243,32.5673759 L2.31775701,32.5673759 L2.31775701,2.32624113 L100.82243,2.32624113 L100.82243,2.32624113 Z M103.140187,0 L0,0 L0,34.893617 L103.140187,34.893617 L103.140187,0 L103.140187,0 Z" id="path-7"></path>
        <path id="path-9" d="M115.88785,162.953191 L8.11214953,162.953191 C3.59252336,162.953191 0,159.347518 0,154.811348 L0,3.60567376 C0,1.62836879 1.50654206,0.116312057 3.47663551,0.116312057 L120.523364,0.116312057 C122.493458,0.116312057 124,1.62836879 124,3.60567376 L124,154.811348 C124,159.231206 120.407477,162.953191 115.88785,162.953191"></path>
        <path id="path-11" d="M0,0 L20.8598131,0 L20.8598131,16.2836879 L0,16.2836879 L0,0 L0,0 Z"></path>
        <path d="M20.8598131,2.32624113 L20.8598131,16.2836879 L2.31775701,16.2836879 L2.31775701,2.32624113 L20.8598131,2.32624113 L20.8598131,2.32624113 Z M23.1775701,0 L0,0 L0,18.6099291 L23.1775701,18.6099291 L23.1775701,0 L23.1775701,0 Z" id="path-13"></path>
        <path id="path-15" d="M0,0 L20.8598131,0 L20.8598131,16.2836879 L0,16.2836879 L0,0 L0,0 Z"></path>
        <path d="M20.8598131,2.32624113 L20.8598131,16.2836879 L2.31775701,16.2836879 L2.31775701,2.32624113 L20.8598131,2.32624113 L20.8598131,2.32624113 Z M23.1775701,0 L0,0 L0,18.6099291 L23.1775701,18.6099291 L23.1775701,0 L23.1775701,0 Z" id="path-17"></path>
        <path id="path-19" d="M0,0 L20.8598131,0 L20.8598131,16.2836879 L0,16.2836879 L0,0 L0,0 Z"></path>
        <path d="M20.8598131,2.32624113 L20.8598131,16.2836879 L2.31775701,16.2836879 L2.31775701,2.32624113 L20.8598131,2.32624113 L20.8598131,2.32624113 Z M23.1775701,0 L0,0 L0,18.6099291 L23.1775701,18.6099291 L23.1775701,0 L23.1775701,0 Z" id="path-21"></path>
        <path id="path-23" d="M0,0 L20.8598131,0 L20.8598131,16.2836879 L0,16.2836879 L0,0 L0,0 Z"></path>
        <path d="M20.8598131,2.32624113 L20.8598131,16.2836879 L2.31775701,16.2836879 L2.31775701,2.32624113 L20.8598131,2.32624113 L20.8598131,2.32624113 Z M23.1775701,0 L0,0 L0,18.6099291 L23.1775701,18.6099291 L23.1775701,0 L23.1775701,0 Z" id="path-25"></path>
        <path id="path-27" d="M0,0 L20.8598131,0 L20.8598131,16.2836879 L0,16.2836879 L0,0 L0,0 Z"></path>
        <path d="M20.8598131,2.32624113 L20.8598131,16.2836879 L2.31775701,16.2836879 L2.31775701,2.32624113 L20.8598131,2.32624113 L20.8598131,2.32624113 Z M23.1775701,0 L0,0 L0,18.6099291 L23.1775701,18.6099291 L23.1775701,0 L23.1775701,0 Z" id="path-29"></path>
        <path id="path-31" d="M0,0 L20.8598131,0 L20.8598131,16.2836879 L0,16.2836879 L0,0 L0,0 Z"></path>
        <path d="M20.8598131,2.32624113 L20.8598131,16.2836879 L2.31775701,16.2836879 L2.31775701,2.32624113 L20.8598131,2.32624113 L20.8598131,2.32624113 Z M23.1775701,0 L0,0 L0,18.6099291 L23.1775701,18.6099291 L23.1775701,0 L23.1775701,0 Z" id="path-33"></path>
        <path id="path-35" d="M0,0 L20.8598131,0 L20.8598131,16.2836879 L0,16.2836879 L0,0 L0,0 Z"></path>
        <path d="M20.8598131,2.32624113 L20.8598131,16.2836879 L2.31775701,16.2836879 L2.31775701,2.32624113 L20.8598131,2.32624113 L20.8598131,2.32624113 Z M23.1775701,0 L0,0 L0,18.6099291 L23.1775701,18.6099291 L23.1775701,0 L23.1775701,0 Z" id="path-37"></path>
        <path id="path-39" d="M0,0 L20.8598131,0 L20.8598131,16.2836879 L0,16.2836879 L0,0 L0,0 Z"></path>
        <path d="M20.8598131,2.32624113 L20.8598131,16.2836879 L2.31775701,16.2836879 L2.31775701,2.32624113 L20.8598131,2.32624113 L20.8598131,2.32624113 Z M23.1775701,0 L0,0 L0,18.6099291 L23.1775701,18.6099291 L23.1775701,0 L23.1775701,0 Z" id="path-41"></path>
        <path id="path-43" d="M0,0 L20.8598131,0 L20.8598131,16.2836879 L0,16.2836879 L0,0 L0,0 Z"></path>
        <path d="M20.8598131,2.32624113 L20.8598131,16.2836879 L2.31775701,16.2836879 L2.31775701,2.32624113 L20.8598131,2.32624113 L20.8598131,2.32624113 Z M23.1775701,0 L0,0 L0,18.6099291 L23.1775701,18.6099291 L23.1775701,0 L23.1775701,0 Z" id="path-45"></path>
        <path id="path-47" d="M0,0 L20.8598131,0 L20.8598131,16.2836879 L0,16.2836879 L0,0 L0,0 Z"></path>
        <path d="M20.8598131,2.32624113 L20.8598131,16.2836879 L2.31775701,16.2836879 L2.31775701,2.32624113 L20.8598131,2.32624113 L20.8598131,2.32624113 Z M23.1775701,0 L0,0 L0,18.6099291 L23.1775701,18.6099291 L23.1775701,0 L23.1775701,0 Z" id="path-49"></path>
        <path id="path-51" d="M0,0 L20.8598131,0 L20.8598131,16.2836879 L0,16.2836879 L0,0 L0,0 Z"></path>
        <path d="M20.8598131,2.32624113 L20.8598131,16.2836879 L2.31775701,16.2836879 L2.31775701,2.32624113 L20.8598131,2.32624113 L20.8598131,2.32624113 Z M23.1775701,0 L0,0 L0,18.6099291 L23.1775701,18.6099291 L23.1775701,0 L23.1775701,0 Z" id="path-53"></path>
        <path id="path-55" d="M0,0 L20.8598131,0 L20.8598131,16.2836879 L0,16.2836879 L0,0 L0,0 Z"></path>
        <path d="M20.8598131,2.32624113 L20.8598131,16.2836879 L2.31775701,16.2836879 L2.31775701,2.32624113 L20.8598131,2.32624113 L20.8598131,2.32624113 Z M23.1775701,0 L0,0 L0,18.6099291 L23.1775701,18.6099291 L23.1775701,0 L23.1775701,0 Z" id="path-57"></path>
        <path id="path-59" d="M8.11214953,16.2836879 C3.59252336,16.2836879 0,12.6780142 0,8.25815603 L0,0 L47.5140187,0 L47.5140187,16.2836879 L8.11214953,16.2836879 L8.11214953,16.2836879 Z"></path>
        <path d="M47.5140187,2.32624113 L47.5140187,16.2836879 L9.27102804,16.2836879 C5.44672897,16.2836879 2.31775701,13.2595745 2.31775701,9.4212766 L2.31775701,2.32624113 L47.5140187,2.32624113 L47.5140187,2.32624113 Z M49.8317757,0 L0,0 L0,9.4212766 C0,14.5390071 4.17196262,18.6099291 9.27102804,18.6099291 L49.8317757,18.6099291 L49.8317757,0 L49.8317757,0 Z" id="path-61"></path>
        <path id="path-63" d="M0,0 L20.8598131,0 L20.8598131,16.2836879 L0,16.2836879 L0,0 L0,0 Z"></path>
        <path d="M20.8598131,2.32624113 L20.8598131,16.2836879 L2.31775701,16.2836879 L2.31775701,2.32624113 L20.8598131,2.32624113 L20.8598131,2.32624113 Z M23.1775701,0 L0,0 L0,18.6099291 L23.1775701,18.6099291 L23.1775701,0 L23.1775701,0 Z" id="path-65"></path>
        <path id="path-67" d="M0,16.2836879 L0,0 L20.8598131,0 L20.8598131,8.25815603 C20.8598131,12.7943262 17.2672897,16.2836879 12.7476636,16.2836879 L0,16.2836879 L0,16.2836879 Z"></path>
        <path d="M20.8598131,2.32624113 L20.8598131,9.4212766 C20.8598131,13.2595745 17.7308411,16.2836879 13.9065421,16.2836879 L2.31775701,16.2836879 L2.31775701,2.32624113 L20.8598131,2.32624113 L20.8598131,2.32624113 Z M23.1775701,0 L0,0 L0,18.6099291 L13.9065421,18.6099291 C19.0056075,18.6099291 23.1775701,14.5390071 23.1775701,9.4212766 L23.1775701,0 L23.1775701,0 Z" id="path-69"></path>
        <path d="M0.579439252,3.60567376 L0.579439252,2.09361702 L1.62242991,1.04680851 L1.62242991,3.95460993 L1.1588785,4.41985816 L0.579439252,3.60567376 L0.579439252,3.60567376 Z M1.73831776,5.1177305 L1.73831776,8.02553191 L0.695327103,6.9787234 L0.695327103,5.46666667 L1.39065421,4.76879433 L1.73831776,5.1177305 L1.73831776,5.1177305 Z" id="path-71"></path>
        <path d="M1.04299065,5.46666667 L1.04299065,6.9787234 L0,8.02553191 L0,5.1177305 L0.463551402,4.65248227 L1.04299065,5.46666667 L1.04299065,5.46666667 Z M4.40373832,0.814184397 L3.36074766,1.86099291 L1.27476636,1.86099291 L0.231775701,0.814184397 L4.40373832,0.814184397 L4.40373832,0.814184397 Z M4.40373832,8.25815603 L0.11588785,8.25815603 L1.1588785,7.21134752 L3.24485981,7.21134752 L4.40373832,8.25815603 L4.40373832,8.25815603 Z M3.47663551,3.95460993 L4.05607477,4.53617021 L3.47663551,5.1177305 L1.1588785,5.1177305 L0.579439252,4.53617021 L1.1588785,3.95460993 L3.47663551,3.95460993 L3.47663551,3.95460993 Z M3.59252336,3.60567376 L3.59252336,2.09361702 L4.63551402,1.04680851 L4.63551402,3.83829787 L4.17196262,4.3035461 L3.59252336,3.60567376 L3.59252336,3.60567376 Z" id="path-73"></path>
        <path d="M4.40373832,0.814184397 L3.36074766,1.86099291 L1.1588785,1.86099291 L0.11588785,0.814184397 L4.40373832,0.814184397 L4.40373832,0.814184397 Z M4.40373832,8.25815603 L0.11588785,8.25815603 L1.1588785,7.21134752 L3.24485981,7.21134752 L4.40373832,8.25815603 L4.40373832,8.25815603 Z M3.36074766,3.95460993 L3.94018692,4.53617021 L3.36074766,5.1177305 L1.04299065,5.1177305 L0.463551402,4.53617021 L1.04299065,3.95460993 L3.36074766,3.95460993 L3.36074766,3.95460993 Z M3.47663551,3.60567376 L3.47663551,2.09361702 L4.51962617,1.04680851 L4.51962617,3.95460993 L4.05607477,4.41985816 L3.47663551,3.60567376 L3.47663551,3.60567376 Z M4.51962617,5.1177305 L4.51962617,8.02553191 L3.47663551,6.9787234 L3.47663551,5.46666667 L4.17196262,4.76879433 L4.51962617,5.1177305 L4.51962617,5.1177305 Z" id="path-75"></path>
        <path d="M0,3.95460993 L0,1.04680851 L1.04299065,2.09361702 L1.04299065,3.60567376 L0.347663551,4.3035461 L0,3.95460993 L0,3.95460993 Z M3.47663551,3.95460993 L4.05607477,4.53617021 L3.47663551,5.1177305 L1.1588785,5.1177305 L0.579439252,4.53617021 L1.1588785,3.95460993 L3.47663551,3.95460993 L3.47663551,3.95460993 Z M3.59252336,3.60567376 L3.59252336,2.09361702 L4.63551402,1.04680851 L4.63551402,3.95460993 L4.17196262,4.41985816 L3.59252336,3.60567376 L3.59252336,3.60567376 Z M4.63551402,5.1177305 L4.63551402,8.02553191 L3.59252336,6.9787234 L3.59252336,5.46666667 L4.28785047,4.76879433 L4.63551402,5.1177305 L4.63551402,5.1177305 Z" id="path-77"></path>
        <path d="M0,3.83829787 L0,0.930496454 L1.04299065,1.97730496 L1.04299065,3.4893617 L0.347663551,4.18723404 L0,3.83829787 L0,3.83829787 Z M4.40373832,0.814184397 L3.36074766,1.86099291 L1.27476636,1.86099291 L0.231775701,0.814184397 L4.40373832,0.814184397 L4.40373832,0.814184397 Z M4.40373832,8.25815603 L0.11588785,8.25815603 L1.1588785,7.21134752 L3.24485981,7.21134752 L4.40373832,8.25815603 L4.40373832,8.25815603 Z M3.47663551,3.95460993 L4.05607477,4.53617021 L3.47663551,5.1177305 L1.1588785,5.1177305 L0.579439252,4.53617021 L1.1588785,3.95460993 L3.47663551,3.95460993 L3.47663551,3.95460993 Z M4.63551402,5.1177305 L4.63551402,8.02553191 L3.59252336,6.9787234 L3.59252336,5.46666667 L4.28785047,4.76879433 L4.63551402,5.1177305 L4.63551402,5.1177305 Z" id="path-79"></path>
        <path d="M0,3.95460993 L0,1.04680851 L1.04299065,2.09361702 L1.04299065,3.60567376 L0.347663551,4.3035461 L0,3.95460993 L0,3.95460993 Z M1.04299065,5.46666667 L1.04299065,6.9787234 L0,8.02553191 L0,5.1177305 L0.463551402,4.65248227 L1.04299065,5.46666667 L1.04299065,5.46666667 Z M4.40373832,0.814184397 L3.36074766,1.86099291 L1.27476636,1.86099291 L0.231775701,0.814184397 L4.40373832,0.814184397 L4.40373832,0.814184397 Z M4.40373832,8.25815603 L0.11588785,8.25815603 L1.1588785,7.21134752 L3.24485981,7.21134752 L4.40373832,8.25815603 L4.40373832,8.25815603 Z M3.47663551,3.95460993 L4.05607477,4.53617021 L3.47663551,5.1177305 L1.1588785,5.1177305 L0.579439252,4.53617021 L1.1588785,3.95460993 L3.47663551,3.95460993 L3.47663551,3.95460993 Z M4.63551402,5.1177305 L4.63551402,8.02553191 L3.59252336,6.9787234 L3.59252336,5.46666667 L4.28785047,4.76879433 L4.63551402,5.1177305 L4.63551402,5.1177305 Z" id="path-81"></path>
        <path d="M4.40373832,0.814184397 L3.36074766,1.86099291 L1.1588785,1.86099291 L0.11588785,0.814184397 L4.40373832,0.814184397 L4.40373832,0.814184397 Z M3.47663551,3.60567376 L3.47663551,2.09361702 L4.51962617,1.04680851 L4.51962617,3.95460993 L4.05607477,4.41985816 L3.47663551,3.60567376 L3.47663551,3.60567376 Z M4.51962617,5.1177305 L4.51962617,8.02553191 L3.47663551,6.9787234 L3.47663551,5.46666667 L4.17196262,4.76879433 L4.51962617,5.1177305 L4.51962617,5.1177305 Z" id="path-83"></path>
        <path d="M0.579439252,3.95460993 L0.579439252,1.04680851 L1.62242991,2.09361702 L1.62242991,3.60567376 L0.927102804,4.3035461 L0.579439252,3.95460993 L0.579439252,3.95460993 Z M1.62242991,5.46666667 L1.62242991,6.9787234 L0.579439252,8.02553191 L0.579439252,5.1177305 L1.04299065,4.65248227 L1.62242991,5.46666667 L1.62242991,5.46666667 Z M4.98317757,0.814184397 L3.94018692,1.86099291 L1.85420561,1.86099291 L0.811214953,0.814184397 L4.98317757,0.814184397 L4.98317757,0.814184397 Z M4.98317757,8.25815603 L0.695327103,8.25815603 L1.73831776,7.21134752 L3.82429907,7.21134752 L4.98317757,8.25815603 L4.98317757,8.25815603 Z M4.17196262,3.60567376 L4.17196262,2.09361702 L5.21495327,1.04680851 L5.21495327,3.95460993 L4.75140187,4.41985816 L4.17196262,3.60567376 L4.17196262,3.60567376 Z M5.21495327,5.1177305 L5.21495327,8.02553191 L4.17196262,6.9787234 L4.17196262,5.46666667 L4.86728972,4.76879433 L5.21495327,5.1177305 L5.21495327,5.1177305 Z" id="path-85"></path>
        <path d="M2.08598131,2.20992908 L1.50654206,2.79148936 L0.579439252,2.79148936 L0,2.20992908 L0.579439252,1.62836879 L1.50654206,1.62836879 L2.08598131,2.20992908 L2.08598131,2.20992908 Z M2.89719626,1.51205674 L2.31775701,2.09361702 L1.73831776,1.51205674 L1.73831776,0.581560284 L2.31775701,0 L2.89719626,0.581560284 L2.89719626,1.51205674 L2.89719626,1.51205674 Z M2.89719626,3.95460993 L2.31775701,4.53617021 L1.73831776,3.95460993 L1.73831776,3.02411348 L2.31775701,2.44255319 L2.89719626,3.02411348 L2.89719626,3.95460993 L2.89719626,3.95460993 Z M4.51962617,2.20992908 L3.94018692,2.79148936 L3.01308411,2.79148936 L2.43364486,2.20992908 L3.01308411,1.62836879 L3.94018692,1.62836879 L4.51962617,2.20992908 L4.51962617,2.20992908 Z" id="path-87"></path>
        <path d="M4.51962617,1.27943262 L3.94018692,1.86099291 L0.579439252,1.86099291 L0,1.27943262 L0.579439252,0.69787234 L3.94018692,0.69787234 L4.51962617,1.27943262 L4.51962617,1.27943262 Z M4.51962617,3.14042553 L3.94018692,3.72198582 L0.579439252,3.72198582 L0,3.14042553 L0.579439252,2.55886525 L3.94018692,2.55886525 L4.51962617,3.14042553 L4.51962617,3.14042553 Z" id="path-89"></path>
        <path d="M0.231775701,2.90780142 L0,2.20992908 L0.695327103,1.97730496 L1.39065421,2.32624113 L1.97009346,3.25673759 L0.927102804,3.25673759 L0.231775701,2.90780142 L0.231775701,2.90780142 Z M0.695327103,5.1177305 L0,4.88510638 L0.231775701,4.07092199 L1.04299065,3.60567376 L2.08598131,3.60567376 L1.50654206,4.65248227 L0.695327103,5.1177305 L0.695327103,5.1177305 Z M2.89719626,2.20992908 L2.31775701,3.25673759 L1.73831776,2.20992908 L1.73831776,1.39574468 L2.31775701,0.814184397 L2.89719626,1.39574468 L2.89719626,2.20992908 L2.89719626,2.20992908 Z M2.89719626,5.69929078 L2.31775701,6.28085106 L1.73831776,5.69929078 L1.73831776,4.88510638 L2.31775701,3.83829787 L2.89719626,4.76879433 L2.89719626,5.69929078 L2.89719626,5.69929078 Z M3.82429907,5.1177305 L4.63551402,4.88510638 L4.40373832,4.18723404 L3.59252336,3.72198582 L2.43364486,3.72198582 L3.01308411,4.76879433 L3.82429907,5.1177305 L3.82429907,5.1177305 Z M3.70841121,3.37304965 L2.54953271,3.37304965 L3.12897196,2.44255319 L3.82429907,2.09361702 L4.63551402,2.32624113 L4.40373832,3.02411348 L3.70841121,3.37304965 L3.70841121,3.37304965 Z" id="path-91"></path>
        <path id="path-93" d="M4.51962617,1.04680851 L3.94018692,1.62836879 L0.579439252,1.62836879 L0,1.04680851 L0.579439252,0.465248227 L3.94018692,0.465248227 L4.51962617,1.04680851 L4.51962617,1.04680851 Z"></path>
        <path d="M0,3.95460993 L0,1.04680851 L1.04299065,2.09361702 L1.04299065,3.60567376 L0.347663551,4.3035461 L0,3.95460993 L0,3.95460993 Z M1.04299065,5.46666667 L1.04299065,6.9787234 L0,8.02553191 L0,5.1177305 L0.463551402,4.65248227 L1.04299065,5.46666667 L1.04299065,5.46666667 Z M4.40373832,0.814184397 L3.36074766,1.86099291 L1.27476636,1.86099291 L0.231775701,0.814184397 L4.40373832,0.814184397 L4.40373832,0.814184397 Z M4.40373832,8.25815603 L0.11588785,8.25815603 L1.1588785,7.21134752 L3.24485981,7.21134752 L4.40373832,8.25815603 L4.40373832,8.25815603 Z M3.47663551,3.95460993 L4.05607477,4.53617021 L3.47663551,5.1177305 L1.1588785,5.1177305 L0.579439252,4.53617021 L1.1588785,3.95460993 L3.47663551,3.95460993 L3.47663551,3.95460993 Z M3.59252336,3.60567376 L3.59252336,2.09361702 L4.63551402,1.04680851 L4.63551402,3.95460993 L4.17196262,4.41985816 L3.59252336,3.60567376 L3.59252336,3.60567376 Z M4.63551402,5.1177305 L4.63551402,8.02553191 L3.59252336,6.9787234 L3.59252336,5.46666667 L4.28785047,4.76879433 L4.63551402,5.1177305 L4.63551402,5.1177305 Z" id="path-95"></path>
        <path d="M0,3.95460993 L0,1.04680851 L1.04299065,2.09361702 L1.04299065,3.60567376 L0.347663551,4.3035461 L0,3.95460993 L0,3.95460993 Z M4.40373832,0.814184397 L3.36074766,1.86099291 L1.27476636,1.86099291 L0.231775701,0.814184397 L4.40373832,0.814184397 L4.40373832,0.814184397 Z M4.40373832,8.25815603 L0.11588785,8.25815603 L1.1588785,7.21134752 L3.24485981,7.21134752 L4.40373832,8.25815603 L4.40373832,8.25815603 Z M3.47663551,3.95460993 L4.05607477,4.53617021 L3.47663551,5.1177305 L1.1588785,5.1177305 L0.579439252,4.53617021 L1.1588785,3.95460993 L3.47663551,3.95460993 L3.47663551,3.95460993 Z M3.59252336,3.60567376 L3.59252336,2.09361702 L4.63551402,1.04680851 L4.63551402,3.95460993 L4.17196262,4.41985816 L3.59252336,3.60567376 L3.59252336,3.60567376 Z M4.63551402,5.1177305 L4.63551402,8.02553191 L3.59252336,6.9787234 L3.59252336,5.46666667 L4.28785047,4.76879433 L4.63551402,5.1177305 L4.63551402,5.1177305 Z" id="path-97"></path>
        <path d="M0.231775701,5.46666667 L0.231775701,2.44255319 L2.43364486,0.232624113 L2.43364486,5.93191489 L1.62242991,6.74609929 L0.231775701,5.46666667 L0.231775701,5.46666667 Z M2.43364486,8.49078014 L2.43364486,14.1900709 L0.231775701,11.9801418 L0.231775701,8.95602837 L1.62242991,7.56028369 L2.43364486,8.49078014 L2.43364486,8.49078014 Z" id="path-99"></path>
        <path d="M2.31775701,10.235461 L2.31775701,13.2595745 L0.11588785,15.4695035 L0.11588785,9.77021277 L0.927102804,8.95602837 L2.31775701,10.235461 L2.31775701,10.235461 Z M9.03925234,0.930496454 L6.83738318,3.14042553 L2.66542056,3.14042553 L0.463551402,0.930496454 L9.03925234,0.930496454 L9.03925234,0.930496454 Z M9.03925234,15.8184397 L0.579439252,15.8184397 L2.78130841,13.6085106 L6.95327103,13.6085106 L9.03925234,15.8184397 L9.03925234,15.8184397 Z M7.06915888,7.32765957 L8.11214953,8.37446809 L7.06915888,9.4212766 L2.43364486,9.4212766 L1.39065421,8.37446809 L2.43364486,7.32765957 L7.06915888,7.32765957 L7.06915888,7.32765957 Z M7.30093458,6.51347518 L7.30093458,3.4893617 L9.50280374,1.27943262 L9.50280374,6.9787234 L8.69158879,7.7929078 L7.30093458,6.51347518 L7.30093458,6.51347518 Z" id="path-101"></path>
        <path id="path-103" d="M0.11588785,3.02411348 L0.11588785,0.814184397 L2.31775701,0.814184397 L2.31775701,3.02411348 L0.11588785,3.02411348 L0.11588785,3.02411348 Z"></path>
        <path d="M1.04299065,7.09503546 L1.04299065,1.39574468 L3.24485981,3.60567376 L3.24485981,6.62978723 L1.85420561,8.02553191 L1.04299065,7.09503546 L1.04299065,7.09503546 Z M9.96635514,0.930496454 L7.76448598,3.14042553 L3.59252336,3.14042553 L1.39065421,0.930496454 L9.96635514,0.930496454 L9.96635514,0.930496454 Z M9.96635514,15.8184397 L1.50654206,15.8184397 L3.70841121,13.6085106 L7.88037383,13.6085106 L9.96635514,15.8184397 L9.96635514,15.8184397 Z M7.99626168,7.32765957 L9.03925234,8.37446809 L7.99626168,9.4212766 L3.36074766,9.4212766 L2.31775701,8.37446809 L3.36074766,7.32765957 L7.99626168,7.32765957 L7.99626168,7.32765957 Z M10.3140187,9.65390071 L10.3140187,15.3531915 L8.11214953,13.1432624 L8.11214953,10.1191489 L9.50280374,8.72340426 L10.3140187,9.65390071 L10.3140187,9.65390071 Z" id="path-105"></path>
        <path id="path-107" d="M89.3215598,0.34893617 L0.347663551,0.34893617 L0.347663551,41.2907801 L74.3174133,41.2907801 L89.3215598,0.34893617 L89.3215598,0.34893617 L89.3215598,0.34893617 Z"></path>
        <path d="M2.20186916,5.23404255 L0.347663551,8.49078014 L0,7.09503546 L1.27476636,5.00141844 L2.08598131,4.76879433 L2.20186916,5.23404255 L2.20186916,5.23404255 Z M2.08598131,3.60567376 L3.36074766,1.39574468 L4.75140187,1.04680851 L2.89719626,4.3035461 L2.43364486,4.41985816 L2.08598131,3.60567376 L2.08598131,3.60567376 Z" id="path-109"></path>
    </defs>
    <g id="Page-1" stroke="none" stroke-width="1" fill="none" fill-rule="evenodd" sketch:type="MSPage">
        <g id="WINNER" sketch:type="MSArtboardGroup" transform="translate(-259.000000, -3780.000000)">
            <g id="Group-+-super-icons" sketch:type="MSLayerGroup" transform="translate(194.000000, 3302.000000)">
                <g id="super-icons" transform="translate(65.000000, 158.000000)">
                    <g id="calculator" transform="translate(0.000000, 320.000000)">
                        <rect id="Rectangle-21" fill="#FFFFFF" sketch:type="MSShapeGroup" x="0" y="0" width="193" height="193"></rect>
                        <g id="Group-3" transform="translate(37.000000, 16.000000)">
                            <mask id="mask-2" sketch:name="Clip 2" fill="white">
                                <use xlink:href="#path-1"></use>
                            </mask>
                            <g id="Clip-2"></g>
                            <path d="M-5.79439252,-5.69929078 L129.794393,-5.69929078 L129.794393,168.768794 L-5.79439252,168.768794 L-5.79439252,-5.69929078 Z" id="Fill-1" fill="#C4E1F7" sketch:type="MSShapeGroup" mask="url(#mask-2)"></path>
                        </g>
                        <g id="Group-6" transform="translate(39.317757, 18.326241)">
                            <mask id="mask-4" sketch:name="Clip 5" fill="white">
                                <use xlink:href="#path-3"></use>
                            </mask>
                            <g id="Clip-5"></g>
                            <path d="M-5.79439252,-5.81560284 L125.158879,-5.81560284 L125.158879,54.6666667 L-5.79439252,54.6666667 L-5.79439252,-5.81560284 Z" id="Fill-4" fill="#FFFFFF" sketch:type="MSShapeGroup" mask="url(#mask-4)"></path>
                        </g>
                        <g id="Group-13" transform="translate(47.429907, 25.304965)">
                            <g id="Group-9" transform="translate(1.158879, 1.163121)">
                                <mask id="mask-6" sketch:name="Clip 8" fill="white">
                                    <use xlink:href="#path-5"></use>
                                </mask>
                                <g id="Clip-8"></g>
                                <path d="M-5.79439252,-5.81560284 L106.616822,-5.81560284 L106.616822,38.3829787 L-5.79439252,38.3829787 L-5.79439252,-5.81560284 Z" id="Fill-7" fill="#C4E1F7" sketch:type="MSShapeGroup" mask="url(#mask-6)"></path>
                            </g>
                            <g id="Group-12">
                                <mask id="mask-8" sketch:name="Clip 11" fill="white">
                                    <use xlink:href="#path-7"></use>
                                </mask>
                                <g id="Clip-11"></g>
                                <path d="M-5.79439252,-5.81560284 L108.934579,-5.81560284 L108.934579,40.7092199 L-5.79439252,40.7092199 L-5.79439252,-5.81560284 Z" id="Fill-10" fill="#1485E0" sketch:type="MSShapeGroup" mask="url(#mask-8)"></path>
                            </g>
                        </g>
                        <g id="Group-16" transform="translate(37.000000, 16.000000)">
                            <mask id="mask-10" sketch:name="Clip 15" fill="white">
                                <use xlink:href="#path-9"></use>
                            </mask>
                            <g id="Clip-15"></g>
                            <path d="M1.1588785,52.3404255 L121.682243,52.3404255" id="Stroke-14" stroke="#1485E0" stroke-width="2" sketch:type="MSShapeGroup" mask="url(#mask-10)"></path>
                        </g>
                        <g id="Group-107" transform="translate(47.429907, 76.482270)">
                            <g id="Group-19" transform="translate(1.158879, 1.163121)">
                                <mask id="mask-12" sketch:name="Clip 18" fill="white">
                                    <use xlink:href="#path-11"></use>
                                </mask>
                                <g id="Clip-18"></g>
                                <path d="M-5.79439252,-5.81560284 L26.6542056,-5.81560284 L26.6542056,22.0992908 L-5.79439252,22.0992908 L-5.79439252,-5.81560284 Z" id="Fill-17" fill="#FFFFFF" sketch:type="MSShapeGroup" mask="url(#mask-12)"></path>
                            </g>
                            <g id="Group-22">
                                <mask id="mask-14" sketch:name="Clip 21" fill="white">
                                    <use xlink:href="#path-13"></use>
                                </mask>
                                <g id="Clip-21"></g>
                                <path d="M-5.79439252,-5.81560284 L28.9719626,-5.81560284 L28.9719626,24.4255319 L-5.79439252,24.4255319 L-5.79439252,-5.81560284 Z" id="Fill-20" fill="#1485E0" sketch:type="MSShapeGroup" mask="url(#mask-14)"></path>
                            </g>
                            <g id="Group-25" transform="translate(27.813084, 1.163121)">
                                <mask id="mask-16" sketch:name="Clip 24" fill="white">
                                    <use xlink:href="#path-15"></use>
                                </mask>
                                <g id="Clip-24"></g>
                                <path d="M-5.79439252,-5.81560284 L26.6542056,-5.81560284 L26.6542056,22.0992908 L-5.79439252,22.0992908 L-5.79439252,-5.81560284 Z" id="Fill-23" fill="#FFFFFF" sketch:type="MSShapeGroup" mask="url(#mask-16)"></path>
                            </g>
                            <g id="Group-28" transform="translate(26.654206, 0.000000)">
                                <mask id="mask-18" sketch:name="Clip 27" fill="white">
                                    <use xlink:href="#path-17"></use>
                                </mask>
                                <g id="Clip-27"></g>
                                <path d="M-5.79439252,-5.81560284 L28.9719626,-5.81560284 L28.9719626,24.4255319 L-5.79439252,24.4255319 L-5.79439252,-5.81560284 Z" id="Fill-26" fill="#1485E0" sketch:type="MSShapeGroup" mask="url(#mask-18)"></path>
                            </g>
                            <g id="Group-31" transform="translate(54.467290, 1.163121)">
                                <mask id="mask-20" sketch:name="Clip 30" fill="white">
                                    <use xlink:href="#path-19"></use>
                                </mask>
                                <g id="Clip-30"></g>
                                <path d="M-5.79439252,-5.81560284 L26.6542056,-5.81560284 L26.6542056,22.0992908 L-5.79439252,22.0992908 L-5.79439252,-5.81560284 Z" id="Fill-29" fill="#FFFFFF" sketch:type="MSShapeGroup" mask="url(#mask-20)"></path>
                            </g>
                            <g id="Group-34" transform="translate(53.308411, 0.000000)">
                                <mask id="mask-22" sketch:name="Clip 33" fill="white">
                                    <use xlink:href="#path-21"></use>
                                </mask>
                                <g id="Clip-33"></g>
                                <path d="M-5.79439252,-5.81560284 L28.9719626,-5.81560284 L28.9719626,24.4255319 L-5.79439252,24.4255319 L-5.79439252,-5.81560284 Z" id="Fill-32" fill="#1485E0" sketch:type="MSShapeGroup" mask="url(#mask-22)"></path>
                            </g>
                            <g id="Group-37" transform="translate(81.121495, 1.163121)">
                                <mask id="mask-24" sketch:name="Clip 36" fill="white">
                                    <use xlink:href="#path-23"></use>
                                </mask>
                                <g id="Clip-36"></g>
                                <path d="M-5.79439252,-5.81560284 L26.6542056,-5.81560284 L26.6542056,22.0992908 L-5.79439252,22.0992908 L-5.79439252,-5.81560284 Z" id="Fill-35" fill="#FFFFFF" sketch:type="MSShapeGroup" mask="url(#mask-24)"></path>
                            </g>
                            <g id="Group-40" transform="translate(79.962617, 0.000000)">
                                <mask id="mask-26" sketch:name="Clip 39" fill="white">
                                    <use xlink:href="#path-25"></use>
                                </mask>
                                <g id="Clip-39"></g>
                                <path d="M-5.79439252,-5.81560284 L28.9719626,-5.81560284 L28.9719626,24.4255319 L-5.79439252,24.4255319 L-5.79439252,-5.81560284 Z" id="Fill-38" fill="#1485E0" sketch:type="MSShapeGroup" mask="url(#mask-26)"></path>
                            </g>
                            <g id="Group-43" transform="translate(1.158879, 24.425532)">
                                <mask id="mask-28" sketch:name="Clip 42" fill="white">
                                    <use xlink:href="#path-27"></use>
                                </mask>
                                <g id="Clip-42"></g>
                                <path d="M-5.79439252,-5.81560284 L26.6542056,-5.81560284 L26.6542056,22.0992908 L-5.79439252,22.0992908 L-5.79439252,-5.81560284 Z" id="Fill-41" fill="#FFFFFF" sketch:type="MSShapeGroup" mask="url(#mask-28)"></path>
                            </g>
                            <g id="Group-46" transform="translate(0.000000, 23.262411)">
                                <mask id="mask-30" sketch:name="Clip 45" fill="white">
                                    <use xlink:href="#path-29"></use>
                                </mask>
                                <g id="Clip-45"></g>
                                <path d="M-5.79439252,-5.81560284 L28.9719626,-5.81560284 L28.9719626,24.4255319 L-5.79439252,24.4255319 L-5.79439252,-5.81560284 Z" id="Fill-44" fill="#1485E0" sketch:type="MSShapeGroup" mask="url(#mask-30)"></path>
                            </g>
                            <g id="Group-49" transform="translate(27.813084, 24.425532)">
                                <mask id="mask-32" sketch:name="Clip 48" fill="white">
                                    <use xlink:href="#path-31"></use>
                                </mask>
                                <g id="Clip-48"></g>
                                <path d="M-5.79439252,-5.81560284 L26.6542056,-5.81560284 L26.6542056,22.0992908 L-5.79439252,22.0992908 L-5.79439252,-5.81560284 Z" id="Fill-47" fill="#FFFFFF" sketch:type="MSShapeGroup" mask="url(#mask-32)"></path>
                            </g>
                            <g id="Group-52" transform="translate(26.654206, 23.262411)">
                                <mask id="mask-34" sketch:name="Clip 51" fill="white">
                                    <use xlink:href="#path-33"></use>
                                </mask>
                                <g id="Clip-51"></g>
                                <path d="M-5.79439252,-5.81560284 L28.9719626,-5.81560284 L28.9719626,24.4255319 L-5.79439252,24.4255319 L-5.79439252,-5.81560284 Z" id="Fill-50" fill="#1485E0" sketch:type="MSShapeGroup" mask="url(#mask-34)"></path>
                            </g>
                            <g id="Group-55" transform="translate(54.467290, 24.425532)">
                                <mask id="mask-36" sketch:name="Clip 54" fill="white">
                                    <use xlink:href="#path-35"></use>
                                </mask>
                                <g id="Clip-54"></g>
                                <path d="M-5.79439252,-5.81560284 L26.6542056,-5.81560284 L26.6542056,22.0992908 L-5.79439252,22.0992908 L-5.79439252,-5.81560284 Z" id="Fill-53" fill="#FFFFFF" sketch:type="MSShapeGroup" mask="url(#mask-36)"></path>
                            </g>
                            <g id="Group-58" transform="translate(53.308411, 23.262411)">
                                <mask id="mask-38" sketch:name="Clip 57" fill="white">
                                    <use xlink:href="#path-37"></use>
                                </mask>
                                <g id="Clip-57"></g>
                                <path d="M-5.79439252,-5.81560284 L28.9719626,-5.81560284 L28.9719626,24.4255319 L-5.79439252,24.4255319 L-5.79439252,-5.81560284 Z" id="Fill-56" fill="#1485E0" sketch:type="MSShapeGroup" mask="url(#mask-38)"></path>
                            </g>
                            <g id="Group-61" transform="translate(81.121495, 24.425532)">
                                <mask id="mask-40" sketch:name="Clip 60" fill="white">
                                    <use xlink:href="#path-39"></use>
                                </mask>
                                <g id="Clip-60"></g>
                                <path d="M-5.79439252,-5.81560284 L26.6542056,-5.81560284 L26.6542056,22.0992908 L-5.79439252,22.0992908 L-5.79439252,-5.81560284 Z" id="Fill-59" fill="#FFFFFF" sketch:type="MSShapeGroup" mask="url(#mask-40)"></path>
                            </g>
                            <g id="Group-64" transform="translate(79.962617, 23.262411)">
                                <mask id="mask-42" sketch:name="Clip 63" fill="white">
                                    <use xlink:href="#path-41"></use>
                                </mask>
                                <g id="Clip-63"></g>
                                <path d="M-5.79439252,-5.81560284 L28.9719626,-5.81560284 L28.9719626,24.4255319 L-5.79439252,24.4255319 L-5.79439252,-5.81560284 Z" id="Fill-62" fill="#1485E0" sketch:type="MSShapeGroup" mask="url(#mask-42)"></path>
                            </g>
                            <g id="Group-67" transform="translate(1.158879, 47.687943)">
                                <mask id="mask-44" sketch:name="Clip 66" fill="white">
                                    <use xlink:href="#path-43"></use>
                                </mask>
                                <g id="Clip-66"></g>
                                <path d="M-5.79439252,-5.81560284 L26.6542056,-5.81560284 L26.6542056,22.0992908 L-5.79439252,22.0992908 L-5.79439252,-5.81560284 Z" id="Fill-65" fill="#FFFFFF" sketch:type="MSShapeGroup" mask="url(#mask-44)"></path>
                            </g>
                            <g id="Group-70" transform="translate(0.000000, 46.524823)">
                                <mask id="mask-46" sketch:name="Clip 69" fill="white">
                                    <use xlink:href="#path-45"></use>
                                </mask>
                                <g id="Clip-69"></g>
                                <path d="M-5.79439252,-5.81560284 L28.9719626,-5.81560284 L28.9719626,24.4255319 L-5.79439252,24.4255319 L-5.79439252,-5.81560284 Z" id="Fill-68" fill="#1485E0" sketch:type="MSShapeGroup" mask="url(#mask-46)"></path>
                            </g>
                            <g id="Group-73" transform="translate(27.813084, 47.687943)">
                                <mask id="mask-48" sketch:name="Clip 72" fill="white">
                                    <use xlink:href="#path-47"></use>
                                </mask>
                                <g id="Clip-72"></g>
                                <path d="M-5.79439252,-5.81560284 L26.6542056,-5.81560284 L26.6542056,22.0992908 L-5.79439252,22.0992908 L-5.79439252,-5.81560284 Z" id="Fill-71" fill="#FFFFFF" sketch:type="MSShapeGroup" mask="url(#mask-48)"></path>
                            </g>
                            <g id="Group-76" transform="translate(26.654206, 46.524823)">
                                <mask id="mask-50" sketch:name="Clip 75" fill="white">
                                    <use xlink:href="#path-49"></use>
                                </mask>
                                <g id="Clip-75"></g>
                                <path d="M-5.79439252,-5.81560284 L28.9719626,-5.81560284 L28.9719626,24.4255319 L-5.79439252,24.4255319 L-5.79439252,-5.81560284 Z" id="Fill-74" fill="#1485E0" sketch:type="MSShapeGroup" mask="url(#mask-50)"></path>
                            </g>
                            <g id="Group-79" transform="translate(54.467290, 47.687943)">
                                <mask id="mask-52" sketch:name="Clip 78" fill="white">
                                    <use xlink:href="#path-51"></use>
                                </mask>
                                <g id="Clip-78"></g>
                                <path d="M-5.79439252,-5.81560284 L26.6542056,-5.81560284 L26.6542056,22.0992908 L-5.79439252,22.0992908 L-5.79439252,-5.81560284 Z" id="Fill-77" fill="#FFFFFF" sketch:type="MSShapeGroup" mask="url(#mask-52)"></path>
                            </g>
                            <g id="Group-82" transform="translate(53.308411, 46.524823)">
                                <mask id="mask-54" sketch:name="Clip 81" fill="white">
                                    <use xlink:href="#path-53"></use>
                                </mask>
                                <g id="Clip-81"></g>
                                <path d="M-5.79439252,-5.81560284 L28.9719626,-5.81560284 L28.9719626,24.4255319 L-5.79439252,24.4255319 L-5.79439252,-5.81560284 Z" id="Fill-80" fill="#1485E0" sketch:type="MSShapeGroup" mask="url(#mask-54)"></path>
                            </g>
                            <g id="Group-85" transform="translate(81.121495, 47.687943)">
                                <mask id="mask-56" sketch:name="Clip 84" fill="white">
                                    <use xlink:href="#path-55"></use>
                                </mask>
                                <g id="Clip-84"></g>
                                <path d="M-5.79439252,-5.81560284 L26.6542056,-5.81560284 L26.6542056,22.0992908 L-5.79439252,22.0992908 L-5.79439252,-5.81560284 Z" id="Fill-83" fill="#FFFFFF" sketch:type="MSShapeGroup" mask="url(#mask-56)"></path>
                            </g>
                            <g id="Group-88" transform="translate(79.962617, 46.524823)">
                                <mask id="mask-58" sketch:name="Clip 87" fill="white">
                                    <use xlink:href="#path-57"></use>
                                </mask>
                                <g id="Clip-87"></g>
                                <path d="M-5.79439252,-5.81560284 L28.9719626,-5.81560284 L28.9719626,24.4255319 L-5.79439252,24.4255319 L-5.79439252,-5.81560284 Z" id="Fill-86" fill="#1485E0" sketch:type="MSShapeGroup" mask="url(#mask-58)"></path>
                            </g>
                            <g id="Group-91" transform="translate(1.158879, 70.950355)">
                                <mask id="mask-60" sketch:name="Clip 90" fill="white">
                                    <use xlink:href="#path-59"></use>
                                </mask>
                                <g id="Clip-90"></g>
                                <path d="M-5.79439252,-5.81560284 L53.3084112,-5.81560284 L53.3084112,22.0992908 L-5.79439252,22.0992908 L-5.79439252,-5.81560284 Z" id="Fill-89" fill="#FFFFFF" sketch:type="MSShapeGroup" mask="url(#mask-60)"></path>
                            </g>
                            <g id="Group-94" transform="translate(0.000000, 69.787234)">
                                <mask id="mask-62" sketch:name="Clip 93" fill="white">
                                    <use xlink:href="#path-61"></use>
                                </mask>
                                <g id="Clip-93"></g>
                                <path d="M-5.79439252,-5.81560284 L55.6261682,-5.81560284 L55.6261682,24.4255319 L-5.79439252,24.4255319 L-5.79439252,-5.81560284 Z" id="Fill-92" fill="#1485E0" sketch:type="MSShapeGroup" mask="url(#mask-62)"></path>
                            </g>
                            <g id="Group-97" transform="translate(54.467290, 70.950355)">
                                <mask id="mask-64" sketch:name="Clip 96" fill="white">
                                    <use xlink:href="#path-63"></use>
                                </mask>
                                <g id="Clip-96"></g>
                                <path d="M-5.79439252,-5.81560284 L26.6542056,-5.81560284 L26.6542056,22.0992908 L-5.79439252,22.0992908 L-5.79439252,-5.81560284 Z" id="Fill-95" fill="#FFFFFF" sketch:type="MSShapeGroup" mask="url(#mask-64)"></path>
                            </g>
                            <g id="Group-100" transform="translate(53.308411, 69.787234)">
                                <mask id="mask-66" sketch:name="Clip 99" fill="white">
                                    <use xlink:href="#path-65"></use>
                                </mask>
                                <g id="Clip-99"></g>
                                <path d="M-5.79439252,-5.81560284 L28.9719626,-5.81560284 L28.9719626,24.4255319 L-5.79439252,24.4255319 L-5.79439252,-5.81560284 Z" id="Fill-98" fill="#1485E0" sketch:type="MSShapeGroup" mask="url(#mask-66)"></path>
                            </g>
                            <g id="Group-103" transform="translate(81.121495, 70.950355)">
                                <mask id="mask-68" sketch:name="Clip 102" fill="white">
                                    <use xlink:href="#path-67"></use>
                                </mask>
                                <g id="Clip-102"></g>
                                <path d="M-5.79439252,-5.81560284 L26.6542056,-5.81560284 L26.6542056,22.0992908 L-5.79439252,22.0992908 L-5.79439252,-5.81560284 Z" id="Fill-101" fill="#FFFFFF" sketch:type="MSShapeGroup" mask="url(#mask-68)"></path>
                            </g>
                            <g id="Group-106" transform="translate(79.962617, 69.787234)">
                                <mask id="mask-70" sketch:name="Clip 105" fill="white">
                                    <use xlink:href="#path-69"></use>
                                </mask>
                                <g id="Clip-105"></g>
                                <path d="M-5.79439252,-5.81560284 L28.9719626,-5.81560284 L28.9719626,24.4255319 L-5.79439252,24.4255319 L-5.79439252,-5.81560284 Z" id="Fill-104" fill="#1485E0" sketch:type="MSShapeGroup" mask="url(#mask-70)"></path>
                            </g>
                        </g>
                        <g id="Group-150" transform="translate(56.700935, 81.134752)">
                            <g id="Group-110" transform="translate(1.158879, 0.000000)">
                                <mask id="mask-72" sketch:name="Clip 109" fill="white">
                                    <use xlink:href="#path-71"></use>
                                </mask>
                                <g id="Clip-109"></g>
                                <path d="M-5.21495327,-4.76879433 L7.53271028,-4.76879433 L7.53271028,13.8411348 L-5.21495327,13.8411348 L-5.21495327,-4.76879433 Z" id="Fill-108" fill="#1485E0" sketch:type="MSShapeGroup" mask="url(#mask-72)"></path>
                            </g>
                            <g id="Group-113" transform="translate(26.654206, 0.000000)">
                                <mask id="mask-74" sketch:name="Clip 112" fill="white">
                                    <use xlink:href="#path-73"></use>
                                </mask>
                                <g id="Clip-112"></g>
                                <path d="M-5.79439252,-5.00141844 L10.4299065,-5.00141844 L10.4299065,14.0737589 L-5.79439252,14.0737589 L-5.79439252,-5.00141844 Z" id="Fill-111" fill="#1485E0" sketch:type="MSShapeGroup" mask="url(#mask-74)"></path>
                            </g>
                            <g id="Group-116" transform="translate(53.308411, 0.000000)">
                                <mask id="mask-76" sketch:name="Clip 115" fill="white">
                                    <use xlink:href="#path-75"></use>
                                </mask>
                                <g id="Clip-115"></g>
                                <path d="M-5.67850467,-5.00141844 L10.3140187,-5.00141844 L10.3140187,14.0737589 L-5.67850467,14.0737589 L-5.67850467,-5.00141844 Z" id="Fill-114" fill="#1485E0" sketch:type="MSShapeGroup" mask="url(#mask-76)"></path>
                            </g>
                            <g id="Group-119" transform="translate(0.000000, 23.262411)">
                                <mask id="mask-78" sketch:name="Clip 118" fill="white">
                                    <use xlink:href="#path-77"></use>
                                </mask>
                                <g id="Clip-118"></g>
                                <path d="M-5.79439252,-4.76879433 L10.4299065,-4.76879433 L10.4299065,13.8411348 L-5.79439252,13.8411348 L-5.79439252,-4.76879433 Z" id="Fill-117" fill="#1485E0" sketch:type="MSShapeGroup" mask="url(#mask-78)"></path>
                            </g>
                            <g id="Group-122" transform="translate(26.654206, 23.262411)">
                                <mask id="mask-80" sketch:name="Clip 121" fill="white">
                                    <use xlink:href="#path-79"></use>
                                </mask>
                                <g id="Clip-121"></g>
                                <path d="M-5.79439252,-5.00141844 L10.4299065,-5.00141844 L10.4299065,14.0737589 L-5.79439252,14.0737589 L-5.79439252,-5.00141844 Z" id="Fill-120" fill="#1485E0" sketch:type="MSShapeGroup" mask="url(#mask-80)"></path>
                            </g>
                            <g id="Group-125" transform="translate(53.308411, 23.262411)">
                                <mask id="mask-82" sketch:name="Clip 124" fill="white">
                                    <use xlink:href="#path-81"></use>
                                </mask>
                                <g id="Clip-124"></g>
                                <path d="M-5.79439252,-5.00141844 L10.4299065,-5.00141844 L10.4299065,14.0737589 L-5.79439252,14.0737589 L-5.79439252,-5.00141844 Z" id="Fill-123" fill="#1485E0" sketch:type="MSShapeGroup" mask="url(#mask-82)"></path>
                            </g>
                            <g id="Group-128" transform="translate(0.000000, 46.524823)">
                                <mask id="mask-84" sketch:name="Clip 127" fill="white">
                                    <use xlink:href="#path-83"></use>
                                </mask>
                                <g id="Clip-127"></g>
                                <path d="M-5.67850467,-5.00141844 L10.3140187,-5.00141844 L10.3140187,13.8411348 L-5.67850467,13.8411348 L-5.67850467,-5.00141844 Z" id="Fill-126" fill="#1485E0" sketch:type="MSShapeGroup" mask="url(#mask-84)"></path>
                            </g>
                            <g id="Group-131" transform="translate(12.747664, 69.787234)">
                                <mask id="mask-86" sketch:name="Clip 130" fill="white">
                                    <use xlink:href="#path-85"></use>
                                </mask>
                                <g id="Clip-130"></g>
                                <path d="M-5.21495327,-5.00141844 L11.0093458,-5.00141844 L11.0093458,14.0737589 L-5.21495327,14.0737589 L-5.21495327,-5.00141844 Z" id="Fill-129" fill="#1485E0" sketch:type="MSShapeGroup" mask="url(#mask-86)"></path>
                            </g>
                            <g id="Group-134" transform="translate(53.308411, 72.113475)">
                                <mask id="mask-88" sketch:name="Clip 133" fill="white">
                                    <use xlink:href="#path-87"></use>
                                </mask>
                                <g id="Clip-133"></g>
                                <path d="M-5.79439252,-5.81560284 L10.3140187,-5.81560284 L10.3140187,10.351773 L-5.79439252,10.351773 L-5.79439252,-5.81560284 Z" id="Fill-132" fill="#1485E0" sketch:type="MSShapeGroup" mask="url(#mask-88)"></path>
                            </g>
                            <g id="Group-137" transform="translate(79.962617, 72.113475)">
                                <mask id="mask-90" sketch:name="Clip 136" fill="white">
                                    <use xlink:href="#path-89"></use>
                                </mask>
                                <g id="Clip-136"></g>
                                <path d="M-5.79439252,-5.1177305 L10.3140187,-5.1177305 L10.3140187,9.53758865 L-5.79439252,9.53758865 L-5.79439252,-5.1177305 Z" id="Fill-135" fill="#1485E0" sketch:type="MSShapeGroup" mask="url(#mask-90)"></path>
                            </g>
                            <g id="Group-140" transform="translate(79.962617, 24.425532)">
                                <mask id="mask-92" sketch:name="Clip 139" fill="white">
                                    <use xlink:href="#path-91"></use>
                                </mask>
                                <g id="Clip-139"></g>
                                <path d="M-5.79439252,-5.00141844 L10.4299065,-5.00141844 L10.4299065,12.0964539 L-5.79439252,12.0964539 L-5.79439252,-5.00141844 Z" id="Fill-138" fill="#1485E0" sketch:type="MSShapeGroup" mask="url(#mask-92)"></path>
                            </g>
                            <g id="Group-143" transform="translate(79.962617, 3.489362)">
                                <mask id="mask-94" sketch:name="Clip 142" fill="white">
                                    <use xlink:href="#path-93"></use>
                                </mask>
                                <g id="Clip-142"></g>
                                <path d="M-5.79439252,-5.35035461 L10.3140187,-5.35035461 L10.3140187,7.44397163 L-5.79439252,7.44397163 L-5.79439252,-5.35035461 Z" id="Fill-141" fill="#1485E0" sketch:type="MSShapeGroup" mask="url(#mask-94)"></path>
                            </g>
                            <g id="Group-146" transform="translate(26.654206, 46.524823)">
                                <mask id="mask-96" sketch:name="Clip 145" fill="white">
                                    <use xlink:href="#path-95"></use>
                                </mask>
                                <g id="Clip-145"></g>
                                <path d="M-5.79439252,-5.00141844 L10.4299065,-5.00141844 L10.4299065,14.0737589 L-5.79439252,14.0737589 L-5.79439252,-5.00141844 Z" id="Fill-144" fill="#1485E0" sketch:type="MSShapeGroup" mask="url(#mask-96)"></path>
                            </g>
                            <g id="Group-149" transform="translate(53.308411, 46.524823)">
                                <mask id="mask-98" sketch:name="Clip 148" fill="white">
                                    <use xlink:href="#path-97"></use>
                                </mask>
                                <g id="Clip-148"></g>
                                <path d="M-5.79439252,-5.00141844 L10.4299065,-5.00141844 L10.4299065,14.0737589 L-5.79439252,14.0737589 L-5.79439252,-5.00141844 Z" id="Fill-147" fill="#1485E0" sketch:type="MSShapeGroup" mask="url(#mask-98)"></path>
                            </g>
                        </g>
                        <g id="Group-163" transform="translate(104.214953, 34.609929)">
                            <g id="Group-153" transform="translate(0.000000, 1.163121)">
                                <mask id="mask-100" sketch:name="Clip 152" fill="white">
                                    <use xlink:href="#path-99"></use>
                                </mask>
                                <g id="Clip-152"></g>
                                <path d="M-5.56261682,-5.58297872 L8.22803738,-5.58297872 L8.22803738,20.0056738 L-5.56261682,20.0056738 L-5.56261682,-5.58297872 Z" id="Fill-151" fill="#1485E0" sketch:type="MSShapeGroup" mask="url(#mask-100)"></path>
                            </g>
                            <g id="Group-156" transform="translate(5.794393, 0.000000)">
                                <mask id="mask-102" sketch:name="Clip 155" fill="white">
                                    <use xlink:href="#path-101"></use>
                                </mask>
                                <g id="Clip-155"></g>
                                <path d="M-5.67850467,-4.88510638 L15.2971963,-4.88510638 L15.2971963,21.6340426 L-5.67850467,21.6340426 L-5.67850467,-4.88510638 Z" id="Fill-154" fill="#1485E0" sketch:type="MSShapeGroup" mask="url(#mask-102)"></path>
                            </g>
                            <g id="Group-159" transform="translate(17.383178, 12.794326)">
                                <mask id="mask-104" sketch:name="Clip 158" fill="white">
                                    <use xlink:href="#path-103"></use>
                                </mask>
                                <g id="Clip-158"></g>
                                <path d="M-5.67850467,-5.00141844 L8.11214953,-5.00141844 L8.11214953,8.83971631 L-5.67850467,8.83971631 L-5.67850467,-5.00141844 Z" id="Fill-157" fill="#1485E0" sketch:type="MSShapeGroup" mask="url(#mask-104)"></path>
                            </g>
                            <g id="Group-162" transform="translate(20.859813, 0.000000)">
                                <mask id="mask-106" sketch:name="Clip 161" fill="white">
                                    <use xlink:href="#path-105"></use>
                                </mask>
                                <g id="Clip-161"></g>
                                <path d="M-4.75140187,-4.88510638 L16.1084112,-4.88510638 L16.1084112,21.6340426 L-4.75140187,21.6340426 L-4.75140187,-4.88510638 Z" id="Fill-160" fill="#1485E0" sketch:type="MSShapeGroup" mask="url(#mask-106)"></path>
                            </g>
                        </g>
                        <g id="Group-166" transform="translate(43.953271, 21.815603)">
                            <mask id="mask-108" sketch:name="Clip 165" fill="white">
                                <use xlink:href="#path-107"></use>
                            </mask>
                            <g id="Clip-165"></g>
                            <path d="M-97.3457944,-90.6070922 L126.317757,-90.6070922 L126.317757,123.407092 L-97.3457944,123.407092 L-97.3457944,-90.6070922 Z" id="Fill-164" fill-opacity="0.44" fill="#FFFFFF" sketch:type="MSShapeGroup" mask="url(#mask-108)"></path>
                        </g>
                        <g id="Group-169" transform="translate(136.663551, 127.659574)">
                            <mask id="mask-110" sketch:name="Clip 168" fill="white">
                                <use xlink:href="#path-109"></use>
                            </mask>
                            <g id="Clip-168"></g>
                            <path d="M-5.79439252,-4.76879433 L10.5457944,-4.76879433 L10.5457944,14.306383 L-5.79439252,14.306383 L-5.79439252,-4.76879433 Z" id="Fill-167" fill="#1485E0" sketch:type="MSShapeGroup" mask="url(#mask-110)"></path>
                        </g>
                        <path d="M152.88785,178.953191 L45.1121495,178.953191 C40.5925234,178.953191 37,175.347518 37,170.811348 L37,19.6056738 C37,17.6283688 38.5065421,16.1163121 40.4766355,16.1163121 L157.523364,16.1163121 C159.493458,16.1163121 161,17.6283688 161,19.6056738 L161,170.811348 C161,175.231206 157.407477,178.953191 152.88785,178.953191 L152.88785,178.953191 L152.88785,178.953191 Z" id="Stroke-170" stroke="#1485E0" stroke-width="3.9858" sketch:type="MSShapeGroup"></path>
                    </g>
                </g>
            </g>
        </g>
    </g>
</svg>