<?xml version="1.0" encoding="UTF-8" standalone="no"?>
<svg width="157px" height="57px" viewBox="0 0 157 57" version="1.1" xmlns="http://www.w3.org/2000/svg" xmlns:xlink="http://www.w3.org/1999/xlink" xmlns:sketch="http://www.bohemiancoding.com/sketch/ns">
    <!-- Generator: Sketch Beta 3.4 (15009) - http://www.bohemiancoding.com/sketch -->
    <title>howd</title>
    <desc>Created with Sketch Beta.</desc>
    <defs></defs>
    <g id="Page-1" stroke="none" stroke-width="1" fill="none" fill-rule="evenodd" sketch:type="MSPage">
        <g id="WINNER" sketch:type="MSArtboardGroup" transform="translate(-1001.000000, -4426.000000)" fill="#2D3238">
            <g id="Group" sketch:type="MSLayerGroup" transform="translate(-52.000000, 4119.000000)">
                <g id="Our-free-plan-works--+-Requests-per-month-+-$0" transform="translate(976.000000, 264.000000)" sketch:type="MSShapeGroup">
                    <g id="howd" transform="translate(77.000000, 24.000000)">
                        <path d="M40.44,21.2 L40.44,74 L36.44,74 L36.44,34 C36.44,32.4533256 36.4933328,30.0266832 36.6,26.72 C34.8399912,28.7466768 32.7333456,30.5199924 30.28,32.04 C27.8266544,33.5600076 25.2933464,34.6666632 22.68,35.36 L21.64,31.76 C24.2000128,31.1199968 27.0399844,29.7600104 30.16,27.68 C33.2800156,25.5999896 35.50666,23.4400112 36.84,21.2 L40.44,21.2 Z M68.71,21.2 L68.71,74 L64.71,74 L64.71,34 C64.71,32.4533256 64.7633328,30.0266832 64.87,26.72 C63.1099912,28.7466768 61.0033456,30.5199924 58.55,32.04 C56.0966544,33.5600076 53.5633464,34.6666632 50.95,35.36 L49.91,31.76 C52.4700128,31.1199968 55.3099844,29.7600104 58.43,27.68 C61.5500156,25.5999896 63.77666,23.4400112 65.11,21.2 L68.71,21.2 Z M112.86,27.68 C116.246684,32.5333576 117.94,39.1732912 117.94,47.6 C117.94,56.4533776 116.220017,63.1999768 112.78,67.84 C109.339983,72.4800232 104.553364,74.8 98.42,74.8 C93.8333104,74.8 90.0466816,73.7866768 87.06,71.76 C84.0733184,69.7333232 81.9933392,66.8800184 80.82,63.2 L84.82,61.12 C85.5666704,64.2666824 87.0199892,66.7199912 89.18,68.48 C91.3400108,70.2400088 94.3933136,71.12 98.34,71.12 C103.993362,71.12 108.073321,68.853356 110.58,64.32 C113.086679,59.786644 114.34,53.786704 114.34,46.32 C114.34,44.98666 114.180002,43.1466784 113.86,40.8 L113.62,40.8 C113.406666,43.6266808 112.526674,46.0133236 110.98,47.96 C109.433326,49.9066764 107.486678,51.3599952 105.14,52.32 C102.793322,53.2800048 100.393346,53.76 97.94,53.76 C92.7133072,53.76 88.5266824,52.2533484 85.38,49.24 C82.2333176,46.2266516 80.66,42.1600256 80.66,37.04 C80.66,31.973308 82.259984,27.9333484 85.46,24.92 C88.660016,21.9066516 92.9533064,20.4 98.34,20.4 C104.633365,20.4 109.473316,22.8266424 112.86,27.68 L112.86,27.68 Z M88.46,27.68 C86.0333212,30.0266784 84.82,33.19998 84.82,37.2 C84.82,41.0933528 86.019988,44.1999884 88.42,46.52 C90.820012,48.8400116 94.0999792,50 98.26,50 C100.873346,50 103.206656,49.4133392 105.26,48.24 C107.313344,47.0666608 108.913328,45.5066764 110.06,43.56 C111.206672,41.6133236 111.78,39.4933448 111.78,37.2 C111.78,33.3599808 110.540012,30.2266788 108.06,27.8 C105.579988,25.3733212 102.366686,24.16 98.42,24.16 C94.2066456,24.16 90.8866788,25.3333216 88.46,27.68 L88.46,27.68 Z" id="119"></path>
                        <path d="M127.86,75.05 L126.36,75.05 L130.83,63.125 L132.33,63.125 L127.86,75.05 Z M144.3,74 L142.83,74 L142.83,68.27 L142.935,65.54 L142.92,65.54 L139.905,74 L138.57,74 L135.555,65.54 L135.54,65.54 L135.66,68.27 L135.66,74 L134.175,74 L134.175,64.1 L136.56,64.1 L138.555,69.83 L139.245,72.185 L139.275,72.185 L139.98,69.83 L141.96,64.1 L144.3,64.1 L144.3,74 Z M153.8325,64.565 C154.537504,64.9750021 155.079998,65.5649961 155.46,66.335 C155.840002,67.1050039 156.03,68.0099948 156.03,69.05 C156.03,70.0900052 155.840002,70.9949961 155.46,71.765 C155.079998,72.5350038 154.537504,73.1249979 153.8325,73.535 C153.127496,73.945002 152.300005,74.15 151.35,74.15 C150.399995,74.15 149.575004,73.945002 148.875,73.535 C148.174996,73.1249979 147.635002,72.5350038 147.255,71.765 C146.874998,70.9949961 146.685,70.0900052 146.685,69.05 C146.685,68.0099948 146.874998,67.1050039 147.255,66.335 C147.635002,65.5649961 148.174996,64.9750021 148.875,64.565 C149.575004,64.1549979 150.399995,63.95 151.35,63.95 C152.300005,63.95 153.127496,64.1549979 153.8325,64.565 L153.8325,64.565 Z M149.16,66.32 C148.629997,66.9700033 148.365,67.8799942 148.365,69.05 C148.365,70.2200059 148.629997,71.1299968 149.16,71.78 C149.690003,72.4300032 150.419995,72.755 151.35,72.755 C152.290005,72.755 153.024997,72.4300032 153.555,71.78 C154.085003,71.1299968 154.35,70.2200059 154.35,69.05 C154.35,67.8799942 154.085003,66.9700033 153.555,66.32 C153.024997,65.6699967 152.290005,65.345 151.35,65.345 C150.419995,65.345 149.690003,65.6699967 149.16,66.32 L149.16,66.32 Z" id="/MO"></path>
                        <path d="M6.417,36.977 C3.70298643,36.7469988 1.87833801,35.5433442 0.943,33.366 L2.714,32.078 C2.92866774,32.8600039 3.37332996,33.5154974 4.048,34.0445 C4.72267004,34.5735026 5.51232881,34.9146659 6.417,35.068 L6.417,30.284 C5.40499494,30.0693323 4.55783674,29.831668 3.8755,29.571 C3.19316325,29.310332 2.62583559,28.9155026 2.1735,28.3865 C1.72116441,27.8574974 1.495,27.1560044 1.495,26.282 C1.495,25.1013274 1.93582893,24.1008374 2.8175,23.2805 C3.69917107,22.4601626 4.89899241,21.9810007 6.417,21.843 L6.417,19.612 L8.188,19.612 L8.188,21.866 C9.36867257,21.9580005 10.3423295,22.2493309 11.109,22.74 C11.8756705,23.2306691 12.5503304,23.9513286 13.133,24.902 L11.5,26.397 C11.1013313,25.5689959 10.6451692,24.9480021 10.1315,24.534 C9.61783077,24.1199979 8.97000391,23.8670005 8.188,23.775 L8.188,28.628 C9.20000506,28.8426677 10.0471633,29.0841653 10.7295,29.3525 C11.4118367,29.6208347 11.9791644,30.0271639 12.4315,30.5715 C12.8838356,31.1158361 13.11,31.8326622 13.11,32.722 C13.11,33.918006 12.6615045,34.8954962 11.7645,35.6545 C10.8674955,36.4135038 9.67534077,36.8543327 8.188,36.977 L8.188,39.208 L6.417,39.208 L6.417,36.977 Z M6.417,23.775 C5.55832904,23.8670005 4.90666889,24.1161646 4.462,24.5225 C4.01733111,24.9288354 3.795,25.4616634 3.795,26.121 C3.795,26.719003 4.0211644,27.1751651 4.4735,27.4895 C4.92583559,27.8038349 5.57366245,28.0606657 6.417,28.26 L6.417,23.775 Z M10.833,32.883 C10.833,32.2696636 10.6068356,31.8020016 10.1545,31.48 C9.7021644,31.1579984 9.04667096,30.8896677 8.188,30.675 L8.188,35.091 C9.95134215,34.9223325 10.833,34.1863398 10.833,32.883 L10.833,32.883 Z" id="$"></path>
                    </g>
                </g>
            </g>
        </g>
    </g>
</svg>