<?xml version="1.0" encoding="UTF-8" standalone="no"?>
<svg width="95px" height="43px" viewBox="0 0 95 43" version="1.1" xmlns="http://www.w3.org/2000/svg" xmlns:xlink="http://www.w3.org/1999/xlink" xmlns:sketch="http://www.bohemiancoding.com/sketch/ns">
    <!-- Generator: Sketch Beta 3.4 (15009) - http://www.bohemiancoding.com/sketch -->
    <title>tnw</title>
    <desc>Created with Sketch Beta.</desc>
    <defs>
        <linearGradient x1="8.80079024%" y1="26.5036249%" x2="38.9903248%" y2="40.6192636%" id="linearGradient-1">
            <stop stop-color="#DEDEDE" offset="0%"></stop>
            <stop stop-color="#FFFFFF" offset="75%"></stop>
        </linearGradient>
        <linearGradient x1="-4.90021019%" y1="41.3859505%" x2="87.0835752%" y2="60.3349166%" id="linearGradient-2">
            <stop stop-color="#DEDEDE" offset="0%"></stop>
            <stop stop-color="#FFFFFF" offset="75%"></stop>
        </linearGradient>
        <linearGradient x1="10.1530224%" y1="54.0791429%" x2="106.954306%" y2="38.0487143%" id="linearGradient-3">
            <stop stop-color="#FFFFFF" offset="0%"></stop>
            <stop stop-color="#FFFFFF" offset="70%"></stop>
            <stop stop-color="#DEDEDE" offset="100%"></stop>
        </linearGradient>
    </defs>
    <g id="Page-1" stroke="none" stroke-width="1" fill="none" fill-rule="evenodd" sketch:type="MSPage">
        <g id="WINNER" sketch:type="MSArtboardGroup" transform="translate(-460.000000, -3020.000000)">
            <g id="tnw" sketch:type="MSLayerGroup" transform="translate(460.000000, 3020.000000)">
                <g id="Layer_1" sketch:type="MSShapeGroup">
                    <g id="Group">
                        <path d="M84.8324667,0.00106965174 L80.1842222,13.8898557 L77.3198667,2.56823383 C76.6704889,0 75.8351222,0 75.3597,0 C75.3597,0 74.3172333,0.000213930348 73.2754,0.302283582 L71.0293889,10.3880299 L75.3654,29.9513184 L84.0209556,29.9513184 L94.9658,0.00106965174 L84.8324667,0.00106965174 L84.8324667,0.00106965174 Z" id="Shape" fill="url(#linearGradient-1)"></path>
                        <path d="M62.9799333,13.9245124 L59.4244,2.5919801 C58.6644,0.170074627 57.5738,0.000213930348 56.9132333,0.000213930348 C56.9132333,0.000213930348 55.6729556,0.000213930348 54.3577333,0.302283582 L54.3577333,17.9025473 L59.0021778,29.9515323 L60.3600444,29.9513184 L64.9037889,29.6492488 L62.9799333,13.9245124 L62.9799333,13.9245124 Z" id="Shape" fill="url(#linearGradient-2)"></path>
                        <path d="M75.3597,0.00171144279 L67.5010889,0.00363681592 C66.9135667,0.00363681592 65.3602111,0.00171144279 64.9318667,2.56823383 L60.3600444,29.9513184 L67.5253667,29.9513184 L73.4195889,2.56823383 C73.9722778,0.00106965174 75.1840556,0.00171144279 75.3597,0.00171144279 L75.3597,0.00171144279 Z" id="Shape" fill="#FFFFFF"></path>
                        <path d="M27.7577333,0.302283582 C27.7577333,0.302283582 26.4910667,0.00106965174 25.2248222,0.00106965174 L0,0.00106965174 L3.12697778,8.55828358 L10.8688444,8.55828358 L10.8688444,29.9513184 L19.3132889,29.9513184 L19.3132889,8.55828358 L27.7577333,8.55828358 L27.7577333,0.302283582 L27.7577333,0.302283582 Z" id="Shape" fill="url(#linearGradient-3)"></path>
                        <path d="M48.8688444,0.000213930348 C47.4698111,0.000213930348 46.3355111,1.15051741 46.3355111,2.56823383 L46.3355111,13.3663682 L37.2279667,1.69710945 C36.3991444,0.587666667 35.0661889,0.0057761194 33.8649667,0.0057761194 L25.2246111,0.00128358209 C25.2246111,0.00128358209 27.3353,0.00128358209 27.3353,2.56866169 L27.3353,29.9515323 L35.7797444,29.9515323 L35.7797444,13.633995 L47.2717889,28.3596766 C48.1122222,29.414995 49.3455333,29.9592338 50.5870778,29.9511045 L54.7799556,29.9511045 L54.7799556,2.5680199 C54.7799556,1.05082587 55.7341778,-1.77635684e-15 56.9132333,-1.77635684e-15 L48.8688444,-1.77635684e-15 L48.8688444,0.000213930348 Z" id="Shape" fill="#FFFFFF"></path>
                    </g>
                    <g id="Group" transform="translate(3.166667, 35.940299)" fill="#FFFFFF">
                        <path d="M1.95911111,6.8468408 L1.95911111,1.41985572 L0.00844444444,1.41985572 L0.00844444444,0.197885572 L5.36391111,0.197885572 L5.36391111,1.41985572 L3.40437778,1.41985572 L3.40437778,6.8468408 L1.95911111,6.8468408 L1.95911111,6.8468408 Z" id="Shape"></path>
                        <path d="M8.16556667,6.8468408 L8.16556667,0.197885572 L9.61083333,0.197885572 L9.61083333,2.77660199 L12.1910333,2.77660199 L12.1910333,0.197885572 L13.6363,0.197885572 L13.6363,6.8468408 L12.1910333,6.8468408 L12.1910333,4.00755721 L9.61083333,4.00755721 L9.61083333,6.8468408 L8.16556667,6.8468408 L8.16556667,6.8468408 Z" id="Shape"></path>
                        <path d="M16.9169667,6.8468408 L16.9169667,0.197885572 L21.3857667,0.197885572 L21.3857667,1.41985572 L18.3622333,1.41985572 L18.3622333,2.84848259 L20.5523,2.84848259 L20.5523,4.00755721 L18.3622333,4.00755721 L18.3622333,5.66102488 L21.5453667,5.66102488 L21.5453667,6.84705473 L16.9169667,6.84705473 L16.9169667,6.8468408 Z" id="Shape"></path>
                        <path d="M28.7805667,6.8468408 L28.7805667,0.197885572 L30.2258333,0.197885572 L32.9745,4.4388408 L32.9922333,4.4388408 L32.9922333,0.197885572 L34.3222333,0.197885572 L34.3222333,6.8468408 L32.9922333,6.8468408 L30.1283,2.56994527 L30.1105667,2.56994527 L30.1105667,6.8468408 L28.7805667,6.8468408 L28.7805667,6.8468408 Z" id="Shape"></path>
                        <path d="M37.6029,6.8468408 L37.6029,0.197885572 L42.0717,0.197885572 L42.0717,1.41985572 L39.0481667,1.41985572 L39.0481667,2.84848259 L41.2382333,2.84848259 L41.2382333,4.00755721 L39.0481667,4.00755721 L39.0481667,5.66102488 L42.2313,5.66102488 L42.2313,6.84705473 L37.6029,6.84705473 L37.6029,6.8468408 Z" id="Shape"></path>
                        <path d="M44.7583,6.8468408 L46.8597,3.33367662 L44.9445,0.197885572 L46.5937,0.197885572 L47.7638889,2.19257214 L48.8722222,0.197885572 L50.3620333,0.197885572 L48.4911667,3.34266169 L50.6191667,6.8468408 L49.0140889,6.8468408 L47.6220222,4.51970647 L46.2742889,6.8468408 L44.7583,6.8468408 L44.7583,6.8468408 Z" id="Shape"></path>
                        <path d="M54.9813556,6.8468408 L54.9813556,1.41985572 L53.0306889,1.41985572 L53.0306889,0.197885572 L58.3861556,0.197885572 L58.3861556,1.41985572 L56.4266222,1.41985572 L56.4266222,6.8468408 L54.9813556,6.8468408 L54.9813556,6.8468408 Z" id="Shape"></path>
                        <path d="M66.7651556,6.8468408 L65.0186333,0.197885572 L66.4727667,0.197885572 L67.1643667,3.22585572 C67.3239667,3.83662687 67.4303667,4.32203483 67.4835667,4.68143781 L67.5013,4.68143781 C67.5485889,4.34620896 67.6488667,3.86379602 67.8027667,3.2348408 L68.4677667,0.197885572 L69.7977667,0.197885572 L70.5068889,3.25281095 C70.6842222,4.01354726 70.7876667,4.48975622 70.8174333,4.68143781 L70.8351667,4.68143781 C70.8706333,4.4240796 70.9683778,3.95364677 71.1279778,3.27078109 L71.7925556,0.197885572 L73.1227667,0.197885572 L71.4117111,6.8468408 L70.1792444,6.8468408 L69.1416333,2.21952736 L69.1239,2.21952736 L68.0155667,6.8468408 L66.7651556,6.8468408 L66.7651556,6.8468408 Z" id="Shape"></path>
                        <path d="M75.9155556,6.8468408 L75.9155556,0.197885572 L80.3843556,0.197885572 L80.3843556,1.41985572 L77.3608222,1.41985572 L77.3608222,2.84848259 L79.5508889,2.84848259 L79.5508889,4.00755721 L77.3608222,4.00755721 L77.3608222,5.66102488 L80.5439556,5.66102488 L80.5439556,6.84705473 L75.9155556,6.84705473 L75.9155556,6.8468408 Z" id="Shape"></path>
                        <path d="M83.4610889,6.8468408 L83.4610889,0.197885572 L86.0856222,0.197885572 C87.6461556,0.197885572 88.4264222,0.745975124 88.4264222,1.84236816 C88.4264222,2.28563184 88.3096778,2.6328408 88.0761889,2.88442289 C87.8427,3.13621891 87.5427111,3.29795025 87.1762222,3.36983085 L87.1762222,3.387801 C88.1279111,3.56151244 88.6037556,4.10361194 88.6037556,5.0140995 C88.6037556,5.63727861 88.3761778,6.09829851 87.9212333,6.39801493 C87.4658667,6.69751741 86.8984,6.84726866 86.2188333,6.84726866 L83.4610889,6.84726866 L83.4610889,6.8468408 Z M84.8797556,2.93833333 L85.9437556,2.93833333 C86.6767333,2.93833333 87.0432222,2.67177612 87.0432222,2.13866169 C87.0432222,1.59934328 86.6826444,1.33000498 85.9614889,1.33000498 L84.8797556,1.33000498 L84.8797556,2.93833333 L84.8797556,2.93833333 Z M84.8797556,5.73269154 L86.0412889,5.73269154 C86.8097333,5.73269154 87.1939556,5.43618408 87.1939556,4.84316915 C87.1939556,4.26213433 86.7890444,3.97161692 85.9792222,3.97161692 L84.8797556,3.97161692 L84.8797556,5.73269154 L84.8797556,5.73269154 Z" id="Shape"></path>
                    </g>
                </g>
            </g>
        </g>
    </g>
</svg>