<?xml version="1.0" encoding="UTF-8" standalone="no"?>
<svg width="211px" height="32px" viewBox="0 0 211 32" version="1.1" xmlns="http://www.w3.org/2000/svg" xmlns:xlink="http://www.w3.org/1999/xlink" xmlns:sketch="http://www.bohemiancoding.com/sketch/ns">
    <!-- Generator: Sketch Beta 3.4 (15009) - http://www.bohemiancoding.com/sketch -->
    <title>fastCompany</title>
    <desc>Created with Sketch Beta.</desc>
    <defs></defs>
    <g id="Page-1" stroke="none" stroke-width="1" fill="none" fill-rule="evenodd" sketch:type="MSPage">
        <g id="WINNER" sketch:type="MSArtboardGroup" transform="translate(-604.000000, -3020.000000)" fill="#FFFFFF">
            <g id="fastCompany" sketch:type="MSLayerGroup" transform="translate(604.000000, 3020.000000)">
                <path d="M100.159435,9.02518519 C100.159435,13.2124444 99.737435,26.1961481 99.737435,26.1961481 C99.737435,28.7087407 100.580243,29.8263704 102.968,29.8263704 L102.968,30.9428148 L93.5588305,30.9428148 L93.5588305,29.8263704 C95.9465876,29.8263704 97.2102034,28.7087407 97.2102034,26.1961481 L98.0530113,4.97659259 C97.3508701,3.30074074 96.6487288,2.74251852 94.8236384,2.60266667 L94.8236384,1.62607407 L101.984525,1.62607407 L109.567412,21.4494815 L117.289774,1.62607407 L123.749712,1.62607407 L123.749712,2.60266667 C121.924621,2.60266667 120.941147,3.44059259 120.941147,5.39496296 L121.783955,25.9164444 C121.783955,28.9884444 122.345429,29.8263704 124.872661,29.8263704 L124.872661,30.9428148 L114.060401,30.9428148 L114.060401,29.8263704 C116.166825,29.8263704 117.150299,29.1282963 117.009633,25.9164444 C117.009633,25.9164444 116.587633,11.5377778 116.448158,9.02518519 L111.251836,23.2651852 C110.549695,25.0797037 109.847554,27.1739259 109.286079,29.4068148 L107.601655,29.5466667 C107.179655,28.0118519 106.056706,25.2195556 106.056706,25.2195556 C106.056706,25.2195556 101.703192,13.0737778 100.159435,9.02518519" id="Fill-2" sketch:type="MSShapeGroup"></path>
                <path d="M91.3129322,31.0826667 C90.7502655,30.9428148 90.188791,30.9428148 89.6273164,30.9428148 C88.5043672,30.9428148 86.5386102,31.501037 84.1508531,31.501037 C75.0230169,31.501037 68.2829379,26.0562963 68.2829379,16.0047407 C68.2829379,7.48918519 74.602209,0.928 84.2915198,0.928 C86.5386102,0.928 89.0658418,1.34637037 91.1722655,2.1842963 C91.5930734,1.76474074 91.7337401,1.48622222 92.154548,1.06666667 L92.9973559,1.06666667 C92.8566893,2.60266667 92.2952147,7.62903704 92.2952147,7.62903704 L91.4524068,7.62903704 C90.8909322,4.69688889 89.3459831,2.74251852 84.4321864,2.74251852 C78.5337232,2.74251852 73.1979266,7.34933333 73.1979266,15.8648889 C73.1979266,25.4980741 78.6743898,29.6865185 84.7123277,29.6865185 C88.6450339,29.6865185 91.0315989,27.4524444 92.576548,24.6613333 L93.5588305,25.0797037 L91.3129322,31.0826667" id="Fill-3" sketch:type="MSShapeGroup"></path>
                <path d="M64.7734237,7.06962963 L63.7899492,7.06962963 C63.6492825,4.41718519 62.8064746,3.58044444 60.7012429,3.58044444 L56.6290621,3.58044444 L56.6290621,25.4980741 C56.6290621,29.1282963 57.3312034,29.8263704 59.7177684,29.8263704 L59.7177684,30.9428148 L49.1856497,30.9428148 L49.1856497,29.8263704 C51.5734068,29.8263704 52.275548,29.1282963 52.275548,25.3582222 L52.275548,3.58044444 L48.2033672,3.58044444 C45.5354689,3.58044444 45.1134689,4.27851852 44.4113277,7.06962963 L43.4290452,7.06962963 L44.1311864,0.788148148 L44.8333277,0.928 C45.1134689,1.62607407 45.6761356,1.62607407 47.3605593,1.62607407 L60.9813842,1.62607407 C63.5086158,1.62607407 64.0712825,1.62607407 64.6327571,0.788148148 L65.475565,0.788148148 L64.7734237,7.06962963" id="Fill-4" sketch:type="MSShapeGroup"></path>
                <path d="M35.0033503,31.6408889 C33.0375932,31.6408889 31.4938362,31.3623704 30.3696949,30.9428148 C29.2467458,30.6642963 28.4039379,30.2447407 27.9831299,29.9662222 C27.4216554,30.5244444 26.9996554,31.2225185 26.9996554,31.2225185 L26.1568475,30.9428148 L26.8589887,24.3816296 L27.8424633,24.5214815 C28.4039379,27.5922963 30.5103616,29.8263704 34.8638757,29.8263704 C38.2339153,29.8263704 40.4798136,27.0340741 40.4798136,23.9632593 C40.4798136,21.4494815 39.4975311,20.1931852 36.1274915,17.6805926 C35.0033503,16.9825185 34.0210678,16.4242963 33.1782599,15.7262222 C30.0883616,13.7718519 28.1237966,11.5377778 28.1237966,7.90755556 C28.1237966,3.71911111 31.6333107,0.928 36.2681582,0.928 C38.9360565,0.928 40.6204802,1.76474074 41.1819548,2.04444444 L42.1654294,0.928 L42.8675706,1.06666667 L42.1654294,7.06962963 L41.1819548,6.93096296 C41.1819548,4.13866667 39.4975311,2.88237037 36.6889661,2.88237037 C34.0210678,2.88237037 32.0553107,4.27851852 32.0553107,6.93096296 C32.0553107,9.3037037 33.8804011,10.8397037 35.9868249,12.2358519 C37.109774,12.9339259 37.9525819,13.4921481 38.7953898,14.0503704 C43.7103785,17.5407407 44.8333277,19.7748148 44.8333277,23.1253333 C44.8333277,28.0118519 41.0412881,31.6408889 35.0033503,31.6408889" id="Fill-5" sketch:type="MSShapeGroup"></path>
                <path d="M18.9959605,7.06962963 L17.8730113,7.06962963 C17.8730113,4.55703704 16.7488701,3.58044444 14.5017797,3.58044444 L8.18370056,3.58044444 L8.18370056,14.6085926 L12.2558814,14.6085926 C14.3623051,14.6085926 14.783113,13.4921481 15.0644463,11.6776296 L16.0467288,11.6776296 L16.0467288,19.4951111 L15.0644463,19.4951111 C14.783113,17.4008889 14.3623051,16.5641481 12.1152147,16.5641481 L8.18370056,16.5641481 L8.18370056,25.9164444 C8.18370056,29.4068148 9.02650847,29.8263704 11.2724068,29.8263704 L11.2724068,30.9428148 L0.600813559,30.9428148 L0.600813559,29.8263704 C3.26871186,29.8263704 3.68951977,29.1282963 3.68951977,25.9164444 L3.68951977,5.39496296 C3.68951977,3.44059259 2.84790395,2.60266667 0.600813559,2.60266667 L0.600813559,1.62607407 L15.2039209,1.62607407 C17.7323446,1.62607407 18.2938192,1.48622222 18.7146271,0.648296296 L19.6981017,0.648296296 L18.9959605,7.06962963" id="Fill-6" sketch:type="MSShapeGroup"></path>
                <path d="M170.509458,8.74548148 L170.509458,25.4980741 C170.509458,29.1282963 171.352266,29.8263704 173.599356,29.8263704 L173.599356,30.9428148 L157.029299,30.9428148 L157.029299,29.8263704 C158.292915,29.8263704 159.417056,29.4068148 159.417056,28.5700741 C159.417056,28.0118519 159.27639,27.0340741 158.995056,26.0562963 L157.731441,22.0077037 L148.46413,22.0077037 C148.323463,22.5659259 146.637847,27.1739259 146.637847,28.4302222 C146.637847,29.5466667 147.902655,29.8263704 148.744271,29.8263704 L148.744271,30.9428148 L141.02191,30.9428148 L141.02191,29.8263704 C142.425,29.8263704 143.549141,29.6865185 144.531424,26.7543704 L151.693503,3.99881481 C151.272695,3.02103704 150.710028,2.74251852 149.727746,2.60266667 L149.727746,1.62607407 L156.045825,1.62607407 L163.628712,25.4980741 C164.330853,28.0118519 165.032994,29.2681481 166.157136,29.8263704 C167.841559,29.2681481 168.262367,28.7087407 168.262367,25.4980741 L168.262367,5.39496296 C166.998751,3.71911111 166.859277,2.60266667 164.47152,2.60266667 L164.47152,1.62607407 L171.632407,1.62607407 L183.428141,21.5893333 L183.428141,6.37274074 C183.428141,3.30074074 182.726,2.60266667 180.339435,2.60266667 L180.339435,1.62607407 L196.066684,1.62607407 L196.066684,2.60266667 C195.083209,2.60266667 194.240401,3.02103704 194.240401,3.99881481 C194.240401,4.69688889 194.521734,5.39496296 194.801876,6.23288889 L199.296056,15.8648889 L203.649571,6.51140741 C204.35052,5.25511111 204.491186,4.55703704 204.491186,3.85896296 C204.491186,3.02103704 203.929712,2.60266667 202.666096,2.60266667 L202.666096,1.62607407 L210.108316,1.62607407 L210.108316,2.60266667 C208.283226,2.60266667 207.159085,4.27851852 206.317469,6.23288889 L200.559672,17.9591111 L200.559672,25.6379259 C200.559672,28.9884444 201.40248,29.8263704 203.649571,29.8263704 L203.649571,30.9428148 L192.976785,30.9428148 L192.976785,29.8263704 C195.223876,29.8263704 196.066684,28.9884444 196.066684,25.6379259 L196.066684,19.0767407 L189.888079,6.09303704 C188.763938,3.58044444 188.34313,3.02103704 187.640989,2.60266667 C186.236706,3.16088889 185.815898,4.13866667 185.815898,6.37274074 L185.815898,27.872 C185.815898,27.872 185.955373,29.5466667 186.09604,31.501037 L184.270949,31.6408889 L170.509458,8.74548148 L170.509458,8.74548148 Z M152.957119,7.34933333 L149.025605,20.0533333 L157.169966,20.0533333 L152.957119,7.34933333 L152.957119,7.34933333 Z" id="Fill-7" sketch:type="MSShapeGroup"></path>
                <path d="M135.545446,20.0533333 L133.439023,20.0533333 L133.439023,26.0562963 C133.439023,29.1282963 134.280638,29.8263704 136.668395,29.8263704 L136.668395,30.9428148 L125.856136,30.9428148 L125.856136,29.8263704 C128.103226,29.8263704 128.944842,28.9884444 128.944842,25.9164444 L128.944842,6.23288889 C128.944842,3.16088889 128.103226,2.60266667 125.856136,2.60266667 L125.856136,1.62607407 L134.000497,1.62607407 C141.863525,1.62607407 146.497181,3.99881481 146.497181,10.4201481 C146.497181,17.1223704 140.881243,20.0533333 135.545446,20.0533333 L135.545446,20.0533333 Z M134.141164,3.58044444 L133.439023,3.58044444 L133.439023,17.9591111 L134.702638,17.9591111 C139.336294,17.9591111 141.722859,15.8648889 141.722859,10.56 C141.722859,5.25511111 139.617627,3.58044444 134.141164,3.58044444 L134.141164,3.58044444 Z" id="Fill-8" sketch:type="MSShapeGroup"></path>
                <path d="M86.5386102,25.3582222 C81.2016215,25.3582222 77.5514407,21.5893333 77.5514407,16.1445926 C77.5514407,10.9795556 81.3422881,6.93096296 86.5386102,6.93096296 C91.5930734,6.93096296 95.385113,10.8397037 95.385113,16.1445926 C95.385113,21.3096296 91.4524068,25.3582222 86.5386102,25.3582222 L86.5386102,25.3582222 Z M86.5386102,8.60562963 C82.8872373,8.60562963 81.6236215,12.096 81.6236215,16.1445926 C81.6236215,19.9146667 82.7465706,23.6835556 86.5386102,23.6835556 C90.188791,23.6835556 91.3129322,19.9146667 91.3129322,16.0047407 C91.3129322,12.2358519 89.9086497,8.60562963 86.5386102,8.60562963 L86.5386102,8.60562963 Z" id="Fill-9" sketch:type="MSShapeGroup"></path>
                <path d="M24.7537571,23.6835556 L24.7537571,22.7057778 C26.1568475,22.7057778 26.4381808,22.2874074 26.4381808,21.869037 C26.4381808,21.3096296 26.2975141,20.8912593 26.1568475,20.4728889 C26.1568475,20.4728889 25.8767062,19.3552593 25.5953729,18.5173333 L20.1189096,18.5173333 L19.557435,20.333037 C19.4167684,20.7514074 19.2761017,21.170963 19.2761017,21.7291852 C19.2761017,22.2874074 19.8387684,22.7057778 20.6815763,22.7057778 L20.6815763,23.6835556 L15.2039209,23.6835556 L15.2039209,22.7057778 C16.6082034,22.7057778 17.1708701,22.2874074 17.7323446,20.7514074 L21.9451921,8.18725926 C21.8045254,7.62903704 21.3825254,7.20948148 20.5409096,7.20948148 L20.5409096,6.23288889 L25.0338983,6.23288889 C28.6852712,16.8426667 29.6675537,19.634963 29.6675537,19.634963 C30.3696949,22.0077037 31.0718362,22.7057778 32.1959774,22.7057778 L32.1959774,23.6835556 L24.7537571,23.6835556 L24.7537571,23.6835556 Z M22.7868079,10.1416296 L20.6815763,16.9825185 L25.0338983,16.9825185 L22.7868079,10.1416296 L22.7868079,10.1416296 Z" id="Fill-10" sketch:type="MSShapeGroup"></path>
            </g>
        </g>
    </g>
</svg>