<?xml version="1.0" encoding="UTF-8" standalone="no"?>
<svg width="167px" height="39px" viewBox="0 0 167 39" version="1.1" xmlns="http://www.w3.org/2000/svg" xmlns:xlink="http://www.w3.org/1999/xlink" xmlns:sketch="http://www.bohemiancoding.com/sketch/ns">
    <!-- Generator: Sketch Beta 3.4 (15009) - http://www.bohemiancoding.com/sketch -->
    <title>recode</title>
    <desc>Created with Sketch Beta.</desc>
    <defs></defs>
    <g id="Page-1" stroke="none" stroke-width="1" fill="none" fill-rule="evenodd" sketch:type="MSPage">
        <g id="WINNER" sketch:type="MSArtboardGroup" transform="translate(-1069.000000, -3032.000000)" stroke="#FFFFFF" fill="#FFFFFF">
            <g id="recode" sketch:type="MSLayerGroup" transform="translate(1070.000000, 3032.000000)">
                <g id="svg2" sketch:type="MSShapeGroup">
                    <g id="layer1" transform="translate(0.304005, 0.736328)">
                        <path d="M16.6840758,9.0794275 L16.7564614,31.7859019 L20.7012868,31.7496644 L21.6060628,31.0242156 L21.5336772,16.4064688 C21.5336772,16.4064688 21.5613862,15.3202644 23.5837076,14.1814099 C26.2084976,12.7032783 27.7921578,12.7359863 27.7921578,12.7359863 C27.7921578,12.7359863 29.7703993,15.1013598 29.8576195,12.1118254 C29.9495911,8.95943588 29.7660946,9.05972113 28.1615448,8.94341013 C27.1905963,8.87888138 25.396756,9.012562 23.3688207,10.4189248 C22.7476448,10.8497082 21.5336772,10.6754091 21.5336772,10.6754091 L21.5336772,9.188244 L16.6840758,9.0794275 Z" id="path3050"></path>
                        <path d="M49.8431929,37.4906919 L54.7054709,37.5419606 L67.3985734,0.813444125 L62.3827527,0.813444125 L49.8431929,37.4906919 Z" id="path3056"></path>
                        <path d="M69.1423615,10.655762 L65.0390904,23.2558308 C65.0390904,23.2558308 64.779073,26.3124249 67.2038806,28.5613079 C69.8657471,31.0300494 71.1881682,31.5378213 72.4186664,31.5740994 C73.6491645,31.6103369 77.1183625,31.9293325 78.2305825,31.1475044 C78.9368385,30.651075 80.1269972,29.7183819 80.1269972,29.7183819 L78.4603859,26.3007591 C78.4603859,26.3007591 76.4355028,27.9047616 73.7211772,27.1430429 C71.0068516,26.3813241 70.4277913,23.5158113 70.4277913,23.5158113 C70.4277913,23.5158113 69.7401647,18.8004091 70.5363656,17.2406991 C71.3325665,15.68099 72.3965834,14.4763474 73.3737442,14.0048074 C74.3508969,13.5332673 75.4326678,13.3399484 76.3359918,13.9602255 C77.3572293,14.6614658 77.8425994,15.3930002 77.8425994,15.3930002 L80.008638,11.443146 C80.008638,11.443146 79.9974506,12.1385737 78.1201599,10.4849721 C76.9833114,9.48357394 70.8741677,8.52036413 69.1423615,10.655762 L69.1423615,10.655762 Z" id="path3826"></path>
                        <g id="path3830-+-path3832" transform="translate(81.878641, 8.937500)">
                            <path d="M10.336165,0.105655062 C10.336165,0.105655062 7.15135345,-0.764881 3.3874815,3.51525281 C-0.37638233,7.79538744 -0.332143544,17.0648627 4.03891932,20.8534219 C8.2299951,24.4859794 13.2624509,23.9756156 17.0677,21.07105 C20.9836554,18.0819827 20.6868088,6.27194994 17.7191459,2.93489625 C14.7514748,-0.402157438 10.336165,0.105655062 10.336165,0.105655062 L10.336165,0.105655062 Z M13.0939268,6.07607894 C13.0939268,6.07607894 10.7053161,3.3919275 8.02717927,5.93099 C5.34903432,8.4700525 6.63124573,15.5982296 7.44811893,16.3774187 C8.67214786,17.5449861 11.2164739,19.3432622 13.3110674,16.7401422 C15.1206259,14.4912584 15.1206259,7.88969512 13.0939268,6.07607894 L13.0939268,6.07607894 Z" id="path3830"></path>
                        </g>
                        <path d="M154.173889,9.04315506 L165.682646,20.4326639 L154.246275,31.4594475 L154.173881,24.4226198 L158.516805,20.5052087 L154.246267,16.0799852 L154.173889,9.04315506 Z" id="path3842"></path>
                        <path d="M11.6897106,9.0794275 L0.0873734272,20.5865546 L11.3427916,31.9035194 L11.4151772,24.9443886 L7.01335227,20.6715454 L11.6747236,15.87222 L11.6897106,9.0794275 Z" id="path3844"></path>
                        <g id="path3054-+-path3052" transform="translate(32.427184, 8.937500)">
                            <path d="M16.423461,12.9973537 C16.423461,12.9973537 17.1692619,10.4493358 17.6436959,8.92196419 C18.2919964,6.834802 18.0727076,5.69252206 16.9297223,3.75520275 C15.5922874,1.4883115 12.5221221,0.39583375 11.436387,0.250744 C10.35066,0.105655063 6.76773985,0.178195875 5.60962728,0.7585565 C4.45151471,1.33891388 1.0495569,4.34951644 0.470499801,7.83165906 C-0.108556485,11.3138025 0.767015597,17.0632881 1.59460517,18.4239063 C2.71580021,20.2672356 5.06531267,22.2324944 7.67106393,22.5952188 C10.2768233,22.9579431 9.83357612,22.7148431 12.8086,22.559225 C13.3833151,22.5291625 13.5668854,21.2862244 14.2438272,19.8657518 C14.8890066,18.5827801 15.4934007,16.8204603 15.4934007,16.8204603 C15.4934007,16.8204603 13.5579274,18.2809721 12.197145,18.7162398 C11.5727271,18.9159693 9.01160374,19.0760497 8.07063981,18.3868726 C7.12966777,17.6976979 5.99270583,16.0514153 5.71530748,15.3051828 C5.24555917,14.0414853 5.35629801,12.9822964 5.35629801,12.9822964 L16.423461,12.9973537 Z M5.28389621,9.75409256 L14.3316563,9.75409256 C14.3316563,9.75409256 14.4402306,6.81603406 13.137355,5.61904769 C11.8344712,4.42206131 11.4725676,4.38578888 10.4230213,4.24069913 C9.37348301,4.09561019 8.03441053,4.34951644 7.52773578,4.78478406 C7.02106102,5.2200525 6.47819752,5.29259656 5.89914529,6.27194913 C5.32008495,7.2513025 5.28389621,9.75409256 5.28389621,9.75409256 L5.28389621,9.75409256 Z" id="path3054"></path>
                        </g>
                        <g id="path3834-+-path3836" transform="translate(105.388350, 0.000000)">
                            <path d="M14.6211824,0.337797688 L20.4841389,0.482887438 L20.7012795,32.3299844 L14.693568,32.4025406 L14.6211743,30.0811062 C14.6211743,30.0811062 13.8249734,33.9259781 6.15247456,32.1123563 C-1.52002427,30.2987344 1.31117339e-13,15.85506 2.8228999,11.9376498 C5.64580791,8.02023869 12.3049572,9.61622106 12.956395,10.0514887 C13.6078329,10.4867563 14.550256,11.5749262 14.550256,11.5749262 L14.6211824,0.337797688 Z M7.31059524,16.1525301 C7.31059524,16.1525301 6.58384529,16.9356858 6.48170777,18.9424787 C6.36527796,21.2302716 6.44571359,24.3160174 7.88963937,26.0186014 C10.3506276,28.9203947 13.3708469,26.1968379 13.897359,25.220611 C14.6211824,23.8785349 14.9251791,17.2334451 13.2169637,15.68099 C10.3634039,13.1041284 8.99324995,14.3941078 7.31059524,16.1525301 L7.31059524,16.1525301 Z" id="path3834"></path>
                        </g>
                        <g id="path3840-+-path3838" transform="translate(130.519417, 8.937500)">
                            <path d="M5.35482257,12.5869786 L18.6166817,12.612353 C18.6166817,12.612353 19.4902214,7.56787525 15.6872909,2.89755781 C13.6761002,0.427645563 10.2391753,-0.228626937 7.46988568,0.165146313 C4.0315016,0.654061688 2.65397859,2.27645763 1.61927578,3.76160525 C0.441406942,5.45224306 -0.721091408,16.0471959 2.60887238,19.2828334 C6.61208126,23.1726463 9.4458767,23.810605 14.4330155,21.941595 C16.5658001,21.1422981 17.9652601,19.0253001 17.9652601,19.0253001 L15.3739876,16.5587817 C15.3739876,16.5587817 13.6512853,18.7496303 10.3217106,18.7496294 C6.69608388,18.5101881 4.86680155,14.7736916 5.35482257,12.5869786 L5.35482257,12.5869786 Z M5.0573599,9.31809531 L14.0240115,9.31809531 C14.0240115,9.31809531 14.1037013,4.31907694 9.53996417,4.3168905 C4.32795092,4.31437175 5.0573599,9.31809531 5.0573599,9.31809531 L5.0573599,9.31809531 Z" id="path3840"></path>
                        </g>
                    </g>
                </g>
            </g>
        </g>
    </g>
</svg>