<?xml version="1.0" encoding="UTF-8"?>
<svg width="74px" height="74px" viewBox="0 0 74 74" version="1.1" xmlns="http://www.w3.org/2000/svg" xmlns:xlink="http://www.w3.org/1999/xlink">
    <!-- Generator: Sketch 51.1 (57501) - http://www.bohemiancoding.com/sketch -->
    <title>Angular 1.x</title>
    <desc>Created with Sketch.</desc>
    <defs>
        <linearGradient x1="12.3813483%" y1="8.54625667%" x2="93.5909159%" y2="98.5559937%" id="linearGradient-1">
            <stop stop-color="#FF7B81" offset="0%"></stop>
            <stop stop-color="#DA3224" offset="100%"></stop>
        </linearGradient>
        <rect id="path-2" x="0" y="0" width="74" height="74" rx="6"></rect>
        <linearGradient x1="61.8390289%" y1="33.1096088%" x2="68.3090624%" y2="80.3496797%" id="linearGradient-4">
            <stop stop-color="#EDA2A5" offset="0%"></stop>
            <stop stop-color="#E64A42" offset="100%"></stop>
        </linearGradient>
    </defs>
    <g id="Page-1" stroke="none" stroke-width="1" fill="none" fill-rule="evenodd">
        <g id="Downloads-fusioncharts-suite-xt-final" transform="translate(-607.000000, -522.000000)">
            <g id="Group-10" transform="translate(598.000000, 522.000000)">
                <g id="Angular-1.x" transform="translate(9.000000, 0.000000)">
                    <mask id="mask-3" fill="white">
                        <use xlink:href="#path-2"></use>
                    </mask>
                    <g id="Mask">
                        <use fill="#FFFFFF" xlink:href="#path-2"></use>
                        <use fill="url(#linearGradient-1)" xlink:href="#path-2"></use>
                    </g>
                    <g id="Group" mask="url(#mask-3)" fill="url(#linearGradient-4)">
                        <g transform="translate(-17.232877, 16.444444)" id="Path-6">
                            <path d="M114.547945,49.7200124 L114.547945,58.257956 L69.4938135,62.6944444 L3.96373614,62.6944444 L0,0 C11.7082151,6.8897963 22.305879,10.7958155 31.7929916,11.7180575 C46.0236605,13.1014205 51.9390457,25.6921855 62.5585344,31.8335608 C73.1780232,37.9749361 88.4462139,31.8335608 96.8949653,30.5474655 C102.527466,29.6900686 108.411793,36.0809176 114.547945,49.7200124 Z" opacity="0.5"></path>
                            <path d="M114.547945,64.1089012 L114.547945,72.6468449 L69.4938135,77.0833333 L3.96373614,77.0833333 L0,14.3888889 C11.7082151,21.2786852 22.305879,25.1847043 31.7929916,26.1069464 C46.0236605,27.4903094 51.9390457,40.0810744 62.5585344,46.2224497 C73.1780232,52.363825 88.4462139,46.2224497 96.8949653,44.9363544 C102.527466,44.0789575 108.411793,50.4698065 114.547945,64.1089012 Z" opacity="0.400000006"></path>
                            <path d="M115.561644,69.3905912 C109.6427,60.2233307 103.966669,55.9278421 98.5335482,56.5041252 C90.3838676,57.36855 75.6561438,61.4963596 65.4125662,57.36855 C55.1689885,53.2407403 49.4629976,44.778095 35.7360691,43.8482936 C26.5847835,43.2284261 16.3622582,40.6030689 5.06849315,35.9722222 L8.89192005,78.1111111 L72.1023487,78.1111111 L115.561644,75.129209 L115.561644,69.3905912 Z" opacity="0.300000012"></path>
                        </g>
                    </g>
                    <path d="M34.1961338,23.6388889 L21.3287671,51.3098828 L26.1355845,51.2308768 L28.7189718,44.9886062 L40.2620631,44.9886062 L43.0906745,51.3098828 L47.6849315,51.3888889 L34.1961338,23.6388889 Z M34.2474714,32.8888889 L38.5616438,42.1388889 L30.4520548,42.1388889 L34.2474714,32.8888889 Z" id="Shape" fill="#FFFFFF" fill-rule="nonzero" mask="url(#mask-3)" transform="translate(34.506849, 37.513889) rotate(-360.000000) translate(-34.506849, -37.513889) "></path>
                    <path d="M44.74,30.2725318 L47.0016596,30.2725318 L47.0016596,23.6149704 L45.1381795,23.6149704 L45.1381795,22.4682134 C45.6478518,22.3726498 46.0858449,22.2585062 46.4521719,22.125779 C46.8184989,21.9930518 47.1609298,21.8311271 47.479475,21.64 L48.8492125,21.64 L48.8492125,30.2725318 L50.8401101,30.2725318 L50.8401101,31.7696867 L44.74,31.7696867 L44.74,30.2725318 Z M52.7354445,30.7184928 C52.7354445,30.3574749 52.8495882,30.0601705 53.0778789,29.8265707 C53.3061696,29.5929709 53.5902015,29.4761727 53.9299831,29.4761727 C54.2697646,29.4761727 54.551142,29.5929709 54.7741236,29.8265707 C54.9971053,30.0601705 55.1085944,30.3574749 55.1085944,30.7184928 C55.1085944,31.0795107 54.9971053,31.3768151 54.7741236,31.6104149 C54.551142,31.8440147 54.2697646,31.9608129 53.9299831,31.9608129 C53.5902015,31.9608129 53.3061696,31.8440147 53.0778789,31.6104149 C52.8495882,31.3768151 52.7354445,31.0795107 52.7354445,30.7184928 Z M58.8196274,27.6923285 L56.4942591,23.9494412 L58.4692295,23.9494412 L59.3452244,25.4306689 C59.4620243,25.6430324 59.581477,25.8633562 59.7035859,26.0916469 C59.8256949,26.3199376 59.9451476,26.5402614 60.0619475,26.7526249 L60.1256562,26.7526249 C60.2212198,26.5402614 60.3220909,26.3199376 60.4282727,26.0916469 C60.5344544,25.8633562 60.6353255,25.6430324 60.7308891,25.4306689 L61.4794666,23.9494412 L63.374801,23.9494412 L61.0653599,27.8993819 L63.55,31.7696867 L61.5750296,31.7696867 L60.6193988,30.2247502 C60.4919807,29.9911504 60.3619101,29.7575541 60.2291829,29.5239543 C60.0964557,29.2903545 59.9610761,29.0620672 59.8230398,28.8390855 L59.7593311,28.8390855 C59.6425312,29.0620672 59.5283875,29.2877 59.4168967,29.5159907 C59.3054059,29.7442814 59.1912622,29.9805322 59.0744623,30.2247502 L58.2462489,31.7696867 L56.3349873,31.7696867 L58.8196274,27.6923285 Z" id="1.x" fill="#FFFFFF" mask="url(#mask-3)"></path>
                </g>
            </g>
        </g>
    </g>
</svg>