<?xml version="1.0" encoding="UTF-8"?>
<svg width="74px" height="74px" viewBox="0 0 74 74" version="1.1" xmlns="http://www.w3.org/2000/svg" xmlns:xlink="http://www.w3.org/1999/xlink">
    <!-- Generator: Sketch 51.1 (57501) - http://www.bohemiancoding.com/sketch -->
    <title>Angular Copy 8</title>
    <desc>Created with Sketch.</desc>
    <defs>
        <linearGradient x1="12.3813483%" y1="8.54625667%" x2="93.5909159%" y2="98.5559937%" id="linearGradient-1">
            <stop stop-color="#FF7B81" offset="0%"></stop>
            <stop stop-color="#DA3224" offset="100%"></stop>
        </linearGradient>
        <rect id="path-2" x="0" y="0" width="74" height="74" rx="6"></rect>
        <linearGradient x1="61.8390289%" y1="33.1096088%" x2="68.3090624%" y2="80.3496797%" id="linearGradient-4">
            <stop stop-color="#EDA2A5" offset="0%"></stop>
            <stop stop-color="#E64A42" offset="100%"></stop>
        </linearGradient>
    </defs>
    <g id="Page-1" stroke="none" stroke-width="1" fill="none" fill-rule="evenodd">
        <g id="Downloads-fusioncharts-suite-xt-final" transform="translate(-455.000000, -522.000000)">
            <g id="Group-8" transform="translate(443.000000, 522.000000)">
                <g id="Angular-Copy-8" transform="translate(12.000000, 0.000000)">
                    <mask id="mask-3" fill="white">
                        <use xlink:href="#path-2"></use>
                    </mask>
                    <g id="Mask">
                        <use fill="#FFFFFF" xlink:href="#path-2"></use>
                        <use fill="url(#linearGradient-1)" xlink:href="#path-2"></use>
                    </g>
                    <g id="Group" mask="url(#mask-3)" fill="url(#linearGradient-4)">
                        <g transform="translate(-17.232877, 16.444444)" id="Path-6">
                            <path d="M114.547945,49.7200124 L114.547945,58.257956 L69.4938135,62.6944444 L3.96373614,62.6944444 L0,0 C11.7082151,6.8897963 22.305879,10.7958155 31.7929916,11.7180575 C46.0236605,13.1014205 51.9390457,25.6921855 62.5585344,31.8335608 C73.1780232,37.9749361 88.4462139,31.8335608 96.8949653,30.5474655 C102.527466,29.6900686 108.411793,36.0809176 114.547945,49.7200124 Z" opacity="0.5"></path>
                            <path d="M114.547945,64.1089012 L114.547945,72.6468449 L69.4938135,77.0833333 L3.96373614,77.0833333 L0,14.3888889 C11.7082151,21.2786852 22.305879,25.1847043 31.7929916,26.1069464 C46.0236605,27.4903094 51.9390457,40.0810744 62.5585344,46.2224497 C73.1780232,52.363825 88.4462139,46.2224497 96.8949653,44.9363544 C102.527466,44.0789575 108.411793,50.4698065 114.547945,64.1089012 Z" opacity="0.400000006"></path>
                            <path d="M115.561644,69.3905912 C109.6427,60.2233307 103.966669,55.9278421 98.5335482,56.5041252 C90.3838676,57.36855 75.6561438,61.4963596 65.4125662,57.36855 C55.1689885,53.2407403 49.4629976,44.778095 35.7360691,43.8482936 C26.5847835,43.2284261 16.3622582,40.6030689 5.06849315,35.9722222 L8.89192005,78.1111111 L72.1023487,78.1111111 L115.561644,75.129209 L115.561644,69.3905912 Z" opacity="0.300000012"></path>
                        </g>
                    </g>
                    <path d="M34.1961338,23.6388889 L21.3287671,51.3098828 L26.1355845,51.2308768 L28.7189718,44.9886062 L40.2620631,44.9886062 L43.0906745,51.3098828 L47.6849315,51.3888889 L34.1961338,23.6388889 Z M34.2474714,32.8888889 L38.5616438,42.1388889 L30.4520548,42.1388889 L34.2474714,32.8888889 Z" id="Shape" fill="#FFFFFF" fill-rule="nonzero" mask="url(#mask-3)" transform="translate(34.506849, 37.513889) rotate(-360.000000) translate(-34.506849, -37.513889) "></path>
                    <path d="M41.4062391,30.3789796 C42.0771462,29.728403 42.6845114,29.1286616 43.2283528,28.5797376 C43.7721942,28.0308136 44.2347065,27.5225582 44.6159038,27.0549563 C44.997101,26.5873543 45.2893479,26.1502547 45.4926531,25.7436443 C45.6959583,25.3370339 45.7976093,24.9507598 45.7976093,24.5848105 C45.7976093,24.0663822 45.6603804,23.6572367 45.3859184,23.3573615 C45.1114564,23.0574864 44.7150172,22.907551 44.1965889,22.907551 C43.8204743,22.907551 43.4774019,23.0142846 43.1673615,23.2277551 C42.8573211,23.4412256 42.5701568,23.6953532 42.3058601,23.9901458 L41.33,23.0142857 C41.7772714,22.5365185 42.2372425,22.1680334 42.7099271,21.9088192 C43.1826117,21.6496051 43.754399,21.52 44.4253061,21.52 C44.8929081,21.52 45.31476,21.5911558 45.6908746,21.7334694 C46.0669892,21.875783 46.3871901,22.0765439 46.6514869,22.335758 C46.9157836,22.5949721 47.1216271,22.9075492 47.2690233,23.2734985 C47.4164196,23.6394479 47.4901166,24.0460522 47.4901166,24.4933236 C47.4901166,24.9202645 47.3960894,25.3548229 47.2080321,25.7970117 C47.0199748,26.2392005 46.7658471,26.6864652 46.4456414,27.1388192 C46.1254357,27.5911733 45.751868,28.056227 45.3249271,28.5339942 C44.8979862,29.0117614 44.4456389,29.5047691 43.9678717,30.0130321 C44.2220032,29.9927016 44.4964611,29.9698301 44.7912536,29.9444169 C45.0860462,29.9190038 45.350339,29.9062974 45.5841399,29.9062974 L47.9627988,29.9062974 L47.9627988,31.4005831 L41.4062391,31.4005831 L41.4062391,30.3789796 Z M49.6095627,30.3942274 C49.6095627,30.0486086 49.7188376,29.7639856 49.9373907,29.5403499 C50.1559438,29.3167141 50.4278604,29.204898 50.7531487,29.204898 C51.078437,29.204898 51.3478123,29.3167141 51.5612828,29.5403499 C51.7747533,29.7639856 51.8814869,30.0486086 51.8814869,30.3942274 C51.8814869,30.7398462 51.7747533,31.0244692 51.5612828,31.248105 C51.3478123,31.4717407 51.078437,31.5835569 50.7531487,31.5835569 C50.4278604,31.5835569 50.1559438,31.4717407 49.9373907,31.248105 C49.7188376,31.0244692 49.6095627,30.7398462 49.6095627,30.3942274 Z M55.4342274,27.4971429 L53.2080466,23.9139067 L55.0987755,23.9139067 L55.9374052,25.3319534 C56.0492231,25.5352585 56.1635806,25.7461845 56.280481,25.9647376 C56.3973815,26.1832907 56.511739,26.3942167 56.6235569,26.5975219 L56.6845481,26.5975219 C56.7760354,26.3942167 56.872604,26.1832907 56.9742566,25.9647376 C57.0759092,25.7461845 57.1724777,25.5352585 57.263965,25.3319534 L57.9806122,23.9139067 L59.795102,23.9139067 L57.5841691,27.6953644 L59.962828,31.4005831 L58.0720991,31.4005831 L57.1572303,29.9215452 C57.0352472,29.6979095 56.9107246,29.4742771 56.7836589,29.2506414 C56.6565931,29.0270057 56.526988,28.8084559 56.3948397,28.5949854 L56.3338484,28.5949854 C56.2220305,28.8084559 56.1127556,29.0244644 56.0060204,29.2430175 C55.8992852,29.4615706 55.7900103,29.6877442 55.6781924,29.9215452 L54.8853061,31.4005831 L53.0555685,31.4005831 L55.4342274,27.4971429 Z M63.4240816,27.0092128 L60.694723,27.0092128 L60.694723,25.7283965 L63.4240816,25.7283965 L63.4240816,22.8465598 L64.7506414,22.8465598 L64.7506414,25.7283965 L67.48,25.7283965 L67.48,27.0092128 L64.7506414,27.0092128 L64.7506414,29.8910496 L63.4240816,29.8910496 L63.4240816,27.0092128 Z" id="2.x+" fill="#FFFFFF" mask="url(#mask-3)"></path>
                </g>
            </g>
        </g>
    </g>
</svg>