<?xml version="1.0" encoding="UTF-8"?>
<svg width="74px" height="74px" viewBox="0 0 74 74" version="1.1" xmlns="http://www.w3.org/2000/svg" xmlns:xlink="http://www.w3.org/1999/xlink">
    <!-- Generator: Sketch 49.3 (51167) - http://www.bohemiancoding.com/sketch -->
    <title>.NET</title>
    <desc>Created with Sketch.</desc>
    <defs>
        <linearGradient x1="11.6412296%" y1="7.72593597%" x2="93.4506634%" y2="98.4005429%" id="linearGradient-1">
            <stop stop-color="#7ACBFB" offset="0%"></stop>
            <stop stop-color="#2C4FFC" offset="100%"></stop>
        </linearGradient>
        <rect id="path-2" x="0" y="0" width="74" height="74" rx="6"></rect>
        <linearGradient x1="71.8933532%" y1="32.7106631%" x2="75.4919097%" y2="72.5704176%" id="linearGradient-4">
            <stop stop-color="#79C9FB" offset="0%"></stop>
            <stop stop-color="#4D84FB" offset="100%"></stop>
        </linearGradient>
        <linearGradient x1="49.4438405%" y1="205.564966%" x2="50.6310303%" y2="-19.8362753%" id="linearGradient-5">
            <stop stop-color="#97D6EE" offset="0%"></stop>
            <stop stop-color="#55C1EA" offset="70.329303%"></stop>
            <stop stop-color="#55C1EA" offset="100%"></stop>
        </linearGradient>
        <linearGradient x1="46.6444576%" y1="6.30038251%" x2="52.0068643%" y2="116.770678%" id="linearGradient-6">
            <stop stop-color="#7ACCEC" offset="0%"></stop>
            <stop stop-color="#3FB7ED" offset="100%"></stop>
        </linearGradient>
    </defs>
    <g id="For-other-screens" stroke="none" stroke-width="1" fill="none" fill-rule="evenodd">
        <g id="Framework-Artboard" transform="translate(-283.000000, -179.000000)">
            <g id=".NET" transform="translate(283.000000, 179.000000)">
                <mask id="mask-3" fill="white">
                    <use xlink:href="#path-2"></use>
                </mask>
                <g id="Mask">
                    <use fill="#FFFFFF" xlink:href="#path-2"></use>
                    <use fill="url(#linearGradient-1)" xlink:href="#path-2"></use>
                </g>
                <path d="M-2.66888744,65.8783299 C-5.41009028,56.5145154 -5.99018282,49.7156035 -4.40916505,45.4815941 C-2.03763839,39.1305799 9.44641736,48.7471493 17.6974122,43.8495003 C25.9484069,38.9518512 30.900499,33.5225693 41.9572624,32.4193593 C49.3284381,31.683886 60.3190566,26.8774329 74.929118,18 L74.929118,73.3420316 L25.4370618,78 L2.98040939,73.3420316 L-2.66888744,65.8783299 Z" id="Path-6" fill="url(#linearGradient-4)" opacity="0.5" mask="url(#mask-3)"></path>
                <path d="M-2.66888744,71.4678855 C-5.41009028,63.7892231 -5.99018282,58.2138723 -4.40916505,54.7418333 C-2.03763839,49.5337748 9.44641736,57.4197053 17.6974122,53.4034581 C25.9484069,49.3872109 30.900499,44.9350057 41.9572624,44.0303341 C49.3284381,43.4272197 60.3190566,39.4857564 74.929118,32.2059442 L74.929118,77.5883876 L25.4370618,81.4080881 L2.98040939,77.5883876 L-2.66888744,71.4678855 Z" id="Path-6" fill="url(#linearGradient-4)" opacity="0.400000006" mask="url(#mask-3)"></path>
                <path d="M-2.66888744,82.4678855 C-5.41009028,74.7892231 -5.99018282,69.2138723 -4.40916505,65.7418333 C-2.03763839,60.5337748 9.44641736,68.4197053 17.6974122,64.4034581 C25.9484069,60.3872109 30.900499,55.9350057 41.9572624,55.0303341 C49.3284381,54.4272197 60.3190566,50.4857564 74.929118,43.2059442 L74.929118,88.5883876 L25.4370618,92.4080881 L2.98040939,88.5883876 L-2.66888744,82.4678855 Z" id="Path-6" fill="url(#linearGradient-4)" opacity="0.300000012" mask="url(#mask-3)"></path>
                <g id="Logos@1.5x" mask="url(#mask-3)">
                    <g transform="translate(18.916781, 26.920551)">
                        <path d="M14.5565471,4.39018829 C16.063989,9.03714232 16.6350894,17.3268858 21.0430992,17.3268858 C21.3787584,17.3268858 21.717789,17.293788 22.0581654,17.2285326 C18.0510679,16.2866818 17.5761613,8.08711106 15.1310055,3.84087718 C14.9392839,4.01652133 14.7489216,4.19960713 14.5565471,4.39018829" id="path12339" fill="#FFFFFF" fill-rule="nonzero"></path>
                        <path d="M15.1310055,3.84087718 C17.5761613,8.08711106 18.0510679,16.2866818 22.0581654,17.2285326 C22.3729708,17.1702218 22.6884558,17.082064 23.0046072,16.9708557 C19.4078429,15.1942519 18.4136305,7.23204793 15.6368529,3.39875788 C15.4686768,3.5398535 15.2998478,3.68767882 15.1310055,3.84087718" id="path12367" fill="#FFFFFF" fill-rule="nonzero"></path>
                        <path d="M18.6540687,1.3155961 C18.3190756,1.3155961 17.9793522,1.34868049 17.6383362,1.4139493 C16.7463674,1.58346822 15.8403139,1.97063492 14.926825,2.55650947 C15.1763641,2.80468946 15.4137908,3.08878811 15.6371195,3.39870414 C16.5660921,2.62160366 17.4890018,2.0472811 18.408567,1.7021046 C18.7536205,1.57327291 19.0973814,1.47633012 19.4424349,1.41259262 C19.1935486,1.34878795 18.9312041,1.3155961 18.6540687,1.3155961" id="path12379" fill="#FFFFFF" fill-rule="nonzero"></path>
                        <path d="M25.812339,15.3332251 C26.180285,15.0382865 26.5489105,14.7120902 26.9182024,14.3561273 C25.3865354,9.73081313 24.8383141,1.32243327 20.3993503,1.32243327 C20.0818531,1.32243327 19.7616643,1.35226699 19.4421418,1.41193442 C23.4855633,2.42571662 24.0035233,11.2938393 25.812339,15.3332251" id="path12459" fill="#FFFFFF" fill-rule="nonzero"></path>
                        <path d="M25.7348135,16.3158169 C25.5612675,16.1490114 25.3964893,15.9659256 25.2343494,15.7706297 C24.4876775,16.3036068 23.7437105,16.7077522 23.0044739,16.9708557 C23.2674581,17.1003994 23.5432476,17.1966975 23.8358936,17.2563649 C24.0625535,17.3030161 24.2973417,17.3268858 24.5441893,17.3268858 C25.3736101,17.3268858 26.0294448,17.2278878 26.5877533,16.9580008 C26.2803698,16.7904834 25.998504,16.5734938 25.7348135,16.3158169" id="path12525" fill="#FFFFFF" fill-rule="nonzero"></path>
                        <path d="M18.4082472,1.70287025 C22.0299161,3.61237589 22.3447216,12.2594523 25.2345094,15.7706297 C25.428243,15.6329996 25.6199512,15.4871892 25.8116594,15.3332251 C24.0028571,11.2938393 23.4855633,2.4250047 19.4428213,1.41193442 C19.0977411,1.47702861 18.7533273,1.57338037 18.4082472,1.70287025" id="path12553" fill="#FFFFFF" fill-rule="nonzero"></path>
                        <path d="M15.6368529,3.39875788 C18.4136305,7.23204793 19.4078429,15.1942519 23.0046072,16.9708557 C23.7438704,16.7077522 24.4878507,16.3036068 25.2345094,15.7706297 C22.3447216,12.2594523 22.0299161,3.61237589 18.4082472,1.70287025 C17.4887087,2.04733483 16.5658123,2.62165739 15.6368529,3.39875788" id="path12581" fill="#FFFFFF" fill-rule="nonzero"></path>
                        <path d="M12.7799515,4.27826821 C12.3447271,5.27035682 11.9000951,6.57429577 11.3626272,8.27632203 C12.4315002,6.75803978 13.4970151,5.45001732 14.5564671,4.39018829 C14.410504,3.93787369 14.2537742,3.52085985 14.0849318,3.1492212 C13.6517328,3.4835442 13.2151626,3.85991111 12.7799515,4.27826821" id="path12651" fill="#FFFFFF" fill-rule="nonzero"></path>
                        <path d="M14.4708667,2.86317483 C14.3430523,2.95538936 14.2145984,3.04967249 14.0854515,3.14932866 C14.2542672,3.52092701 14.4103174,3.93798115 14.5563206,4.39024203 C14.7486551,4.20037279 14.9396837,4.01662879 15.1307257,3.84098463 C14.9255857,3.48565311 14.7076404,3.15745536 14.4708667,2.86317483" id="path12655" fill="#FFFFFF" fill-rule="nonzero"></path>
                        <path d="M14.926825,2.55650947 C14.7747989,2.65350599 14.6234791,2.7558621 14.4707601,2.8630002 C14.7075338,3.15729417 14.9254792,3.48549192 15.1313253,3.84152193 C15.3001809,3.68757136 15.4689966,3.53908784 15.6371728,3.39870414 C15.413844,3.08884185 15.1764174,2.80468946 14.926825,2.55650947" id="path12659" fill="#FFFFFF" fill-rule="nonzero"></path>
                        <path d="M39.6296815,0.961728727 C37.5813738,8.92457746 33.3031905,15.3203702 29.7165134,16.9328819 C29.7165134,16.9328819 29.7097176,16.9328819 29.7097176,16.9328819 C29.6444778,16.9627157 29.5798911,16.9898494 29.5159972,17.0162578 C29.5072027,17.0216308 29.4992076,17.0223025 29.4924252,17.0255263 C29.4735834,17.0331829 29.4561009,17.0390932 29.4372592,17.0466826 C29.4284647,17.0520556 29.4204696,17.0538019 29.412408,17.0570256 C29.3821599,17.0679061 29.3525383,17.0771073 29.3229432,17.0890355 C29.3101511,17.0944084 29.2980785,17.0977666 29.2859128,17.102065 C29.2724543,17.1074381 29.2569573,17.1124081 29.2415135,17.11672 C29.2280685,17.122093 29.2139705,17.1259884 29.1984602,17.1318987 C29.185668,17.1372718 29.1722096,17.1395554 29.1601504,17.1449283 C29.1338867,17.1525849 29.1097282,17.1590325 29.0834645,17.1682472 C29.0726712,17.1682472 29.0626373,17.1741576 29.0511778,17.1769784 C29.0350278,17.1823514 29.016839,17.1862469 28.9993565,17.1910826 C28.9872306,17.1964556 28.9771835,17.1982019 28.9643781,17.2008884 C28.9461893,17.2062614 28.9260017,17.2112315 28.9078664,17.2155433 C28.8836547,17.2209163 28.8621346,17.2258864 28.8392554,17.2307356 C29.0013686,17.2911015 29.1702109,17.3215934 29.3525116,17.3215934 C32.7535302,17.3215934 36.1827446,11.1774058 41.8567455,0.959861601 L39.6288687,0.959861601 L39.6296815,0.961728727 Z" id="path12741" fill="#FFFFFF" fill-rule="nonzero"></path>
                        <path d="M10.6240436,1.63874321 C10.6261756,1.63874321 10.6288406,1.63337018 10.6301732,1.63337018 C10.6328382,1.63337018 10.636969,1.63337018 10.6383014,1.62799715 C10.6383014,1.62799715 10.6409665,1.62799715 10.6425655,1.62799715 C10.6613938,1.62154953 10.6788897,1.61389297 10.6977181,1.60684087 C10.7025151,1.60684087 10.7050468,1.60684087 10.7085114,1.60146785 C10.7133085,1.60146785 10.7179722,1.59609483 10.7226627,1.5954232 C10.7428502,1.58897557 10.7630244,1.58131901 10.7818661,1.57426692 C10.7818661,1.57426692 10.7839981,1.57426692 10.7850641,1.57426692 C10.8301562,1.56071346 10.8718372,1.5438959 10.9155568,1.52816637 C10.9216863,1.52816637 10.9276827,1.52279334 10.9350381,1.52279334 C10.9532268,1.51688302 10.9720686,1.51030106 10.9908702,1.50597578 C10.9996648,1.50060275 11.0083661,1.50060275 11.0164278,1.49778191 C11.0359091,1.49187159 11.0548041,1.48528964 11.0729395,1.48096435 C11.0810679,1.48096435 11.0884366,1.47559132 11.0944596,1.47505403 C11.1570209,1.45769916 11.2189027,1.4414189 11.281464,1.42622667 C11.2902586,1.42622667 11.297614,1.42085365 11.3070216,1.42031634 C11.3251571,1.41494332 11.3420133,1.41212248 11.3615079,1.40943597 C11.3696363,1.40406294 11.3790038,1.40406294 11.3884246,1.4012421 C11.4065601,1.39586908 11.4240426,1.39533178 11.4435772,1.39089904 C11.4483742,1.39089904 11.450906,1.39089904 11.4563693,1.39089904 C11.4940394,1.38324248 11.532389,1.37679485 11.5700591,1.36974275 C11.5768549,1.36974275 11.5855029,1.36974275 11.5929249,1.36974275 C11.6110604,1.36436973 11.6272104,1.36383242 11.6453992,1.36047428 C11.655393,1.36047428 11.6655734,1.35510126 11.6749942,1.35510126 C11.6917839,1.35510126 11.7086267,1.34972824 11.7254164,1.3474447 C11.734211,1.3474447 11.7428989,1.3474447 11.753026,1.34207168 C11.7926815,1.33669865 11.8337362,1.33454944 11.8754437,1.3311913 C11.7577298,1.31977363 11.6366446,1.31219766 11.5135473,1.31219766 C7.68336455,1.31219766 2.40626521,8.47625234 0.0290473855,17.7539473 C0.0290473855,17.7539473 0.202596152,17.7539473 0.48713634,17.7539473 C1.24792627,16.3862573 1.93135998,15.0924465 2.55627119,13.877955 C4.2211305,7.30655839 7.61206195,2.82499949 10.6242834,1.63768203" id="path12803" fill="#FFFFFF" fill-rule="nonzero"></path>
                        <path d="M12.7799914,4.27826821 C13.2152292,3.85991111 13.6517728,3.4835442 14.0849718,3.14927493 C13.9861129,2.93092866 13.8838694,2.72884922 13.7741905,2.54370824 C13.4237537,2.97226065 13.1035649,3.53779831 12.7799914,4.27826821" id="path12807" fill="#FFFFFF" fill-rule="nonzero"></path>
                        <path d="M13.0946371,1.69305105 C13.3448691,1.90461388 13.5688374,2.19553627 13.7740306,2.54408435 C13.8386041,2.46406659 13.9038837,2.39013377 13.9718017,2.32096953 C13.6872842,2.0531377 13.3798475,1.83343474 13.0462003,1.66798589 C13.0596587,1.67550812 13.0731037,1.68155278 13.087095,1.68751683 C13.087095,1.68751683 13.092425,1.69288986 13.0946904,1.69288986" id="path12811" fill="#FFFFFF" fill-rule="nonzero"></path>
                        <path d="M2.55609929,13.8787475 C6.04860398,7.09437763 7.70337359,2.80067312 10.6241102,1.63842083 C7.61256298,2.8264905 4.22095861,7.30799566 2.55609929,13.8787475" id="path12831" fill="#FFFFFF" fill-rule="nonzero"></path>
                        <path d="M13.9715752,2.32079489 C13.9036705,2.39067108 13.8390971,2.4639054 13.7738174,2.54392316 C13.883483,2.72901041 13.9856865,2.93043165 14.0852916,3.14943612 C14.2144385,3.04977996 14.3428925,2.95549681 14.4707068,2.86328229 C14.3126578,2.66662959 14.1458275,2.48424229 13.9715752,2.32079489" id="path12843" fill="#FFFFFF" fill-rule="nonzero"></path>
                        <path d="M4.14158365,17.7242478 C4.12005829,17.7296208 4.09853293,17.7296208 4.07835206,17.7319044 C4.07162288,17.7319044 4.07027705,17.7319044 4.06623954,17.7319044 C4.04805078,17.7319044 4.02921575,17.7372774 4.01242612,17.7372774 C4.01242612,17.7372774 4.00569695,17.7372774 4.00365821,17.7372774 C3.95996121,17.7426504 3.91688382,17.7426504 3.87517759,17.7460086 L3.86172457,17.7460086 C7.39660845,17.6462986 9.01235943,15.8621994 9.81418398,13.2745913 C10.4236207,11.3128867 10.9240982,9.66034595 11.3626805,8.27366248 C9.88212873,10.3744074 8.39484762,12.8785859 6.89950493,15.6838822 C6.17840115,17.0360037 5.08194928,17.6008294 4.14155567,17.7215881" id="path12923" fill="#FFFFFF" fill-rule="nonzero"></path>
                        <path d="M4.14158365,17.7228911 C5.08197727,17.6021324 6.17843048,17.0379648 6.89953288,15.6851852 C8.39487427,12.8805874 9.88282158,10.3757104 11.3620276,8.27496543 C11.9001617,6.57224058 12.3441274,5.26900014 12.7800182,4.27691151 C9.83170654,7.10592963 6.87195261,11.8099048 4.14158365,17.7215345" id="path12949" fill="#FFFFFF" fill-rule="nonzero"></path>
                        <path d="M2.55593273,13.8789087 C1.93104817,15.0934002 1.24761579,16.387211 0.486797883,17.7549009 C0.815761293,17.7549009 1.29201102,17.7549009 1.81938517,17.7549009 C1.99562561,16.3966407 2.24585899,15.1014866 2.55593273,13.8795535" id="path12961" fill="#FFFFFF" fill-rule="nonzero"></path>
                        <path d="M11.7528528,1.34553728 C11.7420594,1.34553728 11.734011,1.3509103 11.7246036,1.3509103 C11.7084536,1.35628333 11.6916107,1.35628333 11.674821,1.35802956 C11.6648271,1.35802956 11.6553397,1.35802956 11.645226,1.36340258 C11.6270372,1.36877561 11.6102476,1.36931291 11.5927517,1.37267105 C11.5846234,1.37267105 11.576615,1.37267105 11.5698859,1.37804407 C11.5315095,1.3844917 11.4938662,1.39161096 11.456196,1.39811232 C11.4495336,1.39811232 11.4474015,1.39811232 11.443404,1.39811232 C11.4239227,1.40348534 11.4063869,1.40630618 11.3882514,1.40899269 C11.3787906,1.41436571 11.3694097,1.41436571 11.3606418,1.41651493 C11.3425063,1.42188795 11.3243176,1.42417149 11.306835,1.4273953 C11.2973742,1.43276833 11.2900454,1.43276833 11.2812642,1.43330563 C11.2187162,1.44849786 11.1568211,1.46477811 11.0942597,1.48213298 C11.0875971,1.48213298 11.0808147,1.48750601 11.0727397,1.48858061 C11.0539114,1.49395363 11.0357226,1.49946099 11.0162412,1.50539818 C11.0081129,1.5107712 10.9987454,1.5107712 10.9906704,1.51292041 C10.9718421,1.51829344 10.9530003,1.52380078 10.9348383,1.52973798 C10.9275094,1.52973798 10.9213931,1.535111 10.914664,1.535111 C10.8716106,1.55137784 10.8292368,1.56765809 10.7848376,1.58122498 C10.7848376,1.58122498 10.7848376,1.58122498 10.7848376,1.58122498 C10.7660092,1.58713531 10.7458217,1.59477844 10.7256474,1.60183053 C10.7175192,1.60720355 10.7101504,1.60841249 10.7007828,1.6121736 C10.6819411,1.61808393 10.6631128,1.62574049 10.645617,1.63279258 C10.6389544,1.6381656 10.6321719,1.6387029 10.6274814,1.64152374 C7.70675145,2.80377604 6.0519819,7.09748055 2.5594772,13.8818505 C2.24937549,15.1037836 1.99846918,16.3989376 1.82290299,17.7571441 L2.00990478,17.7571441 C2.53660601,17.7571441 2.68526616,17.7517711 3.29134234,17.7517711 L3.32228456,17.7517711 L3.41242219,17.7517711 L3.44336574,17.7517711 L3.45213366,17.7517711 L3.48307587,17.7517711 L3.50056506,17.7517711 L3.51267758,17.7517711 L3.53689328,17.7517711 L3.6122334,17.7517711 L3.68757217,17.7517711 L3.75080244,17.7517711 L3.7675934,17.7517711 C3.80391762,17.7517711 3.84091343,17.7517711 3.87858349,17.7517711 C3.92028839,17.7463981 3.96334045,17.7463981 4.00706411,17.7430399 C4.00706411,17.7430399 4.01379328,17.7430399 4.01513911,17.7430399 C4.03332788,17.7430399 4.05146334,17.7376669 4.06895253,17.7376669 C4.07568171,17.7376669 4.07632132,17.7376669 4.08170466,17.7376669 C4.10118461,17.7376669 4.12340955,17.7322939 4.14493491,17.7300104 C6.87530523,11.8183808 9.8350511,7.11440557 12.7833627,4.28538746 C13.107589,3.54491757 13.4271116,2.97937991 13.7769088,2.55152598 C13.5724085,2.20299134 13.3484136,1.91141076 13.0981816,1.6997942 C13.0981816,1.6997942 13.0913857,1.6997942 13.0908527,1.69442117 C13.0767015,1.68851084 13.0633097,1.68139159 13.0491585,1.67435293 C13.0349939,1.66669637 13.0228947,1.66078604 13.0081438,1.65319664 C12.9953517,1.64782362 12.9805475,1.64070436 12.9677821,1.6336657 C12.9502996,1.62829267 12.9361483,1.62063612 12.9207045,1.61358402 C12.9079124,1.608211 12.8964795,1.60270365 12.8836741,1.59731719 C12.8574103,1.58697412 12.8312131,1.5761609 12.8063218,1.5647701 C12.7948623,1.55939707 12.7841489,1.55657624 12.7733289,1.55227782 C12.7551934,1.54569586 12.734313,1.53708559 12.7154847,1.52894546 C12.7060238,1.52357243 12.6952972,1.52249783 12.6845438,1.51860239 C12.6569874,1.50933392 12.6300574,1.49962218 12.6044865,1.49093131 C12.597824,1.49093131 12.597824,1.49093131 12.597824,1.49093131 C12.5668698,1.48058824 12.5366085,1.47303914 12.5049881,1.46434828 C12.4976593,1.45897525 12.4915297,1.45897525 12.4841609,1.45790065 C12.4565513,1.45024409 12.4323396,1.44270842 12.4061291,1.43565632 C12.3994666,1.43565632 12.3933371,1.4302833 12.3879937,1.4302833 C12.3247661,1.41346573 12.259513,1.39991228 12.1935938,1.38743343 C12.186798,1.38743343 12.1801488,1.38206041 12.1734196,1.38206041 C12.1451704,1.37668739 12.1175874,1.37171734 12.0893382,1.36849353 C12.0825424,1.3631205 12.0785449,1.3631205 12.0725486,1.3631205 C12.038916,1.35774747 12.0059497,1.35385203 11.9729835,1.35009091 C11.9663209,1.35009091 11.9615239,1.35009091 11.9555009,1.35009091 C11.9285976,1.34471789 11.9037329,1.34418059 11.878815,1.34135975 C11.8364145,1.34673278 11.7960794,1.34901631 11.7563839,1.35277743" id="path12981" fill="#FFFFFF" fill-rule="nonzero"></path>
                        <path d="M31.6289184,5.36999956 C30.9569203,7.53990882 30.4127231,9.3300796 29.9391758,10.8029061 C31.7829565,8.24513166 33.5991677,5.02753643 35.3286324,1.31434687 C33.3112655,1.95305169 32.2349973,3.41507844 31.6289184,5.36999956" id="path13003" fill="#FFFFFF" fill-rule="nonzero"></path>
                        <path d="M29.9976863,16.7972668 C29.9035178,16.8455434 29.8093494,16.8914962 29.7165134,16.9328819 C33.3031905,15.3203702 37.5813738,8.92457746 39.6296815,0.961728727 L39.2146179,0.961728727 C34.508619,9.43586103 32.9951142,15.1088074 29.9976863,16.7972668" id="path13093" fill="#FFFFFF" fill-rule="nonzero"></path>
                        <path d="M27.6556401,16.0853143 C28.4359312,15.1251414 29.0715786,13.4929913 29.9393756,10.8029598 C28.9383941,12.1889851 27.9307901,13.3804264 26.9224264,14.352111 C26.9224264,14.357484 26.9224264,14.357484 26.9170964,14.3608421 C27.1370938,15.0253778 27.3785447,15.611897 27.6536947,16.0852067" id="path13097" fill="#FFFFFF" fill-rule="nonzero"></path>
                        <path d="M27.6556401,16.0853143 C27.389911,16.4121687 27.108778,16.6610472 26.7959579,16.8454897 C26.727347,16.8856396 26.6580964,16.9234522 26.5874334,16.9580545 C26.9177493,17.1377285 27.2782466,17.2577753 27.6818372,17.3058907 C27.7409873,17.3118011 27.7995378,17.3173084 27.86078,17.3216202 L27.8715734,17.3216202 C27.8990231,17.3216202 27.9280851,17.3216202 27.9576801,17.3269932 L27.9695395,17.3269932 C27.9991478,17.3269932 28.0287962,17.3269932 28.057685,17.3269932 C28.0894387,17.3269932 28.1209259,17.3269932 28.1525597,17.3269932 C28.1628201,17.3269932 28.1724807,17.3269932 28.1821681,17.3269932 C28.2036881,17.3269932 28.2268205,17.3269932 28.2494332,17.3269932 C28.2602265,17.3269932 28.2714862,17.3269932 28.2822529,17.3216202 C28.3032399,17.3216202 28.3253063,17.3216202 28.3468263,17.3162472 C28.3521564,17.3162472 28.3521564,17.3162472 28.3544217,17.3162472 C28.3630829,17.3162472 28.3705583,17.3162472 28.3786333,17.3162472 C28.4006997,17.3162472 28.4249114,17.3108742 28.4485901,17.3085907 C28.4485901,17.3085907 28.4539202,17.3085907 28.4539202,17.3085907 C28.4609825,17.3085907 28.4684446,17.3032176 28.4754402,17.3032176 C28.5001982,17.2978446 28.5260356,17.2955611 28.5501407,17.2917999 C28.5582691,17.2917999 28.5641321,17.2917999 28.5722071,17.2917999 C28.5996435,17.286427 28.6280126,17.2830688 28.6562618,17.2776958 L28.6615919,17.2776958 C28.6669219,17.2776958 28.6674549,17.2776958 28.6697202,17.2776958 C28.7262319,17.2668154 28.7813845,17.2560022 28.83719,17.241898 C28.3743959,17.071009 27.986942,16.6682202 27.6532949,16.0945558" id="path13101" fill="#FFFFFF" fill-rule="nonzero"></path>
                        <path d="M21.0431792,17.3269932 C21.378865,17.3269932 21.7178955,17.2939088 22.0582586,17.2279953 C22.3730774,17.170383 22.6885358,17.0821714 23.0046871,16.9709633 C23.2677246,17.1005069 23.5435142,17.1968048 23.8354538,17.2564723 C24.0621271,17.3031236 24.297555,17.3269932 24.5444558,17.3269932 L21.0431792,17.3269932 Z" id="path13105" fill="#FFFFFF" fill-rule="nonzero"></path>
                        <path d="M24.5445091,17.3269932 C25.373237,17.3269932 26.0297647,17.2279953 26.5874334,16.9581083 C26.917696,17.1377822 27.2782466,17.257829 27.6818372,17.3059982 C27.7410406,17.3119085 27.7995911,17.3174159 27.86078,17.3217277 L27.8715734,17.3217277 C27.8990231,17.3217277 27.9280851,17.3217277 27.9576801,17.3271007 L27.9700724,17.3271007 C27.9996675,17.3271007 28.0292626,17.3271007 28.058218,17.3271007 L24.5421372,17.3271007 L24.5445091,17.3269932 Z" id="path13109" fill="#FFFFFF" fill-rule="nonzero"></path>
                        <path d="M26.9192551,14.3609496 C26.9192551,14.3609496 26.9192551,14.3555765 26.9192551,14.3555765 C26.5499766,14.7115529 26.181351,15.0377492 25.8133784,15.3326879 C25.6209906,15.4866385 25.429309,15.6324086 25.2355887,15.7700923 C25.3976752,15.9653749 25.5625067,16.1484607 25.7360528,16.3152797 C25.9997432,16.5729028 26.2815558,16.789946 26.5889925,16.9574098 C26.6589492,16.9226866 26.728906,16.8848202 26.796824,16.844845 C27.1102837,16.6604025 27.3914699,16.4115643 27.6571991,16.0847232 C27.3820491,15.6114135 27.140585,15.0248271 26.9206009,14.3603048" id="path13117" fill="#FFFFFF" fill-rule="nonzero"></path>
                        <path d="M37.9002301,0.961728727 L36.1553216,0.961728727 C36.0967711,0.961728727 36.0389135,0.961728727 35.9817622,0.961728727 C35.9259034,0.961728727 35.8720966,0.961728727 35.8176369,0.961728727 L35.8112409,0.961728727 C35.6982306,0.967101751 35.5886184,0.970997194 35.4802854,0.97800899 C35.4291703,1.0885724 35.376696,1.19912237 35.3262205,1.31033054 C33.5968091,5.02352009 31.780598,8.24111537 29.9368173,10.7988898 C29.0697396,13.4888674 28.4333995,15.1210713 27.6530949,16.0812576 C27.9867421,16.6549219 28.3748757,17.0583555 28.8363239,17.2292445 C28.8497822,17.2238715 28.8605356,17.2238715 28.8726481,17.2210506 C28.8726481,17.2210506 28.8793106,17.2210506 28.8801102,17.2210506 C28.8882384,17.2210506 28.8968998,17.2156776 28.905681,17.2156776 C28.9245094,17.2103046 28.9446969,17.2069465 28.9635252,17.2010361 C28.9756511,17.1956631 28.9856982,17.1951258 28.9978641,17.1912303 C29.0153466,17.1858574 29.0334821,17.1819619 29.0496321,17.1776635 C29.0604254,17.1722905 29.0711521,17.1705442 29.0819188,17.1683951 C29.1088222,17.1596638 29.1330338,17.1532027 29.1586047,17.1450627 C29.1707305,17.1396896 29.1835226,17.1352569 29.1969677,17.1320331 C29.2117719,17.12666 29.2265628,17.1227646 29.2400211,17.1163036 C29.2555182,17.1109305 29.270962,17.1081097 29.2844204,17.1021994 C29.2965462,17.0968263 29.309285,17.0934682 29.3207445,17.0886324 C29.3509792,17.0777521 29.3806142,17.0685642 29.4108755,17.0566227 C29.4190039,17.0566227 29.4270256,17.0491004 29.4357935,17.0473542 C29.4539289,17.0396977 29.4727706,17.0337874 29.4909594,17.0256472 C29.4976219,17.0202742 29.5057503,17.0197369 29.5144648,17.016916 C29.5777058,16.990333 29.6429455,16.9632127 29.7081984,16.9335402 C29.7081984,16.9335402 29.7149943,16.9335402 29.7149943,16.9335402 C29.807817,16.8923156 29.9019987,16.8460404 29.9955009,16.797925 C32.9935952,15.1094656 34.5071267,9.43651918 39.2131256,0.962386922 L37.8987244,0.962386922 L37.9002301,0.961728727 Z" id="path13139" fill="#FFFFFF" fill-rule="nonzero"></path>
                        <path d="M11.875417,1.33409274 C11.8828791,1.33409274 11.8895683,1.33409274 11.8969371,1.33946576 C11.9150725,1.33946576 11.9332613,1.33946576 11.9514234,1.34537609 C11.9582192,1.34537609 11.9642155,1.34537609 11.9696122,1.34537609 C12.0025518,1.35074911 12.0355315,1.35356995 12.069164,1.35840567 C12.0752936,1.35840567 12.0806236,1.35840567 12.0859536,1.3637787 C12.1135099,1.36915172 12.1417858,1.37358446 12.170035,1.37788289 C12.1761646,1.37788289 12.1841996,1.38325591 12.1909155,1.38325591 C12.2555022,1.39628549 12.3214215,1.40983894 12.3846491,1.42665651 C12.3906454,1.42665651 12.3967749,1.43202953 12.4021449,1.43202953 C12.4290483,1.43847716 12.45326,1.44667103 12.4801634,1.45426042 C12.4882917,1.45426042 12.4942613,1.45963344 12.5016968,1.46084238 C12.5333305,1.46903624 12.5629123,1.47712264 12.5938532,1.48742542 C12.5951857,1.48742542 12.5970511,1.48742542 12.6006489,1.49279844 C12.6268461,1.50085798 12.6537628,1.51124135 12.6813591,1.52045608 C12.6921524,1.5258291 12.7021862,1.52811264 12.7122999,1.53079915 C12.7311417,1.53899302 12.7520221,1.54706598 12.7701576,1.55466881 C12.7809509,1.55466881 12.7916776,1.56219105 12.8030839,1.56608649 C12.8279485,1.57750416 12.8542123,1.58778007 12.8797698,1.59863358 C12.8932282,1.6040066 12.9046344,1.61005126 12.9174399,1.61490041 C12.932244,1.62255697 12.9476878,1.62955534 12.9638379,1.63498209 C12.9772828,1.64142972 12.9920871,1.64853555 13.0048392,1.6544996 C13.0189904,1.66215616 13.0323955,1.66806648 13.0458939,1.67565588 C13.379541,1.84111817 13.6869511,2.06151962 13.9714952,2.32869324 C14.0764304,2.21748508 14.1860693,2.11777518 14.2997591,2.02827402 C13.6775302,1.58344135 12.9725792,1.32983461 12.1593216,1.32983461 C12.0651398,1.32983461 11.9709714,1.33520764 11.8754571,1.34232689" id="path13231" fill="#FFFFFF" fill-rule="nonzero"></path>
                        <path d="M13.9715886,2.32079489 C14.1458142,2.48418856 14.3126311,2.66662959 14.4707068,2.86328229 C14.6233991,2.75614419 14.7747589,2.65306272 14.926785,2.55677812 C14.727668,2.35605537 14.5177977,2.17568295 14.2991728,2.02037568 C14.1854964,2.10923207 14.0765237,2.20958673 13.9715886,2.32079489" id="path13235" fill="#FFFFFF" fill-rule="nonzero"></path>
                        <g id="g13243" stroke-width="1" fill="none" fill-rule="evenodd" transform="translate(14.236893, 1.583033) scale(-1, 1) rotate(-180.000000) translate(-14.236893, -1.583033) translate(11.236893, 0.583033)">
                            <path d="M0.638364279,1.24905143 C0.733883485,1.25718857 0.828057358,1.26057905 0.922231223,1.26057905 C1.73548983,1.26057905 2.44044849,1.00697142 3.06266867,0.562819047 C3.71919506,1.08495238 4.51294622,1.26736 5.61545312,1.26736 L0.276467566,1.26736 C0.399566262,1.26736 0.519974277,1.25990095 0.638364279,1.24905143" id="path13245" fill="#FFFFFF" fill-rule="nonzero"></path>
                        </g>
                        <g id="g13253" stroke-width="1" fill="none" fill-rule="evenodd" transform="translate(16.427575, 1.583033) scale(-1, 1) rotate(-180.000000) translate(-16.427575, -1.583033) translate(13.927575, 0.583033)">
                            <path d="M2.92477122,1.26736 C1.82226432,1.26736 1.02851316,1.08495238 0.371986773,0.562819047 C0.589932007,0.407535237 0.799805195,0.227161905 0.99891565,0.0264457143 C1.91307483,0.612320001 2.8184893,1.00019048 3.71112301,1.16971428 C4.05149427,1.23413334 4.39119286,1.26736 4.72618276,1.26736 L2.92477122,1.26736 Z" id="path13255" fill="#FFFFFF" fill-rule="nonzero"></path>
                        </g>
                        <path d="M29.9391758,10.8042628 C30.4134028,9.3300796 30.9562407,7.5406207 31.6295846,5.36999956 C32.236343,3.41437995 33.3105993,1.95240692 35.3279261,1.31434687 C35.3812132,1.20514015 35.4315288,1.0925753 35.4833502,0.982025326 C32.1946355,1.18073319 30.6575852,2.867124 29.8840099,5.36458624 C28.5312724,9.72472822 27.7119519,12.5510329 26.9229195,14.3520572 C27.9305769,13.3810175 28.9382342,12.1889314 29.9391758,10.8042628" id="path13333" fill="#FFFFFF" fill-rule="nonzero"></path>
                    </g>
                </g>
            </g>
        </g>
    </g>
</svg>