<?xml version="1.0" encoding="UTF-8"?>
<svg width="74px" height="74px" viewBox="0 0 74 74" version="1.1" xmlns="http://www.w3.org/2000/svg" xmlns:xlink="http://www.w3.org/1999/xlink">
    <!-- Generator: Sketch 49.3 (51167) - http://www.bohemiancoding.com/sketch -->
    <title>DJANGO</title>
    <desc>Created with Sketch.</desc>
    <defs>
        <linearGradient x1="10.1069014%" y1="6.02534227%" x2="94.893743%" y2="100%" id="linearGradient-1">
            <stop stop-color="#56E99C" offset="0%"></stop>
            <stop stop-color="#1BB96A" offset="100%"></stop>
        </linearGradient>
        <rect id="path-2" x="0" y="0" width="74" height="74" rx="6"></rect>
        <linearGradient x1="65.5042181%" y1="32.1596789%" x2="58.4497116%" y2="67.7377751%" id="linearGradient-4">
            <stop stop-color="#A3F7C5" offset="0%"></stop>
            <stop stop-color="#46D18B" offset="100%"></stop>
        </linearGradient>
    </defs>
    <g id="For-other-screens" stroke="none" stroke-width="1" fill="none" fill-rule="evenodd">
        <g id="Framework-Artboard" transform="translate(-283.000000, -61.000000)">
            <g id="DJANGO" transform="translate(283.000000, 61.000000)">
                <mask id="mask-3" fill="white">
                    <use xlink:href="#path-2"></use>
                </mask>
                <g id="Mask">
                    <use fill="#FFFFFF" xlink:href="#path-2"></use>
                    <use fill="url(#linearGradient-1)" xlink:href="#path-2"></use>
                </g>
                <path d="M81,62.5685085 C74.7265504,50.5513971 68.7105611,44.9205583 62.9520321,45.6759921 C54.3142386,46.8091429 38.7044199,52.2201758 27.8473185,46.8091429 C16.9902172,41.39811 6.05692054,20.3202117 -8.4921617,19.1013605 C-18.1915499,18.288793 -27.6941626,22.3617519 -37,31.3202373 L-32.0585469,74 L34.9377755,74 L81,70.091106 L81,62.5685085 Z" id="Path-6" fill="url(#linearGradient-4)" opacity="0.5" mask="url(#mask-3)"></path>
                <path d="M81,74.5685085 C74.7265504,62.5513971 68.7105611,56.9205583 62.9520321,57.6759921 C54.3142386,58.8091429 38.7044199,64.2201758 27.8473185,58.8091429 C16.9902172,53.39811 6.05692054,32.3202117 -8.4921617,31.1013605 C-18.1915499,30.288793 -27.6941626,34.3617519 -37,43.3202373 L-32.0585469,86 L34.9377755,86 L81,82.091106 L81,74.5685085 Z" id="Path-6" fill="url(#linearGradient-4)" opacity="0.5" mask="url(#mask-3)"></path>
                <path d="M83,91.9936914 C77.3166434,71.939497 71.5738431,62.2099843 65.7715993,62.8051534 C57.0682335,63.697907 34.9395212,69.7138083 24,65.4507222 C13.0604788,61.1876361 11.3133659,58.4404092 -3.34616315,57.4801364 C-13.1191825,56.8399545 -23.6704615,56.8399545 -35,57.4801364 L-30.9168114,101 L36.5881021,101 L83,97.9203751 L83,91.9936914 Z" id="Path-6" fill="url(#linearGradient-4)" opacity="0.300000012" mask="url(#mask-3)"></path>
                <g id="Logos@1.5x" mask="url(#mask-3)" fill="#FFFFFF" fill-rule="nonzero">
                    <g transform="translate(23.000000, 24.000000)" id="Shape">
                        <path d="M11.6107627,0 L17,0 L17,23.3132738 C14.2395307,23.8060974 12.207364,24 10.008598,24 C3.42636051,23.9935079 0,21.2180569 0,15.8875983 C0,10.7517105 3.63443253,7.41851515 9.26643738,7.41851515 C10.1404006,7.41851515 10.8061906,7.48343572 11.6107627,7.67791106 L11.6107627,0 Z M11.7996156,11.8792286 C11.16842,11.6846577 10.6482905,11.6198326 9.98239934,11.6198326 C7.25662554,11.6198326 5.68217685,13.1890972 5.68217685,15.9392483 C5.68217685,18.6168412 7.18733562,20.0953123 9.947805,20.0953123 C10.5442039,20.0953123 11.029739,20.0636158 11.7996156,19.9663304 L11.7996156,11.8792286 Z"></path>
                        <path d="M25,8.02752409 L25,19.6756273 C25,23.6870075 24.7007306,25.6160522 23.822374,27.2791959 C23.0025619,28.878127 21.9225733,29.8863787 19.6909574,31 L15,28.7804743 C17.2316159,27.7391637 18.3116045,26.8190376 19.0013284,25.4148402 C19.7234082,23.9789175 19.9511338,22.3157738 19.9511338,17.9413162 L19.9511338,8.02761931 L25,8.02752409 Z M19.4416927,0 L24.4970111,0 L24.4970111,5.1574889 L19.4416927,5.1574889 L19.4416927,0 Z"></path>
                    </g>
                </g>
            </g>
        </g>
    </g>
</svg>