<?xml version="1.0" encoding="UTF-8"?>
<svg width="857px" height="85px" viewBox="0 0 857 85" version="1.1" xmlns="http://www.w3.org/2000/svg" xmlns:xlink="http://www.w3.org/1999/xlink">
    <!-- Generator: Sketch 51.1 (57501) - http://www.bohemiancoding.com/sketch -->
    <title>FusionCharts XT</title>
    <desc>Created with Sketch.</desc>
    <defs></defs>
    <g id="Page-3" stroke="none" stroke-width="1" fill="none" fill-rule="evenodd">
        <g id="concept-one-rough-test-copy-7" transform="translate(-23.000000, -19.000000)" fill="#373C8B">
            <g id="FusionCharts-XT" transform="translate(23.000000, 19.000000)">
                <path d="M162.446,83 L162.446,15.638 L203.131,15.638 L203.131,25.732 L174.394,25.732 L174.394,44.787 L198.805,44.787 L198.805,54.881 L174.394,54.881 L174.394,83 L162.446,83 Z M211.268,64.151 L211.268,32.427 L223.113,32.427 L223.113,62.606 C223.113,70.949 225.482,74.039 230.941,74.039 C235.37,74.039 238.357,71.979 242.168,67.035 L242.168,32.427 L254.013,32.427 L254.013,83 L244.331,83 L243.404,75.584 L243.095,75.584 C238.666,80.837 233.722,84.236 226.821,84.236 C216.006,84.236 211.268,76.923 211.268,64.151 Z M264.004,77.232 L269.566,69.61 C274.098,73.112 278.424,75.275 283.574,75.275 C289.033,75.275 291.608,72.7 291.608,69.198 C291.608,64.975 286.149,63.121 280.793,61.061 C274.098,58.589 266.579,54.778 266.579,46.332 C266.579,37.474 273.686,31.191 285.016,31.191 C292.02,31.191 297.685,34.075 301.805,37.268 L296.346,44.478 C292.844,41.903 289.239,40.152 285.222,40.152 C280.175,40.152 277.806,42.521 277.806,45.714 C277.806,49.628 282.853,51.276 288.312,53.233 C295.213,55.808 302.835,59.104 302.835,68.58 C302.835,77.232 295.934,84.236 283.162,84.236 C276.261,84.236 268.948,81.249 264.004,77.232 Z M319.418,23.569 C315.195,23.569 312.105,20.788 312.105,16.874 C312.105,12.857 315.195,10.076 319.418,10.076 C323.641,10.076 326.731,12.857 326.731,16.874 C326.731,20.788 323.641,23.569 319.418,23.569 Z M313.444,83 L313.444,32.427 L325.289,32.427 L325.289,83 L313.444,83 Z M337.134,57.765 C337.134,40.873 348.567,31.191 361.133,31.191 C373.802,31.191 385.235,40.873 385.235,57.765 C385.235,74.554 373.802,84.236 361.133,84.236 C348.567,84.236 337.134,74.554 337.134,57.765 Z M349.288,57.765 C349.288,67.859 353.717,74.554 361.133,74.554 C368.549,74.554 373.081,67.859 373.081,57.765 C373.081,47.568 368.549,40.873 361.133,40.873 C353.717,40.873 349.288,47.568 349.288,57.765 Z M396.977,83 L396.977,32.427 L406.762,32.427 L407.586,39.225 L407.998,39.225 C412.53,34.796 417.68,31.191 424.581,31.191 C435.396,31.191 440.134,38.504 440.134,51.276 L440.134,83 L428.289,83 L428.289,52.821 C428.289,44.478 425.92,41.388 420.358,41.388 C415.929,41.388 413.045,43.551 408.822,47.671 L408.822,83 L396.977,83 Z M451.979,49.525 C451.979,27.483 465.781,14.402 483.085,14.402 C491.325,14.402 498.02,18.419 502.243,22.951 L495.651,30.367 C492.149,26.968 488.338,24.805 483.188,24.805 C472.167,24.805 464.236,34.075 464.236,49.216 C464.236,64.563 471.549,73.833 482.776,73.833 C488.75,73.833 493.179,71.361 496.99,67.138 L503.582,74.451 C498.123,80.734 491.119,84.236 482.57,84.236 C465.472,84.236 451.979,71.876 451.979,49.525 Z M513.676,83 L513.676,10.282 L525.521,10.282 L525.521,29.028 L525.109,38.813 C529.332,34.796 534.379,31.191 541.28,31.191 C552.095,31.191 556.833,38.504 556.833,51.276 L556.833,83 L544.988,83 L544.988,52.821 C544.988,44.478 542.619,41.388 537.057,41.388 C532.628,41.388 529.744,43.551 525.521,47.671 L525.521,83 L513.676,83 Z M568.987,69.404 C568.987,58.589 578.051,52.924 598.754,50.658 C598.651,45.302 596.385,40.77 589.587,40.77 C584.54,40.77 579.802,43.036 575.373,45.714 L571.047,37.783 C576.609,34.281 583.716,31.191 591.75,31.191 C604.419,31.191 610.599,38.916 610.599,53.027 L610.599,83 L600.917,83 L599.99,77.438 L599.681,77.438 C595.149,81.249 589.999,84.236 584.025,84.236 C575.167,84.236 568.987,78.262 568.987,69.404 Z M580.523,68.477 C580.523,73.009 583.51,74.966 587.733,74.966 C591.853,74.966 595.046,72.906 598.754,69.404 L598.754,58.074 C585.055,59.825 580.523,63.43 580.523,68.477 Z M625.019,83 L625.019,32.427 L634.804,32.427 L635.628,41.388 L636.04,41.388 C639.645,34.796 645.001,31.191 650.357,31.191 C652.932,31.191 654.58,31.5 656.125,32.221 L654.065,42.521 C652.314,42.006 650.975,41.697 648.812,41.697 C644.795,41.697 639.954,44.478 636.864,52.1 L636.864,83 L625.019,83 Z M665.189,65.902 L665.189,41.8 L657.979,41.8 L657.979,32.942 L665.807,32.427 L667.249,18.625 L677.137,18.625 L677.137,32.427 L690.012,32.427 L690.012,41.8 L677.137,41.8 L677.137,65.902 C677.137,71.876 679.403,74.76 684.244,74.76 C685.995,74.76 688.055,74.245 689.497,73.627 L691.557,82.382 C688.776,83.309 685.274,84.236 681.257,84.236 C669.515,84.236 665.189,76.82 665.189,65.902 Z M695.574,77.232 L701.136,69.61 C705.668,73.112 709.994,75.275 715.144,75.275 C720.603,75.275 723.178,72.7 723.178,69.198 C723.178,64.975 717.719,63.121 712.363,61.061 C705.668,58.589 698.149,54.778 698.149,46.332 C698.149,37.474 705.256,31.191 716.586,31.191 C723.59,31.191 729.255,34.075 733.375,37.268 L727.916,44.478 C724.414,41.903 720.809,40.152 716.792,40.152 C711.745,40.152 709.376,42.521 709.376,45.714 C709.376,49.628 714.423,51.276 719.882,53.233 C726.783,55.808 734.405,59.104 734.405,68.58 C734.405,77.232 727.504,84.236 714.732,84.236 C707.831,84.236 700.518,81.249 695.574,77.232 Z M752,83 L770.969727,48.4755352 L753.12793,16 L766.355469,16 L773.84082,30.8547401 C775.378906,33.9281346 776.814453,37.1039755 778.865234,41.0993884 L779.275391,41.0993884 C780.916016,37.1039755 782.351562,33.9281346 783.787109,30.8547401 L790.862305,16 L803.474609,16 L785.632812,48.9877676 L804.705078,83 L791.477539,83 L783.274414,67.2232416 C781.53125,63.7400612 779.890625,60.3593272 777.942383,56.2614679 L777.532227,56.2614679 C775.789062,60.3593272 774.148437,63.7400612 772.507812,67.2232416 L764.612305,83 L752,83 Z M825.828125,83 L825.828125,26.0397554 L806.448242,26.0397554 L806.448242,16 L857,16 L857,26.0397554 L837.722656,26.0397554 L837.722656,83 L825.828125,83 Z" id="FusionCharts"></path>
                <g id="FusionCharts-XT-logo">
                    <g id="Group-2">
                        <rect id="Rectangle-2-Copy-4" x="0.404166667" y="0.076" width="23.4041667" height="84.3525714"></rect>
                        <rect id="Rectangle-2-Copy-5" x="34.0833333" y="49" width="23.975" height="35.4285714"></rect>
                        <rect id="Rectangle-2-Copy-6" x="68.9041667" y="27" width="22.2625" height="57.4285714"></rect>
                    </g>
                </g>
            </g>
        </g>
    </g>
</svg>