<?xml version="1.0" encoding="UTF-8"?>
<svg width="788px" height="99px" viewBox="0 0 788 99" version="1.1" xmlns="http://www.w3.org/2000/svg" xmlns:xlink="http://www.w3.org/1999/xlink">
    <!-- Generator: Sketch 51.1 (57501) - http://www.bohemiancoding.com/sketch -->
    <title>Fusionmaps</title>
    <desc>Created with Sketch.</desc>
    <defs></defs>
    <g id="Page-3" stroke="none" stroke-width="1" fill="none" fill-rule="evenodd">
        <g id="Fusionmaps" fill="#373C8B">
            <path d="M151.446,79 L151.446,11.638 L192.131,11.638 L192.131,21.732 L163.394,21.732 L163.394,40.787 L187.805,40.787 L187.805,50.881 L163.394,50.881 L163.394,79 L151.446,79 Z M200.268,60.151 L200.268,28.427 L212.113,28.427 L212.113,58.606 C212.113,66.949 214.482,70.039 219.941,70.039 C224.37,70.039 227.357,67.979 231.168,63.035 L231.168,28.427 L243.013,28.427 L243.013,79 L233.331,79 L232.404,71.584 L232.095,71.584 C227.666,76.837 222.722,80.236 215.821,80.236 C205.006,80.236 200.268,72.923 200.268,60.151 Z M253.004,73.232 L258.566,65.61 C263.098,69.112 267.424,71.275 272.574,71.275 C278.033,71.275 280.608,68.7 280.608,65.198 C280.608,60.975 275.149,59.121 269.793,57.061 C263.098,54.589 255.579,50.778 255.579,42.332 C255.579,33.474 262.686,27.191 274.016,27.191 C281.02,27.191 286.685,30.075 290.805,33.268 L285.346,40.478 C281.844,37.903 278.239,36.152 274.222,36.152 C269.175,36.152 266.806,38.521 266.806,41.714 C266.806,45.628 271.853,47.276 277.312,49.233 C284.213,51.808 291.835,55.104 291.835,64.58 C291.835,73.232 284.934,80.236 272.162,80.236 C265.261,80.236 257.948,77.249 253.004,73.232 Z M308.418,19.569 C304.195,19.569 301.105,16.788 301.105,12.874 C301.105,8.857 304.195,6.076 308.418,6.076 C312.641,6.076 315.731,8.857 315.731,12.874 C315.731,16.788 312.641,19.569 308.418,19.569 Z M302.444,79 L302.444,28.427 L314.289,28.427 L314.289,79 L302.444,79 Z M326.134,53.765 C326.134,36.873 337.567,27.191 350.133,27.191 C362.802,27.191 374.235,36.873 374.235,53.765 C374.235,70.554 362.802,80.236 350.133,80.236 C337.567,80.236 326.134,70.554 326.134,53.765 Z M338.288,53.765 C338.288,63.859 342.717,70.554 350.133,70.554 C357.549,70.554 362.081,63.859 362.081,53.765 C362.081,43.568 357.549,36.873 350.133,36.873 C342.717,36.873 338.288,43.568 338.288,53.765 Z M385.977,79 L385.977,28.427 L395.762,28.427 L396.586,35.225 L396.998,35.225 C401.53,30.796 406.68,27.191 413.581,27.191 C424.396,27.191 429.134,34.504 429.134,47.276 L429.134,79 L417.289,79 L417.289,48.821 C417.289,40.478 414.92,37.388 409.358,37.388 C404.929,37.388 402.045,39.551 397.822,43.671 L397.822,79 L385.977,79 Z M444.584,79 L444.584,11.638 L457.665,11.638 L469.819,44.804 L474.248,57.576 L474.66,57.576 L479.089,44.804 L490.934,11.638 L504.118,11.638 L504.118,79 L492.891,79 L492.891,48.203 C492.891,41.92 493.818,32.959 494.436,26.779 L494.024,26.779 L488.565,42.126 L476.926,72.717 L471.467,72.717 L459.828,42.126 L454.472,26.779 L454.06,26.779 C454.575,32.959 455.502,41.92 455.502,48.203 L455.502,79 L444.584,79 Z M517.92,65.404 C517.92,54.589 526.984,48.924 547.687,46.658 C547.584,41.302 545.318,36.77 538.52,36.77 C533.473,36.77 528.735,39.036 524.306,41.714 L519.98,33.783 C525.542,30.281 532.649,27.191 540.683,27.191 C553.352,27.191 559.532,34.916 559.532,49.027 L559.532,79 L549.85,79 L548.923,73.438 L548.614,73.438 C544.082,77.249 538.932,80.236 532.958,80.236 C524.1,80.236 517.92,74.262 517.92,65.404 Z M529.456,64.477 C529.456,69.009 532.443,70.966 536.666,70.966 C540.786,70.966 543.979,68.906 547.687,65.404 L547.687,54.074 C533.988,55.825 529.456,59.43 529.456,64.477 Z M585.488,74.674 L585.797,83.12 L585.797,98.982 L573.952,98.982 L573.952,28.427 L583.737,28.427 L584.561,33.783 L584.973,33.783 C589.196,30.178 594.655,27.191 600.217,27.191 C612.783,27.191 620.096,37.285 620.096,52.941 C620.096,70.245 609.693,80.236 598.466,80.236 C594.037,80.236 589.608,78.176 585.488,74.674 Z M585.797,66.228 C589.505,69.318 593.007,70.451 595.994,70.451 C602.689,70.451 607.839,64.477 607.839,53.044 C607.839,42.95 604.543,36.976 596.921,36.976 C593.213,36.976 589.711,38.83 585.797,42.641 L585.797,66.228 Z M626.585,73.232 L632.147,65.61 C636.679,69.112 641.005,71.275 646.155,71.275 C651.614,71.275 654.189,68.7 654.189,65.198 C654.189,60.975 648.73,59.121 643.374,57.061 C636.679,54.589 629.16,50.778 629.16,42.332 C629.16,33.474 636.267,27.191 647.597,27.191 C654.601,27.191 660.266,30.075 664.386,33.268 L658.927,40.478 C655.425,37.903 651.82,36.152 647.803,36.152 C642.756,36.152 640.387,38.521 640.387,41.714 C640.387,45.628 645.434,47.276 650.893,49.233 C657.794,51.808 665.416,55.104 665.416,64.58 C665.416,73.232 658.515,80.236 645.743,80.236 C638.842,80.236 631.529,77.249 626.585,73.232 Z" id="FusionMaps"></path>
            <g id="FusionMaps">
                <g id="Group-2">
                    <polygon id="Rectangle-2-Copy-4" points="0 12 23 0 23 79 0 91"></polygon>
                    <polygon id="Rectangle-2-Copy-4" points="33 0 57 12 57 91 33 79"></polygon>
                    <polygon id="Rectangle-2-Copy-4" points="68.4041667 11 91 0 91 79 68.4041667 91"></polygon>
                </g>
            </g>
            <path d="M682.236,78 L701.291,43.289 L683.369,10.638 L696.656,10.638 L704.175,25.573 C705.72,28.663 707.162,31.856 709.222,35.873 L709.634,35.873 C711.282,31.856 712.724,28.663 714.166,25.573 L721.273,10.638 L733.942,10.638 L716.02,43.804 L735.178,78 L721.891,78 L713.651,62.138 C711.9,58.636 710.252,55.237 708.295,51.117 L707.883,51.117 C706.132,55.237 704.484,58.636 702.836,62.138 L694.905,78 L682.236,78 Z M756.396,78 L756.396,20.732 L736.929,20.732 L736.929,10.638 L787.708,10.638 L787.708,20.732 L768.344,20.732 L768.344,78 L756.396,78 Z" id="XT"></path>
        </g>
    </g>
</svg>