<?xml version="1.0" encoding="UTF-8"?>
<svg width="909px" height="107px" viewBox="0 0 909 107" version="1.1" xmlns="http://www.w3.org/2000/svg" xmlns:xlink="http://www.w3.org/1999/xlink">
    <!-- Generator: Sketch 51.1 (57501) - http://www.bohemiancoding.com/sketch -->
    <title>FusionWidgets</title>
    <desc>Created with Sketch.</desc>
    <defs></defs>
    <g id="Page-3" stroke="none" stroke-width="1" fill="none" fill-rule="evenodd">
        <g id="concept-one-rough-test-copy-4" transform="translate(-23.000000, -18.000000)" fill="#373C8B">
            <g id="FusionWidgets" transform="translate(23.000000, 18.000000)">
                <path d="M152.446,84 L152.446,16.638 L193.131,16.638 L193.131,26.732 L164.394,26.732 L164.394,45.787 L188.805,45.787 L188.805,55.881 L164.394,55.881 L164.394,84 L152.446,84 Z M201.268,65.151 L201.268,33.427 L213.113,33.427 L213.113,63.606 C213.113,71.949 215.482,75.039 220.941,75.039 C225.37,75.039 228.357,72.979 232.168,68.035 L232.168,33.427 L244.013,33.427 L244.013,84 L234.331,84 L233.404,76.584 L233.095,76.584 C228.666,81.837 223.722,85.236 216.821,85.236 C206.006,85.236 201.268,77.923 201.268,65.151 Z M254.004,78.232 L259.566,70.61 C264.098,74.112 268.424,76.275 273.574,76.275 C279.033,76.275 281.608,73.7 281.608,70.198 C281.608,65.975 276.149,64.121 270.793,62.061 C264.098,59.589 256.579,55.778 256.579,47.332 C256.579,38.474 263.686,32.191 275.016,32.191 C282.02,32.191 287.685,35.075 291.805,38.268 L286.346,45.478 C282.844,42.903 279.239,41.152 275.222,41.152 C270.175,41.152 267.806,43.521 267.806,46.714 C267.806,50.628 272.853,52.276 278.312,54.233 C285.213,56.808 292.835,60.104 292.835,69.58 C292.835,78.232 285.934,85.236 273.162,85.236 C266.261,85.236 258.948,82.249 254.004,78.232 Z M309.418,24.569 C305.195,24.569 302.105,21.788 302.105,17.874 C302.105,13.857 305.195,11.076 309.418,11.076 C313.641,11.076 316.731,13.857 316.731,17.874 C316.731,21.788 313.641,24.569 309.418,24.569 Z M303.444,84 L303.444,33.427 L315.289,33.427 L315.289,84 L303.444,84 Z M327.134,58.765 C327.134,41.873 338.567,32.191 351.133,32.191 C363.802,32.191 375.235,41.873 375.235,58.765 C375.235,75.554 363.802,85.236 351.133,85.236 C338.567,85.236 327.134,75.554 327.134,58.765 Z M339.288,58.765 C339.288,68.859 343.717,75.554 351.133,75.554 C358.549,75.554 363.081,68.859 363.081,58.765 C363.081,48.568 358.549,41.873 351.133,41.873 C343.717,41.873 339.288,48.568 339.288,58.765 Z M386.977,84 L386.977,33.427 L396.762,33.427 L397.586,40.225 L397.998,40.225 C402.53,35.796 407.68,32.191 414.581,32.191 C425.396,32.191 430.134,39.504 430.134,52.276 L430.134,84 L418.289,84 L418.289,53.821 C418.289,45.478 415.92,42.388 410.358,42.388 C405.929,42.388 403.045,44.551 398.822,48.671 L398.822,84 L386.977,84 Z M452.176,84 L438.786,16.638 L451.146,16.638 L456.914,50.628 C458.047,57.838 459.18,65.048 460.313,72.155 L460.725,72.155 C462.064,65.048 463.609,57.735 465.051,50.628 L473.394,16.638 L483.694,16.638 L492.037,50.628 C493.479,57.632 495.024,64.945 496.466,72.155 L496.878,72.155 C498.011,64.945 499.041,57.735 500.174,50.628 L505.942,16.638 L517.478,16.638 L504.5,84 L489.668,84 L481.325,48.568 C480.192,43.315 479.265,38.165 478.338,33.015 L477.926,33.015 C476.999,38.165 476.072,43.315 474.939,48.568 L466.802,84 L452.176,84 Z M532.722,24.569 C528.499,24.569 525.409,21.788 525.409,17.874 C525.409,13.857 528.499,11.076 532.722,11.076 C536.945,11.076 540.035,13.857 540.035,17.874 C540.035,21.788 536.945,24.569 532.722,24.569 Z M526.748,84 L526.748,33.427 L538.593,33.427 L538.593,84 L526.748,84 Z M550.644,58.765 C550.644,42.285 561.047,32.191 572.068,32.191 C577.836,32.191 581.441,34.354 585.355,37.753 L584.943,29.616 L584.943,11.282 L596.788,11.282 L596.788,84 L587.003,84 L586.179,78.541 L585.767,78.541 C582.059,82.249 576.909,85.236 571.45,85.236 C558.781,85.236 550.644,75.451 550.644,58.765 Z M562.901,58.662 C562.901,69.58 567.021,75.451 574.334,75.451 C578.248,75.451 581.544,73.7 584.943,69.786 L584.943,46.199 C581.441,43.109 578.042,41.976 574.643,41.976 C568.154,41.976 562.901,48.053 562.901,58.662 Z M618.315,91.416 C618.315,95.948 623.259,98.626 631.293,98.626 C639.43,98.626 644.992,94.815 644.992,90.489 C644.992,86.575 641.799,85.442 636.031,85.442 L629.13,85.442 C626.349,85.442 624.186,85.236 622.229,84.721 C619.551,86.781 618.315,89.047 618.315,91.416 Z M608.427,93.167 C608.427,88.944 611.002,85.236 615.637,82.352 L615.637,81.94 C613.062,80.292 611.105,77.614 611.105,73.494 C611.105,69.58 613.783,66.181 616.667,64.121 L616.667,63.709 C613.268,61.134 610.075,56.293 610.075,50.319 C610.075,38.68 619.448,32.191 630.057,32.191 C632.838,32.191 635.413,32.706 637.473,33.427 L655.601,33.427 L655.601,42.182 L646.331,42.182 C647.979,44.139 649.215,47.229 649.215,50.731 C649.215,61.958 640.769,67.932 630.057,67.932 C627.894,67.932 625.422,67.52 623.156,66.593 C621.611,67.932 620.684,69.168 620.684,71.434 C620.684,74.318 622.744,76.069 628.924,76.069 L637.885,76.069 C650.039,76.069 656.425,79.777 656.425,88.532 C656.425,98.523 645.919,106.351 629.439,106.351 C617.388,106.351 608.427,102.025 608.427,93.167 Z M630.057,60.516 C634.898,60.516 638.812,56.808 638.812,50.319 C638.812,44.036 635.001,40.328 630.057,40.328 C625.113,40.328 621.199,43.933 621.199,50.319 C621.199,56.808 625.113,60.516 630.057,60.516 Z M660.442,58.765 C660.442,42.285 671.875,32.191 683.72,32.191 C697.419,32.191 704.629,42.079 704.629,56.19 C704.629,58.456 704.423,60.516 704.114,61.752 L671.978,61.752 C673.008,70.919 678.776,76.069 686.913,76.069 C691.239,76.069 694.947,74.73 698.655,72.361 L702.672,79.777 C697.831,82.97 691.754,85.236 685.368,85.236 C671.36,85.236 660.442,75.451 660.442,58.765 Z M671.875,54.233 L694.329,54.233 C694.329,46.199 690.93,41.358 684.029,41.358 C678.055,41.358 672.905,45.787 671.875,54.233 Z M716.062,66.902 L716.062,42.8 L708.852,42.8 L708.852,33.942 L716.68,33.427 L718.122,19.625 L728.01,19.625 L728.01,33.427 L740.885,33.427 L740.885,42.8 L728.01,42.8 L728.01,66.902 C728.01,72.876 730.276,75.76 735.117,75.76 C736.868,75.76 738.928,75.245 740.37,74.627 L742.43,83.382 C739.649,84.309 736.147,85.236 732.13,85.236 C720.388,85.236 716.062,77.82 716.062,66.902 Z M746.447,78.232 L752.009,70.61 C756.541,74.112 760.867,76.275 766.017,76.275 C771.476,76.275 774.051,73.7 774.051,70.198 C774.051,65.975 768.592,64.121 763.236,62.061 C756.541,59.589 749.022,55.778 749.022,47.332 C749.022,38.474 756.129,32.191 767.459,32.191 C774.463,32.191 780.128,35.075 784.248,38.268 L778.789,45.478 C775.287,42.903 771.682,41.152 767.665,41.152 C762.618,41.152 760.249,43.521 760.249,46.714 C760.249,50.628 765.296,52.276 770.755,54.233 C777.656,56.808 785.278,60.104 785.278,69.58 C785.278,78.232 778.377,85.236 765.605,85.236 C758.704,85.236 751.391,82.249 746.447,78.232 Z M803.236,84 L822.291,49.289 L804.369,16.638 L817.656,16.638 L825.175,31.573 C826.72,34.663 828.162,37.856 830.222,41.873 L830.634,41.873 C832.282,37.856 833.724,34.663 835.166,31.573 L842.273,16.638 L854.942,16.638 L837.02,49.804 L856.178,84 L842.891,84 L834.651,68.138 C832.9,64.636 831.252,61.237 829.295,57.117 L828.883,57.117 C827.132,61.237 825.484,64.636 823.836,68.138 L815.905,84 L803.236,84 Z M877.396,84 L877.396,26.732 L857.929,26.732 L857.929,16.638 L908.708,16.638 L908.708,26.732 L889.344,26.732 L889.344,84 L877.396,84 Z"></path>
                <g id="FusionWidgets-logo">
                    <g id="Group-15-Copy-3">
                        <polygon id="Rectangle-2-Copy-4" points="1 5 35.3928406 5 35.3928406 51.398149 1 51.398149"></polygon>
                        <polygon id="Rectangle-2-Copy-4" points="0.592710905 61 35.0850918 61 35.0850918 96 0.592710905 96"></polygon>
                        <polygon id="Rectangle-2-Copy-4" points="46 61 81 61 81 96.932406 46 96.932406"></polygon>
                        <polygon id="Rectangle-2-Copy-5" transform="translate(64.000000, 25.966203) rotate(-45.000000) translate(-64.000000, -25.966203) " points="46 8 82 8 82 43.932406 46 43.932406"></polygon>
                    </g>
                </g>
            </g>
        </g>
    </g>
</svg>