<?xml version="1.0" encoding="UTF-8"?>
<svg width="74px" height="74px" viewBox="0 0 74 74" version="1.1" xmlns="http://www.w3.org/2000/svg" xmlns:xlink="http://www.w3.org/1999/xlink">
    <!-- Generator: Sketch 49.3 (51167) - http://www.bohemiancoding.com/sketch -->
    <title>JAVA</title>
    <desc>Created with Sketch.</desc>
    <defs>
        <linearGradient x1="100%" y1="97.4947284%" x2="-13.8051062%" y2="-21.6363486%" id="linearGradient-1">
            <stop stop-color="#879EFF" offset="0%"></stop>
            <stop stop-color="#F44336" offset="100%"></stop>
        </linearGradient>
        <rect id="path-2" x="0" y="0" width="74" height="74" rx="6"></rect>
        <linearGradient x1="63.4800547%" y1="19.3950243%" x2="79.280765%" y2="65.6504564%" id="linearGradient-4">
            <stop stop-color="#AD9AE9" offset="0%"></stop>
            <stop stop-color="#C86786" offset="100%"></stop>
        </linearGradient>
    </defs>
    <g id="For-other-screens" stroke="none" stroke-width="1" fill="none" fill-rule="evenodd">
        <g id="Framework-Artboard" transform="translate(-174.000000, -60.000000)">
            <g id="Java" transform="translate(165.000000, 51.000000)">
                <g id="JAVA" transform="translate(9.000000, 9.000000)">
                    <mask id="mask-3" fill="white">
                        <use xlink:href="#path-2"></use>
                    </mask>
                    <g id="Mask">
                        <use fill="#FFFFFF" xlink:href="#path-2"></use>
                        <use fill="url(#linearGradient-1)" xlink:href="#path-2"></use>
                    </g>
                    <path d="M102.557961,42.0427469 L105.256597,48.1612115 L92.9882048,83.8603944 L68.1531047,92.4807541 L-1.52304436,95.4821092 L-25.2168605,43.8494373 C-11.5852947,44.9602753 0.0167458733,44.295833 9.58926126,41.8561104 C23.9480343,38.1965264 33.7145494,45.2860332 46.0444824,46.2163597 C58.3744154,47.1466863 71.3697849,37.755634 79.2284945,34.0727336 C84.4676343,31.6174667 92.2441231,34.2741378 102.557961,42.0427469 Z" id="Path-6" fill="url(#linearGradient-4)" opacity="0.5" mask="url(#mask-3)"></path>
                    <path d="M102.557961,52.0427469 C92.2441231,44.2741378 84.4676343,41.6174667 79.2284945,44.0727336 C71.3697849,47.755634 58.3744154,57.1466863 46.0444824,56.2163597 C33.7145494,55.2860332 23.9480343,48.1965264 9.58926126,51.8561104 C0.0167458733,54.295833 -11.5852947,54.9602753 -25.2168605,53.8494373 L-1.52304436,105.482109 L62.5834752,76.0652799 L83.9200362,75.1132457 L105.256597,58.1612115 L102.557961,52.0427469 Z" id="Path-6" fill="url(#linearGradient-4)" opacity="0.400000006" mask="url(#mask-3)"></path>
                    <path d="M102.557961,60.0427469 L105.256597,66.1612115 L62.5834752,84.0652799 L-1.52304436,105.482109 L-25.2168605,61.8494373 C-11.5852947,62.9602753 0.0167458733,62.295833 9.58926126,59.8561104 C23.9480343,56.1965264 33.7145494,63.2860332 46.0444824,64.2163597 C58.3744154,65.1466863 71.3697849,55.755634 79.2284945,52.0727336 C84.4676343,49.6174667 92.2441231,52.2741378 102.557961,60.0427469 Z" id="Path-6" fill="url(#linearGradient-4)" opacity="0.300000012" mask="url(#mask-3)"></path>
                    <g id="Logos@1.5x" mask="url(#mask-3)" fill="#FFFFFF" fill-rule="nonzero">
                        <g transform="translate(24.000000, 18.000000)" id="Shape">
                            <path d="M12.7960293,18 C11.9760569,16.6141258 11.381659,15.4633936 10.5551004,13.2997416 C9.1588421,9.64685619 19.0446148,6.34539188 15.0369581,0 C16.7740485,4.38415159 8.79825175,7.09216194 8.05895929,10.7433247 C7.37976523,14.1007752 12.7927363,18 12.795206,18 L12.7960293,18 Z"></path>
                            <path d="M13.0097289,11.091976 C12.8376253,13.1512009 15.0050558,14.2516376 15.0686983,15.7549127 C15.1206879,16.9798035 13.7725426,18 13.7725426,18 C13.7725426,18 16.2169524,17.5619541 16.9806624,15.6943232 C17.8277351,13.6179039 15.3385066,12.1981441 15.5939731,10.5384825 C15.8315119,8.94841702 21,6 21,6 C21,6 13.398755,6.45687775 13.0097289,11.091976 Z"></path>
                            <path d="M20.6346401,17.7661642 C22.0437018,17.4443705 23.2294344,18.3543541 23.2294344,19.4044605 C23.2294344,21.7661817 20,24 20,24 C20,24 25,23.3955167 25,19.51607 C25,16.9514967 22.5457905,16.308724 20.6346401,17.7661642 Z"></path>
                            <path d="M16.9012662,19.3290774 C16.9012662,19.3290774 18.5592403,18.3443012 19,17.974031 C14.9323686,18.6946337 5.64310119,18.7921857 5.64310119,18.1662867 C5.64310119,17.5902317 8.63958398,17.0006477 8.63958398,17.0006477 C8.63958398,17.0006477 2,16.9201851 2,18.5529342 C2,20.2547528 10.6913375,20.3772268 16.9012662,19.3290774 Z"></path>
                            <path d="M16.084053,21.7497816 C12.3353163,22.883524 5.42909231,22.5207264 7.4755965,21 C6.4777074,21 5,21.7263509 5,22.4285154 C5,23.8313326 12.4716945,24.9151903 18,22.8600933 L16.084053,21.7497816 Z"></path>
                            <path d="M8.37445872,24 C6.93269724,24 6,24.8471841 6,25.4655081 C6,27.3847216 14.5942018,27.5758399 18,25.6285208 L15.8360367,24.3171922 C13.2907156,25.3370252 6.90187158,25.4775534 8.37357798,24 L8.37445872,24 Z"></path>
                            <path d="M24,27.4860633 C24,26.7312819 23.0727952,26.3756173 22.7393886,26.2066364 C24.6976028,30.5317433 3.10622388,30.1953908 3.10622388,27.6429742 C3.10622388,27.061197 4.69760282,26.4955133 6.16494392,26.762664 L4.91752804,26.0867404 C1.98988345,25.6691161 0,26.8447405 0,27.7942523 C0,32.2231618 23.9991203,32.0091193 23.9991203,27.4860633 L24,27.4860633 Z"></path>
                            <path d="M26,29 C22.385652,32.7941246 13.2168054,34.1768393 4,31.8312288 C13.2168054,36.0053219 25.9564012,33.6569312 26,29 Z"></path>
                        </g>
                    </g>
                </g>
            </g>
        </g>
    </g>
</svg>