<?xml version="1.0" encoding="UTF-8"?>
<svg width="74px" height="74px" viewBox="0 0 74 74" version="1.1" xmlns="http://www.w3.org/2000/svg" xmlns:xlink="http://www.w3.org/1999/xlink">
    <!-- Generator: Sketch 49.3 (51167) - http://www.bohemiancoding.com/sketch -->
    <title>jQuery</title>
    <desc>Created with Sketch.</desc>
    <defs>
        <linearGradient x1="10.1069014%" y1="6.02534227%" x2="94.1215096%" y2="99.1440845%" id="linearGradient-1">
            <stop stop-color="#C1D1FF" offset="0%"></stop>
            <stop stop-color="#1130B7" offset="100%"></stop>
        </linearGradient>
        <rect id="path-2" x="0" y="0" width="74" height="74" rx="6"></rect>
        <linearGradient x1="69.3374097%" y1="0%" x2="78.0819785%" y2="60.8218033%" id="linearGradient-4">
            <stop stop-color="#A1B4EB" offset="0%"></stop>
            <stop stop-color="#435FCC" offset="100%"></stop>
        </linearGradient>
    </defs>
    <g id="For-other-screens" stroke="none" stroke-width="1" fill="none" fill-rule="evenodd">
        <g id="Framework-Artboard" transform="translate(-63.000000, -401.000000)">
            <g id="jQuery" transform="translate(63.000000, 401.000000)">
                <mask id="mask-3" fill="white">
                    <use xlink:href="#path-2"></use>
                </mask>
                <g id="Mask">
                    <use fill="#FFFFFF" xlink:href="#path-2"></use>
                    <use fill="url(#linearGradient-1)" xlink:href="#path-2"></use>
                </g>
                <path d="M-16.0692193,78.0691967 C-22.2540101,54.3466575 -22.6205077,42.8237257 -17.168712,43.5004012 C-8.99101845,44.5154146 7.30779969,53.6369313 17.5865877,48.7900294 C22.9211584,46.274544 34,39.5545928 41.543905,39.6785124 C49.0878101,39.802432 51.0718952,42.7621628 57.6974042,42.2370044 C66.8801456,41.5091517 76.6969597,37.6215445 87.1478465,30.574183 L89,85.574183 L29.8163554,68.191298 L-9.28831855,68.191298 L-16.0692193,78.0691967 Z" id="Path-6" fill="url(#linearGradient-4)" opacity="0.5" mask="url(#mask-3)"></path>
                <path d="M-16.0692193,90.0691967 C-22.2540101,66.3466575 -22.6205077,54.8237257 -17.168712,55.5004012 C-8.99101845,56.5154146 7.30779969,65.6369313 17.5865877,60.7900294 C22.9211584,58.274544 34,51.5545928 41.543905,51.6785124 C49.0878101,51.802432 51.0718952,54.7621628 57.6974042,54.2370044 C66.8801456,53.5091517 76.6969597,49.6215445 87.1478465,42.574183 L89,97.574183 L29.8163554,80.191298 L-9.28831855,80.191298 L-16.0692193,90.0691967 Z" id="Path-6" fill="url(#linearGradient-4)" opacity="0.400000006" mask="url(#mask-3)"></path>
                <path d="M-16.5478545,95.35539 C-22.1322823,75.6983837 -22.4632036,66.1502345 -17.5406184,66.7109424 C-10.1567406,67.5520043 4.55993718,75.1102893 13.8409543,71.0940421 C18.6576937,69.0096568 28.6611026,63.4413607 35.4727143,63.5440432 C42.2843259,63.6467256 44.0758143,66.0992222 50.0581794,65.6640646 C58.3495441,65.0609502 67.2134316,61.8395953 76.6498418,56 L78.3222052,101.574183 L24.883568,87.1703506 L-10.4251816,87.1703506 L-16.5478545,95.35539 Z" id="Path-6" fill="url(#linearGradient-4)" opacity="0.300000012" mask="url(#mask-3)"></path>
                <path d="M37.1635746,44.5511282 C36.9786617,44.5099279 36.7999126,44.4529744 36.6199308,44.4008682 C36.3985168,44.3362983 36.1786195,44.2668054 35.9604083,44.1924429 L35.8889086,44.1669956 C35.7340697,44.1128456 35.5799623,44.0566951 35.4266265,43.9985589 L35.2971875,43.9488761 C35.1295332,43.8834403 34.9631116,43.815581 34.7979228,43.7452979 L34.6980699,43.7016741 C34.5572586,43.6389112 34.4171279,43.5746836 34.2777013,43.5090019 L34.1556588,43.4520485 C34.0459439,43.3999421 33.9374616,43.3429888 33.8302122,43.2896707 C33.7574798,43.2521057 33.6847474,43.2169642 33.6132478,43.1781873 C33.4819092,43.1081919 33.3516341,43.0362854 33.2224653,42.9624915 C33.179319,42.9382561 33.1349399,42.9164441 33.0905608,42.8909968 C32.9192362,42.7925011 32.7499052,42.6906923 32.5826668,42.5856296 L32.4458313,42.4959582 C32.3237413,42.4197199 32.2033152,42.3409367 32.0846349,42.2596621 C32.0451868,42.2342149 32.0069715,42.2051323 31.9687562,42.1796851 C31.8541102,42.0997079 31.7394642,42.0197307 31.6272837,41.93733 L31.4756552,41.824635 C31.3715661,41.7471855 31.268822,41.6680049 31.1674671,41.5871272 L31.0293989,41.4780674 C30.8999599,41.3726431 30.7717536,41.2684304 30.6447801,41.1593707 L30.6028666,41.1254409 C30.466031,41.0078988 30.331661,40.8867214 30.1985238,40.7643321 L30.0851106,40.6576959 C29.9864904,40.565601 29.8903357,40.4722945 29.7954138,40.377776 L29.6820005,40.2662927 C29.5616574,40.1441753 29.4428928,40.0205643 29.3257351,39.8954895 L29.3084766,39.8773129 C29.1852014,39.7452295 29.0656244,39.6095107 28.9472801,39.4725802 L28.8523582,39.3623087 C28.6251651,39.0942467 28.4068538,38.8190298 28.1977667,38.5370901 C25.4894098,34.9066129 24.5167682,29.8983479 26.6814813,25.7855843 L24.7633187,28.1776277 C22.3052105,31.6505742 22.6109331,36.1692823 24.4884149,39.8591363 C24.532794,39.9475959 24.5796386,40.0348437 24.6264832,40.1220914 C24.6560692,40.1766213 24.6831898,40.2335748 24.7140086,40.2881046 L24.7682497,40.3838348 C24.8003012,40.4432118 24.8335856,40.4989534 24.8656371,40.5559069 C24.9235765,40.6564841 24.9839813,40.7570614 25.0443862,40.8576387 C25.1440027,41.0216133 25.2475833,41.1832292 25.3550398,41.3423486 C25.3846259,41.3871843 25.4129792,41.4332317 25.443798,41.4768557 C25.5424182,41.619845 25.6422711,41.7628345 25.7445895,41.9046121 L25.7532188,41.9155181 L25.8037617,41.9833775 C25.9253074,42.149559 26.0515073,42.312403 26.1822166,42.4717227 C26.264811,42.5747236 26.3498709,42.6765127 26.4361636,42.7783017 L26.533551,42.8922085 C26.651869,43.0285016 26.7722816,43.163024 26.8947475,43.2957295 L26.9083078,43.3114827 C27.1536833,43.5732977 27.4073438,43.8274913 27.668916,44.073689 L27.7860274,44.1839605 C27.9154664,44.3039261 28.0461382,44.4214683 28.1792754,44.536587 L28.1854392,44.5414341 L28.2544733,44.5983874 C28.3715848,44.6977529 28.4911618,44.7971185 28.6119715,44.8952723 L28.7599018,45.0116026 C28.9099962,45.1299732 29.0620561,45.2459153 29.2160202,45.359382 C29.3656413,45.4693111 29.5177179,45.5759734 29.6721385,45.6792905 L29.7054228,45.7023142 C29.8114395,45.7750207 29.9211545,45.8428801 30.0296367,45.9131631 L30.1701705,46.0052579 C30.3378248,46.1094705 30.5067119,46.2124714 30.6780644,46.311837 L30.8185982,46.3893906 C30.9443389,46.4608852 31.0713124,46.5311682 31.1995187,46.6002393 C31.2685528,46.6365925 31.3400525,46.671734 31.4103193,46.7068755 C31.5003103,46.752923 31.5915339,46.8013939 31.6827576,46.8462295 L31.745628,46.876524 L31.8578084,46.9298421 C32.0008077,46.9964896 32.1450397,47.0631373 32.2905045,47.1273613 L32.3817282,47.1673499 C32.5481498,47.2388446 32.7158041,47.3079158 32.8859239,47.3733516 C32.9266047,47.3903164 32.9672856,47.4048577 33.0091991,47.4206109 C33.1657587,47.4799878 33.3247837,47.5393648 33.4850415,47.5938946 L33.5454464,47.6144949 C33.7204972,47.6750835 33.8980136,47.7308251 34.0755299,47.785355 L34.2037362,47.82292 C34.3849508,47.8762381 34.5649326,47.9404622 34.752311,47.9743919 C46.6397418,50.1059037 50.0926812,40.9521572 50.0926812,40.9521572 C47.1932477,44.6662468 42.0452739,45.6453608 37.1672728,44.5559753 L37.1635746,44.5511282 Z M32.8809929,35.0798967 C33.1472674,35.4555469 33.443128,35.90148 33.7956951,36.2032119 C33.9239014,36.3413543 34.0582714,36.4770731 34.1951069,36.6103682 L34.2998908,36.7121573 C34.4330281,36.8393936 34.5673981,36.9629947 34.7066991,37.0841721 L34.7239577,37.0987134 L34.7276559,37.1023487 C34.8817499,37.2356441 35.0420078,37.3640921 35.2034983,37.4889049 L35.3119805,37.5725174 C35.4747038,37.6949067 35.6398926,37.8148723 35.8100125,37.929991 L35.8248055,37.9408969 C35.9000034,37.9917914 35.976434,38.0390507 36.0516319,38.0887335 C36.0886145,38.1117572 36.1231316,38.1372044 36.1601141,38.1590164 C36.2809239,38.2353582 36.4041991,38.3104882 36.5287071,38.3807712 L36.5804827,38.4098537 C36.6877321,38.4716543 36.7974471,38.5310312 36.9071621,38.5891964 C36.9453774,38.6110084 36.9848254,38.629185 37.0230407,38.6485734 L37.2511,38.7649037 L37.285617,38.7794451 C37.4421765,38.8557868 37.5999689,38.9284933 37.7614595,38.9975645 L37.8662434,39.0399766 C37.9956824,39.0945065 38.1251214,39.1466129 38.2557931,39.1962955 L38.4222148,39.2568843 C38.5417917,39.3005081 38.6601359,39.3404967 38.7809456,39.3792736 L38.9424362,39.4301681 C39.1137888,39.4822743 39.2826758,39.548922 39.4601921,39.5780047 C48.6380335,41.0721229 50.7571347,34.12623 50.7571347,34.12623 C48.8476014,36.8309113 45.1481116,38.1202395 41.2008386,37.1132548 C41.0263697,37.0676598 40.8529222,37.0183695 40.680617,36.9654182 L40.5240574,36.9157354 C40.4020214,36.876891 40.2807771,36.8356826 40.1603955,36.7921345 L39.9964394,36.7315458 C39.865287,36.6820411 39.735007,36.630331 39.605657,36.5764385 L39.4996403,36.5328147 C39.3380799,36.463805 39.1781889,36.3910784 39.0200995,36.3146952 C38.938738,36.2759184 38.8598418,36.234718 38.7797129,36.1947294 L38.6416446,36.1244466 C38.5397379,36.0697414 38.4386416,36.01359 38.3383875,35.9560099 L38.2656552,35.9160213 C38.1411471,35.8445266 38.0191047,35.7706083 37.8970623,35.6954783 L37.7861145,35.6227718 C37.7061501,35.5720505 37.6268367,35.520344 37.5481932,35.4676646 C37.3802687,35.3526322 37.2150368,35.2338474 37.0526268,35.1114029 L36.9404463,35.0253669 C35.2133603,33.6839322 33.8437725,31.8517288 33.1916465,29.7735351 C32.5087017,27.6189995 32.656632,25.1990854 33.8388415,23.2360103 L32.3866592,25.2511917 C30.6090303,27.7656243 30.705185,31.1319346 32.0920314,33.7917801 C32.3250216,34.2377133 32.5863651,34.6703168 32.8785274,35.0823203 L32.8809929,35.0798967 Z M42.5556334,31.9692709 C42.6308312,31.9971417 42.7072618,32.0213772 42.7836925,32.0468245 L42.8847781,32.0783306 C42.9932604,32.1110486 43.1005098,32.1510371 43.2114576,32.1704255 C48.2793025,33.1325747 49.6538213,29.6135808 50.0199488,29.096153 C48.8155498,30.7999083 46.7926031,31.2094881 44.3098399,30.6169303 C43.8573133,30.4996802 43.4169439,30.3410538 42.9944932,30.1431264 C42.5530733,29.9346219 42.1339163,29.683348 41.7432495,29.3930378 C39.5218297,27.7365417 38.1411471,24.5750214 39.590864,22 L38.8056007,23.0627265 C37.7577611,24.5786567 37.6554428,26.4617547 38.3815339,28.1352156 C39.1483059,29.9128892 40.7200651,31.3064301 42.5531678,31.9680592 L42.5556334,31.9692709 Z" id="Shape" fill="#FFFFFF" fill-rule="nonzero" mask="url(#mask-3)"></path>
            </g>
        </g>
    </g>
</svg>