<?xml version="1.0" encoding="UTF-8"?>
<svg width="30px" height="30px" viewBox="0 0 30 30" version="1.1" xmlns="http://www.w3.org/2000/svg" xmlns:xlink="http://www.w3.org/1999/xlink">
    <!-- Generator: Sketch 49.3 (51167) - http://www.bohemiancoding.com/sketch -->
    <title>JS@1.5x</title>
    <desc>Created with Sketch.</desc>
    <defs>
        <linearGradient x1="10.1069014%" y1="6.02534227%" x2="94.893743%" y2="100%" id="linearGradient-1">
            <stop stop-color="#FBDD7A" offset="0%"></stop>
            <stop stop-color="#FCA22C" offset="100%"></stop>
        </linearGradient>
        <rect id="path-2" x="0" y="0" width="30" height="30" rx="2.4"></rect>
        <linearGradient x1="50%" y1="29.7785187%" x2="55.8381525%" y2="71.6012378%" id="linearGradient-4">
            <stop stop-color="#FEE799" offset="0%"></stop>
            <stop stop-color="#F7B84D" offset="100%"></stop>
        </linearGradient>
    </defs>
    <g id="For-other-screens" stroke="none" stroke-width="1" fill="none" fill-rule="evenodd">
        <g id="Framework-Artboard-Copy" transform="translate(-151.000000, -232.000000)">
            <g id="JS" transform="translate(151.000000, 232.000000)">
                <mask id="mask-3" fill="white">
                    <use xlink:href="#path-2"></use>
                </mask>
                <g id="Mask">
                    <use fill="#FFFFFF" xlink:href="#path-2"></use>
                    <use fill="url(#linearGradient-1)" xlink:href="#path-2"></use>
                </g>
                <path d="M-6.48648649,27.9999488 C-4.48852924,23.7665687 -2.57256751,21.7829405 -0.738601287,22.0490642 C2.01234805,22.4482498 6.98373577,24.3544449 10.4414864,22.4482498 C13.899237,20.5420547 15.8253115,16.6340612 20.4588778,16.2046851 C23.5479219,15.9184344 26.9985663,14.7060619 30.8108108,12.5675676 L29.5202015,32.027027 L8.18333008,32.027027 L-6.48648649,30.6500044 L-6.48648649,27.9999488 Z" id="Path-6" fill="url(#linearGradient-4)" opacity="0.400000006" mask="url(#mask-3)"></path>
                <path d="M-6.89189189,24.8822547 C-4.89393465,19.5023342 -2.97797292,16.9814734 -1.14400669,17.3196723 C1.60694264,17.8269707 6.57833037,20.2494269 10.036081,17.8269707 C13.4938316,15.4045144 15.4199061,10.438106 20.0534724,9.89244049 C23.1425165,9.52866351 26.5931609,7.9879401 30.4054054,5.27027027 L29.1147961,30 L7.77792467,30 L-6.89189189,28.2500338 L-6.89189189,24.8822547 Z" id="Path-6" fill="url(#linearGradient-4)" opacity="0.5" mask="url(#mask-3)"></path>
                <path d="M-5.27027027,32.6412851 C-3.33746381,29.0252729 -1.48397909,27.3309238 0.29018389,27.5582379 C2.95142836,27.8992089 7.76070561,29.5274172 11.1057035,27.8992089 C14.4507014,26.2710006 16.3139691,22.9329228 20.7964408,22.566164 C23.7847553,22.3216582 27.1228786,21.28609 30.8108108,19.4594595 L29.5622866,36.0810811 L8.92118271,36.0810811 L-5.27027027,34.9048743 L-5.27027027,32.6412851 Z" id="Path-6" fill="url(#linearGradient-4)" opacity="0.300000012" mask="url(#mask-3)"></path>
                <path d="M11.338501,10.2880827 L13.4957747,10.2880827 L13.4957747,16.2439734 C13.4957747,18.9279195 12.189678,19.8648649 10.1031441,19.8648649 C9.5924379,19.8648649 8.93910202,19.781027 8.51351351,19.6411083 L8.75506375,17.9212981 C9.11278136,18.034475 9.48645576,18.0910696 9.86216899,18.0889739 C10.770858,18.0889739 11.338501,17.6833797 11.338501,16.2298116 L11.338501,10.2880827 Z M15.3689392,17.5304322 C15.9365823,17.8238649 16.8452713,18.117864 17.7677631,18.117864 C18.7615698,18.117864 19.286654,17.7122698 19.286654,17.0834854 C19.286654,16.5102154 18.8323095,16.1607019 17.6826454,15.7692695 C16.0930148,15.2101613 15.0428464,14.3434585 15.0428464,12.959 C15.0428464,11.3513514 16.4196827,10.1351351 18.6620741,10.1351351 C19.7548014,10.1351351 20.5358138,10.3447299 21.1034568,10.6104055 L20.6209315,12.3160538 C20.0023689,12.018274 19.3223759,11.8651285 18.6338932,11.8685406 C17.6970234,11.8685406 17.2426789,12.301892 17.2426789,12.7771624 C17.2426789,13.3781896 17.7677631,13.6438651 19.0169229,14.1191354 C20.7060492,14.7343245 21.4864865,15.6010272 21.4864865,16.9430003 C21.4864865,18.5228918 20.2660827,19.8648649 17.6400866,19.8648649 C16.5473593,19.8648649 15.4684349,19.5714322 14.9289727,19.277433 L15.3689392,17.5298657 L15.3689392,17.5304322 Z" id="Shape" fill="#FFFFFF" fill-rule="nonzero" mask="url(#mask-3)"></path>
            </g>
        </g>
    </g>
</svg>