<?xml version="1.0" encoding="UTF-8"?>
<svg width="844px" height="92px" viewBox="0 0 844 92" version="1.1" xmlns="http://www.w3.org/2000/svg" xmlns:xlink="http://www.w3.org/1999/xlink">
    <!-- Generator: Sketch 51.1 (57501) - http://www.bohemiancoding.com/sketch -->
    <title>PowerCharts</title>
    <desc>Created with Sketch.</desc>
    <defs></defs>
    <g id="Page-3" stroke="none" stroke-width="1" fill="none" fill-rule="evenodd">
        <g id="concept-one-rough-test-copy-6" transform="translate(-22.000000, -23.000000)" fill="#373C8B">
            <g id="PowerCharts" transform="translate(22.000000, 23.000000)">
                <path d="M152.446,78 L152.446,10.638 L175.106,10.638 C189.835,10.638 200.65,15.788 200.65,31.444 C200.65,46.379 189.526,53.28 175.106,53.28 L164.394,53.28 L164.394,78 L152.446,78 Z M164.394,43.701 L174.076,43.701 C184.17,43.701 188.908,39.684 188.908,31.444 C188.908,22.998 183.861,20.217 174.076,20.217 L164.394,20.217 L164.394,43.701 Z M206.521,52.765 C206.521,35.873 217.954,26.191 230.52,26.191 C243.189,26.191 254.622,35.873 254.622,52.765 C254.622,69.554 243.189,79.236 230.52,79.236 C217.954,79.236 206.521,69.554 206.521,52.765 Z M218.675,52.765 C218.675,62.859 223.104,69.554 230.52,69.554 C237.936,69.554 242.468,62.859 242.468,52.765 C242.468,42.568 237.936,35.873 230.52,35.873 C223.104,35.873 218.675,42.568 218.675,52.765 Z M274.089,78 L260.699,27.427 L272.647,27.427 L278.724,53.692 C279.754,58.533 280.475,63.271 281.402,68.215 L281.814,68.215 C282.741,63.271 283.771,58.43 285.007,53.692 L291.599,27.427 L302.414,27.427 L309.109,53.692 C310.345,58.533 311.375,63.271 312.508,68.215 L312.92,68.215 C313.847,63.271 314.671,58.533 315.598,53.692 L321.675,27.427 L332.799,27.427 L319.924,78 L305.813,78 L299.942,54.413 C298.809,49.675 297.985,45.04 296.852,39.684 L296.44,39.684 C295.513,45.04 294.586,49.778 293.453,54.516 L287.685,78 L274.089,78 Z M338.876,52.765 C338.876,36.285 350.309,26.191 362.154,26.191 C375.853,26.191 383.063,36.079 383.063,50.19 C383.063,52.456 382.857,54.516 382.548,55.752 L350.412,55.752 C351.442,64.919 357.21,70.069 365.347,70.069 C369.673,70.069 373.381,68.73 377.089,66.361 L381.106,73.777 C376.265,76.97 370.188,79.236 363.802,79.236 C349.794,79.236 338.876,69.451 338.876,52.765 Z M350.309,48.233 L372.763,48.233 C372.763,40.199 369.364,35.358 362.463,35.358 C356.489,35.358 351.339,39.787 350.309,48.233 Z M394.393,78 L394.393,27.427 L404.178,27.427 L405.002,36.388 L405.414,36.388 C409.019,29.796 414.375,26.191 419.731,26.191 C422.306,26.191 423.954,26.5 425.499,27.221 L423.439,37.521 C421.688,37.006 420.349,36.697 418.186,36.697 C414.169,36.697 409.328,39.478 406.238,47.1 L406.238,78 L394.393,78 Z M430.134,44.525 C430.134,22.483 443.936,9.402 461.24,9.402 C469.48,9.402 476.175,13.419 480.398,17.951 L473.806,25.367 C470.304,21.968 466.493,19.805 461.343,19.805 C450.322,19.805 442.391,29.075 442.391,44.216 C442.391,59.563 449.704,68.833 460.931,68.833 C466.905,68.833 471.334,66.361 475.145,62.138 L481.737,69.451 C476.278,75.734 469.274,79.236 460.725,79.236 C443.627,79.236 430.134,66.876 430.134,44.525 Z M491.831,78 L491.831,5.282 L503.676,5.282 L503.676,24.028 L503.264,33.813 C507.487,29.796 512.534,26.191 519.435,26.191 C530.25,26.191 534.988,33.504 534.988,46.276 L534.988,78 L523.143,78 L523.143,47.821 C523.143,39.478 520.774,36.388 515.212,36.388 C510.783,36.388 507.899,38.551 503.676,42.671 L503.676,78 L491.831,78 Z M547.142,64.404 C547.142,53.589 556.206,47.924 576.909,45.658 C576.806,40.302 574.54,35.77 567.742,35.77 C562.695,35.77 557.957,38.036 553.528,40.714 L549.202,32.783 C554.764,29.281 561.871,26.191 569.905,26.191 C582.574,26.191 588.754,33.916 588.754,48.027 L588.754,78 L579.072,78 L578.145,72.438 L577.836,72.438 C573.304,76.249 568.154,79.236 562.18,79.236 C553.322,79.236 547.142,73.262 547.142,64.404 Z M558.678,63.477 C558.678,68.009 561.665,69.966 565.888,69.966 C570.008,69.966 573.201,67.906 576.909,64.404 L576.909,53.074 C563.21,54.825 558.678,58.43 558.678,63.477 Z M603.174,78 L603.174,27.427 L612.959,27.427 L613.783,36.388 L614.195,36.388 C617.8,29.796 623.156,26.191 628.512,26.191 C631.087,26.191 632.735,26.5 634.28,27.221 L632.22,37.521 C630.469,37.006 629.13,36.697 626.967,36.697 C622.95,36.697 618.109,39.478 615.019,47.1 L615.019,78 L603.174,78 Z M643.344,60.902 L643.344,36.8 L636.134,36.8 L636.134,27.942 L643.962,27.427 L645.404,13.625 L655.292,13.625 L655.292,27.427 L668.167,27.427 L668.167,36.8 L655.292,36.8 L655.292,60.902 C655.292,66.876 657.558,69.76 662.399,69.76 C664.15,69.76 666.21,69.245 667.652,68.627 L669.712,77.382 C666.931,78.309 663.429,79.236 659.412,79.236 C647.67,79.236 643.344,71.82 643.344,60.902 Z M673.729,72.232 L679.291,64.61 C683.823,68.112 688.149,70.275 693.299,70.275 C698.758,70.275 701.333,67.7 701.333,64.198 C701.333,59.975 695.874,58.121 690.518,56.061 C683.823,53.589 676.304,49.778 676.304,41.332 C676.304,32.474 683.411,26.191 694.741,26.191 C701.745,26.191 707.41,29.075 711.53,32.268 L706.071,39.478 C702.569,36.903 698.964,35.152 694.947,35.152 C689.9,35.152 687.531,37.521 687.531,40.714 C687.531,44.628 692.578,46.276 698.037,48.233 C704.938,50.808 712.56,54.104 712.56,63.58 C712.56,72.232 705.659,79.236 692.887,79.236 C685.986,79.236 678.673,76.249 673.729,72.232 Z M738.001,78 L757.056,43.289 L739.134,10.638 L752.421,10.638 L759.94,25.573 C761.485,28.663 762.927,31.856 764.987,35.873 L765.399,35.873 C767.047,31.856 768.489,28.663 769.931,25.573 L777.038,10.638 L789.707,10.638 L771.785,43.804 L790.943,78 L777.656,78 L769.416,62.138 C767.665,58.636 766.017,55.237 764.06,51.117 L763.648,51.117 C761.897,55.237 760.249,58.636 758.601,62.138 L750.67,78 L738.001,78 Z M812.161,78 L812.161,20.732 L792.694,20.732 L792.694,10.638 L843.473,10.638 L843.473,20.732 L824.109,20.732 L824.109,78 L812.161,78 Z" id="PowerCharts-XT"></path>
                <g id="Powercharts-logo">
                    <path d="M45.9550562,52.1428571 L23,52.1428571 L23,40 L58,0 L47,40 L69,40 L69,52.1428571 L68.8689139,52.1428571 L34,90.1428571 L45.9550562,52.1428571 Z M91.4041667,90.1428571 L91.4041667,91.1428571 L57.4041667,91.1428571 L57.4041667,79 L81,79 L81,12.1428571 L69,12.1428571 L69,0 L81,0 L91.4041667,0 L91.4041667,90.1428571 Z M-7.46069873e-14,90 L-7.46069873e-14,0 L12.4041667,0 L34.4041667,0 L34.4041667,12.1428571 L12.4041667,12.1428571 L12.4041667,79 L24,79 L24,91.1428571 L-7.46069873e-14,91.1428571 L-7.46069873e-14,90 Z" id="Combined-Shape"></path>
                </g>
            </g>
        </g>
    </g>
</svg>