<?xml version="1.0" encoding="UTF-8"?>
<svg width="74px" height="74px" viewBox="0 0 74 74" version="1.1" xmlns="http://www.w3.org/2000/svg" xmlns:xlink="http://www.w3.org/1999/xlink">
    <!-- Generator: Sketch 49.3 (51167) - http://www.bohemiancoding.com/sketch -->
    <title>PHP</title>
    <desc>Created with Sketch.</desc>
    <defs>
        <linearGradient x1="13.190766%" y1="9.44338577%" x2="94.893743%" y2="100%" id="linearGradient-1">
            <stop stop-color="#6E81B6" offset="0%"></stop>
            <stop stop-color="#203C89" offset="100%"></stop>
        </linearGradient>
        <rect id="path-2" x="0" y="0" width="74" height="74" rx="6"></rect>
        <linearGradient x1="48.2745708%" y1="49.3376698%" x2="36.7643601%" y2="84.4800209%" id="linearGradient-4">
            <stop stop-color="#6E81B6" offset="0%"></stop>
            <stop stop-color="#385196" offset="100%"></stop>
        </linearGradient>
    </defs>
    <g id="For-other-screens" stroke="none" stroke-width="1" fill="none" fill-rule="evenodd">
        <g id="Framework-Artboard" transform="translate(-63.000000, -60.000000)">
            <g id="PHP" transform="translate(54.000000, 51.000000)">
                <g transform="translate(9.000000, 9.000000)">
                    <mask id="mask-3" fill="white">
                        <use xlink:href="#path-2"></use>
                    </mask>
                    <g id="Mask">
                        <use fill="#FFFFFF" xlink:href="#path-2"></use>
                        <use fill="url(#linearGradient-1)" xlink:href="#path-2"></use>
                    </g>
                    <path d="M-31.3472306,41.0530177 C-20.5346542,34.5112902 -12.325627,32.3215597 -6.72014899,34.4838261 C1.68806796,37.7272257 15.6503817,45.9190615 28.724051,45.2593579 C41.7977204,44.5996542 52.0412176,38.6337297 67.3498244,41.9296206 C77.5555623,44.1268811 89.8846129,44.8255779 104.336976,44.0257109 L79.9525648,104.149242 L-8.88559184,81.1554665 L-34.1042442,69.2656828 L-31.3472306,41.0530177 Z" id="Path-6" fill="url(#linearGradient-4)" opacity="0.5" mask="url(#mask-3)"></path>
                    <path d="M-34.0816961,57.5937293 C-20.983164,47.4447319 -11.5414286,43.6097647 -5.7564899,46.0888277 C2.92091812,49.8074223 16.8221424,59.893274 31.3469996,57.7268311 C45.8718567,55.5603881 58.2390773,46.268209 74.5102691,49.4018064 C85.3577304,51.4908713 98.816146,51.2887544 114.885516,48.7954556 L81.2950538,102.863083 L9.33946132,82.8165019 L-38.0634356,65.1219746 L-34.0816961,57.5937293 Z" id="Path-6" fill="url(#linearGradient-4)" opacity="0.400000006" mask="url(#mask-3)"></path>
                    <path d="M-31.5302629,63.7697536 C-20.9933138,57.1512373 -13.0486022,54.8878694 -7.6961282,56.9796497 C0.332582777,60.1173203 13.609071,68.1180874 26.2057279,67.3254898 C38.8023848,66.5328921 48.7801713,60.4929414 63.4495566,63.6107474 C73.2291467,65.6892847 85.0821653,66.2553606 99.0086122,65.308975 L74.8022461,102.482109 L9.3089599,84.2359044 L-34.2872765,68.9824187 L-31.5302629,63.7697536 Z" id="Path-6" fill="url(#linearGradient-4)" opacity="0.300000012" mask="url(#mask-3)"></path>
                    <path d="M26.6544141,34.6163446 C27.6918604,34.6163446 28.3835834,34.818838 28.7293068,35.223825 C29.0747537,35.6288119 29.1571083,36.324244 28.9763704,37.3092446 C28.7873418,38.3351531 28.4236553,39.0674021 27.884758,39.5062841 C27.3458607,39.945166 26.5256314,40.1643148 25.4246229,40.1643148 L23.7631611,40.1643148 L24.7829206,34.6163446 L26.6544141,34.6163446 Z M20,45.7806593 L22.7309656,45.7806593 L23.3790241,42.256455 L25.718391,42.256455 C26.7505865,42.256455 27.5998333,42.141621 28.2664078,41.9122453 C28.9329823,41.6828696 29.5390345,41.2986288 30.084288,40.7589384 C30.5419361,40.3145047 30.9122552,39.8236115 31.1957981,39.2871353 C31.4790646,38.7506591 31.680253,38.1589574 31.7993631,37.5117381 C32.0884331,35.9402953 31.870387,34.7162764 31.1457774,33.8396814 C30.4214442,32.9627941 29.2687567,32.5244966 27.6888205,32.5244966 L22.4369211,32.5244966 L20,45.7806593 Z M33.8051664,29 L36.5148524,29 L35.8670702,32.5244966 L38.28133,32.5244966 C39.7996385,32.5244966 40.8478628,32.8044226 41.4243447,33.3645668 C42.0008266,33.9247111 42.1735501,34.8325714 41.9430679,36.0875633 L40.8094491,42.256455 L38.0566513,42.256455 L39.1344459,36.3908652 C39.2568723,35.7234842 39.2121023,35.2685313 38.9990306,35.0257145 C38.7859589,34.7831898 38.3324562,34.6616353 37.6393514,34.6616353 L35.4738134,34.6616353 L34.0779313,42.256455 L31.3682452,42.256455 L33.8051664,29 Z M47.9720848,34.6163446 C49.0095311,34.6163446 49.7009778,34.818838 50.0469775,35.223825 C50.3924244,35.6288119 50.4745026,36.324244 50.2937648,37.3092446 C50.1052889,38.3351531 49.7416023,39.0674021 49.2024287,39.5062841 C48.6638078,39.945166 47.8433021,40.1643148 46.7428463,40.1643148 L45.0813845,40.1643148 L46.1008676,34.6163446 L47.9720848,34.6163446 Z M41.317118,45.7806593 L44.0483599,45.7806593 L44.6961421,42.256455 L47.035509,42.256455 C48.0679809,42.256455 48.9172277,42.141621 49.5838022,41.9122453 C50.2503766,41.6828696 50.8564288,41.2986288 51.4016823,40.7589384 C51.8593304,40.3145047 52.2296496,39.8236115 52.5129161,39.2871353 C52.7961826,38.7506591 52.9976473,38.1589574 53.1170338,37.5117381 C53.4058274,35.9402953 53.1877813,34.7162764 52.4634481,33.8396814 C51.7385622,32.9627941 50.5861511,32.5244966 49.0062148,32.5244966 L43.7543155,32.5244966 L41.317118,45.7806593 Z" id="Shape" fill="#FFFFFF" fill-rule="nonzero" mask="url(#mask-3)"></path>
                </g>
            </g>
        </g>
    </g>
</svg>