<?xml version="1.0" encoding="UTF-8"?>
<svg width="74px" height="74px" viewBox="0 0 74 74" version="1.1" xmlns="http://www.w3.org/2000/svg" xmlns:xlink="http://www.w3.org/1999/xlink">
    <!-- Generator: Sketch 49.3 (51167) - http://www.bohemiancoding.com/sketch -->
    <title>RubyOnRails</title>
    <desc>Created with Sketch.</desc>
    <defs>
        <linearGradient x1="13.39861%" y1="9.67375254%" x2="94.893743%" y2="100%" id="linearGradient-1">
            <stop stop-color="#FF7B81" offset="0%"></stop>
            <stop stop-color="#A91E18" offset="100%"></stop>
        </linearGradient>
        <rect id="path-2" x="0" y="0" width="74" height="74" rx="6"></rect>
        <linearGradient x1="65.9830668%" y1="-9.60893548%" x2="60.9177616%" y2="63.089188%" id="linearGradient-4">
            <stop stop-color="#FC96A2" offset="0%"></stop>
            <stop stop-color="#E46058" offset="100%"></stop>
        </linearGradient>
        <linearGradient x1="75.9841617%" y1="0%" x2="50%" y2="65.4928949%" id="linearGradient-5">
            <stop stop-color="#FFBDC8" offset="0%"></stop>
            <stop stop-color="#E56A65" offset="100%"></stop>
        </linearGradient>
    </defs>
    <g id="For-other-screens" stroke="none" stroke-width="1" fill="none" fill-rule="evenodd">
        <g id="Framework-Artboard" transform="translate(-174.000000, -401.000000)">
            <g id="RubyOnRails" transform="translate(174.000000, 401.000000)">
                <mask id="mask-3" fill="white">
                    <use xlink:href="#path-2"></use>
                </mask>
                <g id="Mask">
                    <use fill="#FFFFFF" xlink:href="#path-2"></use>
                    <use fill="url(#linearGradient-1)" xlink:href="#path-2"></use>
                </g>
                <path d="M-16,66.4391162 C-11.1694731,49.9159422 -6.26535392,41.9702638 -1.28764243,42.6020812 C6.17892481,43.5498073 25.615048,49.2110627 35,44.6854715 C44.384952,40.1598803 48.781306,31.1041771 61.3576313,30.0847742 C69.7418482,29.4051723 77.9559711,32.8116471 86,40.3041984 L81.7285744,76 L23.8164991,76 L-16,72.7307432 L-16,66.4391162 Z" id="Path-6" fill="url(#linearGradient-4)" opacity="0.400000006" mask="url(#mask-3)"></path>
                <path d="M-16,79.4391162 C-11.1694731,62.9159422 -6.26535392,54.9702638 -1.28764243,55.6020812 C6.17892481,56.5498073 25.615048,62.2110627 35,57.6854715 C44.384952,53.1598803 48.781306,44.1041771 61.3576313,43.0847742 C69.7418482,42.4051723 77.9559711,45.8116471 86,53.3041984 L81.7285744,89 L23.8164991,89 L-16,85.7307432 L-16,79.4391162 Z" id="Path-6" fill="url(#linearGradient-4)" opacity="0.400000006" mask="url(#mask-3)"></path>
                <path d="M-13,90.6077579 C-8.13543204,71.9208949 -3.21998437,62.8547581 1.74634301,63.4093475 C9.19583407,64.2412316 20.1327373,69.7042894 32.5073076,66.5568185 C44.8818778,63.4093475 55.4580268,54.6238865 68.0055899,53.7290868 C76.3706319,53.1325537 83.0354353,54.7053247 88,58.4473998 L84.5050674,99 L26.725438,99 L-13,96.1303495 L-13,90.6077579 Z" id="Path-6" fill="url(#linearGradient-5)" opacity="0.200000003" mask="url(#mask-3)"></path>
                <g id="Logos@1.5x" mask="url(#mask-3)" fill="#FFFFFF" fill-rule="nonzero">
                    <g transform="translate(21.625000, 26.106105)" id="Shape">
                        <path d="M1.08659875,22.4103673 L13.3496418,22.4103673 C13.3496418,22.4103673 11.0056931,11.3178795 18.7671126,6.82614637 C20.459102,5.97287808 25.8455273,2.78519652 34.6625001,9.5469453 C34.9419111,9.30545425 35.2057994,9.11226143 35.2057994,9.11226143 C35.2057994,9.11226143 27.133923,0.756671886 18.1461991,1.69043719 C13.6290528,2.10902164 8.0718764,6.37536312 4.81208015,12.0101537 C1.55228392,17.6449444 1.08659875,22.4103673 1.08659875,22.4103673 Z"></path>
                        <path d="M1.08659875,22.4103673 L13.3496418,22.4103673 C13.3496418,22.4103673 11.0056931,11.3178795 18.7671126,6.82614637 C20.459102,5.97287808 25.8455273,2.78519652 34.6625001,9.5469453 C34.9419111,9.30545425 35.2057994,9.11226143 35.2057994,9.11226143 C35.2057994,9.11226143 27.133923,0.756671886 18.1461991,1.69043719 C13.6290528,2.10902164 8.0718764,6.37536312 4.81208015,12.0101537 C1.55228392,17.6449444 1.08659875,22.4103673 1.08659875,22.4103673 Z"></path>
                        <path d="M1.08659875,22.4103673 L13.3496418,22.4103673 C13.3496418,22.4103673 11.0056931,11.3178795 18.7671126,6.82614637 C20.459102,5.97287808 25.8455273,2.78519652 34.6625001,9.5469453 C34.9419111,9.30545425 35.2057994,9.11226143 35.2057994,9.11226143 C35.2057994,9.11226143 27.133923,0.756671886 18.1461991,1.69043719 C13.61353,2.10902164 8.05635357,6.37536312 4.79655732,12.0101537 C1.53676108,17.6449444 1.08659875,22.4103673 1.08659875,22.4103673 Z M26.6371921,2.59200369 L26.6992835,1.51334377 C26.5595779,1.43284676 26.171507,1.23965394 25.1935681,0.949864707 L25.1314767,2.01242522 C25.6437305,2.18951865 26.1404612,2.38271148 26.6371921,2.59200369 Z"></path>
                        <path d="M25.1625224,6.00507688 L25.100431,7.0193392 C25.6126847,7.0354386 26.1249384,7.09983621 26.6371921,7.21253202 L26.6992835,6.21436911 C26.171507,6.1016733 25.6592532,6.03727568 25.1625224,6.00507688 Z M19.4190719,0.982063515 L19.5743003,0.982063515 L19.2638435,0 C18.7826354,0 18.2859047,0.0321988036 17.7736509,0.0965964111 L18.0685848,1.04646112 C18.5187472,0.998162911 18.9689095,0.982063515 19.4190719,0.982063515 Z M20.1641682,6.90664338 L20.5211934,8.01750212 C20.9713558,7.79211049 21.4215181,7.59891767 21.8716804,7.45402305 L21.530178,6.39146253 C21.0024015,6.55245655 20.5522392,6.72954997 20.1641682,6.90664338 Z M13.1167991,2.67250071 L12.4182714,1.56164197 C12.0302004,1.7709342 11.6266065,1.99632583 11.20749,2.25391626 L11.9215405,3.38087438 C12.3251343,3.12328396 12.7132053,2.88179292 13.1167991,2.67250071 Z M16.2989812,9.91723153 L17.0440774,11.0763885 C17.3079657,10.6739034 17.6184225,10.3036172 17.9599251,9.93333096 L17.2613972,8.83857161 C16.9043719,9.17665905 16.5783923,9.5469453 16.2989812,9.91723153 Z M14.0481695,15.1012389 L15.3055194,16.1316006 C15.3676108,15.5037239 15.4762707,14.8758473 15.6314991,14.2479707 L14.5138546,13.3303047 C14.3120577,13.9259825 14.1723522,14.5216604 14.0481695,15.1012389 Z M7.24916592,7.45402305 L6.14704433,6.45586013 C5.74345052,6.85834518 5.35537954,7.26083023 4.99835423,7.66331527 L6.19361286,8.72587579 C6.51959248,8.29119194 6.87661778,7.85650809 7.24916592,7.45402305 Z M2.56126847,14.6504557 L0.776141962,13.9742808 C0.481208015,14.6665551 0.155228392,15.4715252 0,15.906209 L1.78512651,16.5823839 C1.98692342,16.0350043 2.31290305,15.2461336 2.56126847,14.6504557 Z M13.8153269,19.190487 C13.8463726,20.0437553 13.9239868,20.7360296 14.001601,21.2190116 L15.8643416,21.9112859 C15.7246361,21.2834092 15.5849306,20.5750355 15.4917935,19.8183636 L13.8153269,19.190487 Z"></path>
                    </g>
                </g>
            </g>
        </g>
    </g>
</svg>